<svg width="387" height="389" viewBox="0 0 387 389" fill="none" xmlns="http://www.w3.org/2000/svg">
<path d="M249.103 127.432C255.235 127.432 260.224 132.447 260.224 138.61V250.392C260.224 256.555 255.235 261.57 249.103 261.57H137.896C131.764 261.57 126.775 256.555 126.775 250.392V138.61C126.775 132.447 131.764 127.432 137.896 127.432H249.103ZM249.103 116.253H137.896C125.612 116.253 115.655 126.263 115.655 138.61V250.392C115.655 262.739 125.612 272.749 137.896 272.749H249.103C261.387 272.749 271.344 262.739 271.344 250.392V138.61C271.344 126.263 261.387 116.253 249.103 116.253Z" fill="#47385C"/>
<path d="M213.518 209.033V179.969C213.518 176.882 211.028 174.38 207.957 174.38H179.043C175.973 174.38 173.483 176.882 173.483 179.969V209.033C173.483 212.12 175.973 214.621 179.043 214.621H207.957C211.028 214.621 213.518 212.12 213.518 209.033Z" fill="#47385C"/>
<path d="M231.311 145.317H155.69C149.549 145.317 144.569 150.323 144.569 156.495V232.506C144.569 238.679 149.549 243.685 155.69 243.685H231.311C237.452 243.685 242.431 238.679 242.431 232.506V156.495C242.431 150.323 237.452 145.317 231.311 145.317ZM226.862 232.506H160.138C157.681 232.506 155.69 230.506 155.69 228.035V160.966C155.69 158.496 157.681 156.495 160.138 156.495H226.862C229.32 156.495 231.311 158.496 231.311 160.966V228.035C231.311 230.506 229.32 232.506 226.862 232.506Z" fill="#47385C"/>
<path d="M249.103 11.1782C282.966 11.1782 314.802 24.4333 338.747 48.5023C362.692 72.5711 375.879 104.572 375.879 138.61V250.391C375.879 284.43 362.692 316.43 338.747 340.499C314.802 364.568 282.966 377.823 249.103 377.823H137.897C104.034 377.823 72.1977 364.568 48.2527 340.499C24.3076 316.43 11.1207 284.43 11.1207 250.391V138.61C11.1207 104.572 24.3076 72.5711 48.2527 48.5023C72.1977 24.4333 104.034 11.1782 137.897 11.1782H249.103ZM249.103 0H137.897C101.063 0 66.435 14.4177 40.3881 40.597C14.3435 66.7786 0 101.586 0 138.61V250.391C0 287.416 14.3435 322.223 40.3881 348.403C66.4328 374.581 101.063 389.002 137.897 389.002H249.103C285.937 389.002 320.565 374.585 346.612 348.405C372.657 322.225 387 287.416 387 250.391V138.61C387 101.586 372.657 66.7786 346.61 40.597C320.565 14.4177 285.937 0 249.103 0Z" fill="#47385C"/>
<path d="M249.103 40.2416C275.244 40.2416 299.818 50.4741 318.303 69.0523C336.785 87.6327 346.965 112.334 346.965 138.61V250.391C346.965 276.668 336.785 301.369 318.303 319.949C299.818 338.528 275.244 348.761 249.103 348.761H137.896C111.756 348.761 87.1815 338.528 68.6967 319.949C50.2141 301.371 40.0343 276.668 40.0343 250.391V138.61C40.0343 112.334 50.2141 87.6327 68.6967 69.0523C87.1793 50.4741 111.756 40.2416 137.896 40.2416H249.103ZM249.103 29.0634H137.896C108.787 29.0634 81.4188 40.4584 60.8344 61.1493C40.25 81.8401 28.9136 109.35 28.9136 138.61V250.391C28.9136 279.652 40.25 307.162 60.8344 327.852C81.4188 348.544 108.787 359.938 137.896 359.938H249.103C278.213 359.938 305.581 348.544 326.165 327.852C346.75 307.162 358.086 279.652 358.086 250.391V138.61C358.086 109.35 346.75 81.8401 326.165 61.1493C305.581 40.4584 278.213 29.0634 249.103 29.0634Z" fill="#47385C"/>
<path d="M249.103 69.3047C267.519 69.3047 284.834 76.5146 297.857 89.6043C310.879 102.694 318.052 120.098 318.052 138.609V250.391C318.052 268.903 310.879 286.307 297.857 299.397C284.834 312.487 267.519 319.697 249.103 319.697H137.897C119.481 319.697 102.166 312.487 89.1435 299.397C76.1212 286.307 68.9483 268.903 68.9483 250.391V138.609C68.9483 120.098 76.1212 102.694 89.1435 89.6043C102.166 76.5146 119.481 69.3047 137.897 69.3047H249.103ZM249.103 58.1265H137.897C116.509 58.1265 96.4031 66.499 81.2789 81.6991C66.1548 96.8992 57.8276 117.112 57.8276 138.609V250.391C57.8276 271.89 66.157 292.1 81.2789 307.302C96.4031 322.505 116.509 330.875 137.897 330.875H249.103C270.491 330.875 290.597 322.503 305.721 307.302C320.843 292.1 329.172 271.89 329.172 250.391V138.609C329.172 117.112 320.843 96.9014 305.721 81.6991C290.597 66.499 270.491 58.1265 249.103 58.1265Z" fill="#47385C"/>
<path d="M249.103 98.3683C259.797 98.3683 269.85 102.554 277.412 110.155C284.974 117.756 289.138 127.861 289.138 138.61V250.392C289.138 261.141 284.974 271.246 277.412 278.847C269.85 286.448 259.797 290.634 249.103 290.634H137.896C127.203 290.634 117.15 286.448 109.588 278.847C102.025 271.246 97.8619 261.141 97.8619 250.392V138.61C97.8619 127.861 102.025 117.756 109.588 110.155C117.15 102.554 127.203 98.3683 137.896 98.3683H249.103ZM249.103 87.1902H137.896C124.231 87.1902 111.387 92.5378 101.725 102.251C92.0636 111.963 86.7412 124.877 86.7412 138.61V250.392C86.7412 264.128 92.0613 277.039 101.725 286.751C111.387 296.462 124.233 301.812 137.896 301.812H249.103C262.768 301.812 275.613 296.465 285.274 286.751C294.936 277.037 300.258 264.125 300.258 250.392V138.61C300.258 124.875 294.938 111.963 285.274 102.251C275.611 92.54 262.766 87.1902 249.103 87.1902Z" fill="#47385C"/>
<path d="M249.103 127.432C255.235 127.432 260.224 132.447 260.224 138.61V250.392C260.224 256.555 255.235 261.57 249.103 261.57H137.896C131.764 261.57 126.775 256.555 126.775 250.392V138.61C126.775 132.447 131.764 127.432 137.896 127.432H249.103ZM249.103 116.253H137.896C125.612 116.253 115.655 126.263 115.655 138.61V250.392C115.655 262.739 125.612 272.749 137.896 272.749H249.103C261.387 272.749 271.344 262.739 271.344 250.392V138.61C271.344 126.263 261.387 116.253 249.103 116.253Z" fill="#47385C"/>
</svg>