<svg width="362" height="342" viewBox="0 0 362 342" fill="none" xmlns="http://www.w3.org/2000/svg">
<path d="M408.736 208.017C418.797 208.017 426.983 216.203 426.983 226.264V408.736C426.983 418.797 418.797 426.983 408.736 426.983H226.264C216.203 426.983 208.017 418.797 208.017 408.736V226.264C208.017 216.203 216.203 208.017 226.264 208.017H408.736ZM408.736 189.77H226.264C206.108 189.77 189.77 206.108 189.77 226.264V408.736C189.77 428.891 206.108 445.23 226.264 445.23H408.736C428.891 445.23 445.23 428.891 445.23 408.736V226.264C445.23 206.108 428.891 189.77 408.736 189.77Z" fill="url(#paint0_linear_2426_5607)"/>
<path d="M350.345 341.221V293.779C350.345 288.74 346.26 284.655 341.221 284.655H293.779C288.74 284.655 284.655 288.74 284.655 293.779V341.221C284.655 346.26 288.74 350.345 293.779 350.345H341.221C346.26 350.345 350.345 346.26 350.345 341.221Z" fill="url(#paint1_linear_2426_5607)"/>
<path d="M379.54 237.213H255.46C245.384 237.213 237.213 245.384 237.213 255.46V379.54C237.213 389.617 245.384 397.788 255.46 397.788H379.54C389.617 397.788 397.788 389.617 397.788 379.54V255.46C397.788 245.384 389.617 237.213 379.54 237.213ZM372.242 379.54H262.759C258.726 379.54 255.46 376.274 255.46 372.242V262.759C255.46 258.726 258.726 255.46 262.759 255.46H372.242C376.274 255.46 379.54 258.726 379.54 262.759V372.242C379.54 376.274 376.274 379.54 372.242 379.54Z" fill="url(#paint2_linear_2426_5607)"/>
<path d="M408.736 18.2471C464.298 18.2471 516.536 39.8846 555.826 79.1743C595.115 118.464 616.753 170.702 616.753 226.264V408.736C616.753 464.298 595.115 516.536 555.826 555.826C516.536 595.115 464.298 616.753 408.736 616.753H226.264C170.702 616.753 118.464 595.115 79.1743 555.826C39.8846 516.536 18.2471 464.298 18.2471 408.736V226.264C18.2471 170.702 39.8846 118.464 79.1743 79.1743C118.464 39.8846 170.702 18.2471 226.264 18.2471H408.736ZM408.736 0H226.264C165.826 0 109.008 23.5351 66.2699 66.2699C23.5351 109.008 0 165.826 0 226.264V408.736C0 469.174 23.5351 525.992 66.2699 568.726C109.005 611.461 165.826 635 226.264 635H408.736C469.174 635 525.992 611.465 568.73 568.73C611.465 525.995 635 469.174 635 408.736V226.264C635 165.826 611.465 109.008 568.726 66.2699C525.992 23.5351 469.174 0 408.736 0Z" fill="url(#paint3_linear_2426_5607)"/>
<path d="M408.735 65.6895C451.627 65.6895 491.95 82.3929 522.28 112.72C552.607 143.05 569.31 183.373 569.31 226.264V408.735C569.31 451.627 552.607 491.95 522.28 522.28C491.95 552.607 451.627 569.31 408.735 569.31H226.264C183.373 569.31 143.05 552.607 112.72 522.28C82.3929 491.953 65.6895 451.627 65.6895 408.735V226.264C65.6895 183.373 82.3929 143.05 112.72 112.72C143.046 82.3929 183.373 65.6895 226.264 65.6895H408.735ZM408.735 47.4424H226.264C178.501 47.4424 133.594 66.0435 99.8189 99.8189C66.0435 133.594 47.4424 178.501 47.4424 226.264V408.735C47.4424 456.499 66.0435 501.405 99.8189 535.181C133.594 568.956 178.501 587.557 226.264 587.557H408.735C456.499 587.557 501.405 568.956 535.181 535.181C568.956 501.405 587.557 456.499 587.557 408.735V226.264C587.557 178.501 568.956 133.594 535.181 99.8189C501.405 66.0435 456.499 47.4424 408.735 47.4424Z" fill="url(#paint4_linear_2426_5607)"/>
<path d="M408.736 113.132C438.953 113.132 467.364 124.902 488.731 146.269C510.099 167.637 521.868 196.047 521.868 226.265V408.736C521.868 438.953 510.099 467.364 488.731 488.731C467.364 510.099 438.953 521.868 408.736 521.868H226.265C196.047 521.868 167.637 510.099 146.269 488.731C124.902 467.364 113.132 438.953 113.132 408.736V226.265C113.132 196.047 124.902 167.637 146.269 146.269C167.637 124.902 196.047 113.132 226.265 113.132H408.736ZM408.736 94.8853H226.265C191.172 94.8853 158.181 108.552 133.365 133.365C108.549 158.177 94.8853 191.172 94.8853 226.265V408.736C94.8853 443.829 108.552 476.82 133.365 501.636C158.181 526.452 191.172 540.115 226.265 540.115H408.736C443.829 540.115 476.82 526.448 501.636 501.636C526.448 476.82 540.115 443.829 540.115 408.736V226.265C540.115 191.172 526.448 158.181 501.636 133.365C476.82 108.552 443.829 94.8853 408.736 94.8853Z" fill="url(#paint5_linear_2426_5607)"/>
<path d="M408.736 160.575C426.282 160.575 442.778 167.406 455.186 179.815C467.594 192.223 474.425 208.718 474.425 226.264V408.736C474.425 426.282 467.594 442.778 455.186 455.186C442.778 467.594 426.282 474.425 408.736 474.425H226.264C208.718 474.425 192.223 467.594 179.815 455.186C167.406 442.778 160.575 426.282 160.575 408.736V226.264C160.575 208.718 167.406 192.223 179.815 179.815C192.223 167.406 208.718 160.575 226.264 160.575H408.736ZM408.736 142.328H226.264C203.842 142.328 182.767 151.057 166.914 166.914C151.061 182.767 142.328 203.846 142.328 226.264V408.736C142.328 431.158 151.057 452.233 166.914 468.086C182.767 483.939 203.846 492.672 226.264 492.672H408.736C431.158 492.672 452.233 483.943 468.086 468.086C483.939 452.23 492.672 431.154 492.672 408.736V226.264C492.672 203.842 483.943 182.767 468.086 166.914C452.23 151.061 431.154 142.328 408.736 142.328Z" fill="url(#paint6_linear_2426_5607)"/>
<path d="M408.736 208.017C418.797 208.017 426.983 216.203 426.983 226.264V408.736C426.983 418.797 418.797 426.983 408.736 426.983H226.264C216.203 426.983 208.017 418.797 208.017 408.736V226.264C208.017 216.203 216.203 208.017 226.264 208.017H408.736ZM408.736 189.77H226.264C206.108 189.77 189.77 206.108 189.77 226.264V408.736C189.77 428.891 206.108 445.23 226.264 445.23H408.736C428.891 445.23 445.23 428.891 445.23 408.736V226.264C445.23 206.108 428.891 189.77 408.736 189.77Z" fill="url(#paint7_linear_2426_5607)"/>
<defs>
<linearGradient id="paint0_linear_2426_5607" x1="189.77" y1="317.509" x2="445.216" y2="317.509" gradientUnits="userSpaceOnUse">
<stop stop-color="#6250F2"/>
<stop offset="1" stop-color="#8272F5"/>
</linearGradient>
<linearGradient id="paint1_linear_2426_5607" x1="317.498" y1="284.655" x2="317.498" y2="350.341" gradientUnits="userSpaceOnUse">
<stop stop-color="#6250F2"/>
<stop offset="1" stop-color="#8272F5"/>
</linearGradient>
<linearGradient id="paint2_linear_2426_5607" x1="237.213" y1="317.506" x2="397.779" y2="317.506" gradientUnits="userSpaceOnUse">
<stop stop-color="#6250F2"/>
<stop offset="1" stop-color="#8272F5"/>
</linearGradient>
<linearGradient id="paint3_linear_2426_5607" x1="0" y1="317.522" x2="634.965" y2="317.522" gradientUnits="userSpaceOnUse">
<stop stop-color="#6250F2"/>
<stop offset="1" stop-color="#8272F5"/>
</linearGradient>
<linearGradient id="paint4_linear_2426_5607" x1="47.4424" y1="317.519" x2="587.527" y2="317.519" gradientUnits="userSpaceOnUse">
<stop stop-color="#6250F2"/>
<stop offset="1" stop-color="#8272F5"/>
</linearGradient>
<linearGradient id="paint5_linear_2426_5607" x1="94.8853" y1="317.516" x2="540.09" y2="317.516" gradientUnits="userSpaceOnUse">
<stop stop-color="#6250F2"/>
<stop offset="1" stop-color="#8272F5"/>
</linearGradient>
<linearGradient id="paint6_linear_2426_5607" x1="142.328" y1="317.512" x2="492.653" y2="317.512" gradientUnits="userSpaceOnUse">
<stop stop-color="#6250F2"/>
<stop offset="1" stop-color="#8272F5"/>
</linearGradient>
<linearGradient id="paint7_linear_2426_5607" x1="189.77" y1="317.509" x2="445.216" y2="317.509" gradientUnits="userSpaceOnUse">
<stop stop-color="#6250F2"/>
<stop offset="1" stop-color="#8272F5"/>
</linearGradient>
</defs>
</svg>
