<?xml version="1.0" encoding="UTF-8"?><svg id="Layer_1" xmlns="http://www.w3.org/2000/svg" viewBox="0 0 118.8 79.2"><defs><style>.cls-1{fill:#47385c;stroke-width:0px;}</style></defs><path class="cls-1" d="m79.2,43.56l5.14,8.91c2.29,3.96-.57,8.91-5.14,8.91-3.47,0-5.95-2.85-5.95-5.95,0-.99.25-2,.8-2.96l5.14-8.91Z"/><path class="cls-1" d="m79.2,35.64l-5.14-8.91c-2.29-3.96.57-8.91,5.14-8.91,3.47,0,5.95,2.85,5.95,5.95,0,.99-.25,2-.8,2.96l-5.14,8.91Z"/><path class="cls-1" d="m65.48,41.58h10.29l-5.14,8.91c-2.29,3.96-8,3.96-10.29,0-.55-.96-.81-1.97-.81-2.96,0-3.1,2.48-5.95,5.95-5.95Z"/><path class="cls-1" d="m92.92,37.62h-10.29l5.14-8.91c2.29-3.96,8-3.96,10.29,0,.55.96.81,1.97.81,2.96,0,3.1-2.48,5.95-5.95,5.95Z"/><path class="cls-1" d="m65.48,25.74c2,0,4,.99,5.14,2.97l5.14,8.91h-10.29c-4.57,0-7.43-4.95-5.14-8.91,1.14-1.98,3.14-2.97,5.14-2.97Z"/><path class="cls-1" d="m92.92,41.58c4.57,0,7.43,4.95,5.14,8.91-1.14,1.98-3.14,2.97-5.14,2.97s-4-.99-5.14-2.97l-5.14-8.91h10.29Z"/><path class="cls-1" d="m19.8,0h79.2c10.94,0,19.8,8.86,19.8,19.8v39.6c0,10.94-8.86,19.8-19.8,19.8H19.8c-10.94,0-19.8-8.86-19.8-19.8V19.8C0,8.86,8.86,0,19.8,0Zm59.4,67.32c15.31,0,27.72-12.41,27.72-27.72s-12.41-27.72-27.72-27.72-27.72,12.41-27.72,27.72,12.41,27.72,27.72,27.72Zm-61.38-25.74h21.78c2.19,0,3.96-1.77,3.96-3.96,0-1.09-.44-2.08-1.16-2.8-.72-.72-1.71-1.16-2.8-1.16h-21.78c-2.19,0-3.96,1.77-3.96,3.96s1.77,3.96,3.96,3.96Zm0-15.84h21.78c2.19,0,3.96-1.77,3.96-3.96,0-1.09-.44-2.08-1.16-2.8-.72-.72-1.71-1.16-2.8-1.16h-21.78c-2.19,0-3.96,1.77-3.96,3.96s1.77,3.96,3.96,3.96Z"/></svg>