<svg width="363" height="343" viewBox="0 0 363 343" fill="none" xmlns="http://www.w3.org/2000/svg">
<path d="M362.775 276.429C359.211 276.429 355.646 277.345 352.444 279.173L281.657 319.622C275.169 323.328 271.167 330.228 271.167 337.698V444.105C271.167 455.601 280.491 464.925 291.987 464.925H433.563C445.06 464.925 454.383 455.601 454.383 444.105V337.698C454.383 330.228 450.381 323.328 443.894 319.622L373.106 279.173C369.904 277.345 366.34 276.429 362.775 276.429ZM299.899 444.109C295.531 444.109 291.987 440.565 291.987 436.197V342.291C291.987 339.451 293.507 336.832 295.972 335.42L358.849 299.489C360.064 298.794 361.418 298.448 362.775 298.448C364.133 298.448 365.486 298.794 366.702 299.489L429.578 335.42C432.043 336.828 433.563 339.451 433.563 342.291V436.197C433.563 440.565 430.02 444.109 425.651 444.109H299.899Z" fill="url(#paint0_linear_0_1)"/>
<path d="M362.775 21.5348C404.011 21.5348 444.731 32.3487 480.533 52.8063L584.633 112.293C658.398 154.445 704.222 233.407 704.222 318.369V477.421C704.222 540.818 679.534 600.421 634.705 645.25C589.875 690.08 530.272 714.768 466.875 714.768H258.676C195.279 714.768 135.676 690.08 90.846 645.25C46.0165 600.421 21.3282 540.818 21.3282 477.421L21.3282 318.369C21.3282 233.407 67.1529 154.445 140.918 112.293L245.018 52.8063C280.82 32.3487 321.539 21.5348 362.775 21.5348ZM362.775 0.714844C317.921 0.714844 273.633 12.4781 234.687 34.7305L130.587 94.2172C50.3513 140.067 0.508301 225.953 0.508301 318.369L0.508301 477.421C0.508301 546.381 27.3619 611.21 76.1222 659.974C124.882 708.735 189.716 735.588 258.676 735.588H466.875C535.835 735.588 600.664 708.735 649.428 659.974C698.189 611.214 725.042 546.381 725.042 477.421V318.369C725.042 225.958 675.199 140.067 594.964 94.2172L490.864 34.7305C451.918 12.4781 407.63 0.714844 362.775 0.714844Z" fill="url(#paint1_linear_0_1)"/>
<path d="M362.775 75.6666C394.605 75.6666 426.039 84.0154 453.675 99.8053L557.775 159.292C614.718 191.829 650.091 252.786 650.091 318.369V477.421C650.091 526.36 631.032 572.368 596.429 606.975C561.822 641.578 515.814 660.636 466.875 660.636H258.676C209.736 660.636 163.728 641.578 129.121 606.975C94.5145 572.372 75.4601 526.36 75.4601 477.421L75.4601 318.369C75.4601 252.786 110.833 191.829 167.776 159.292L271.875 99.8053C299.512 84.0113 330.946 75.6666 362.775 75.6666ZM362.775 54.8467C327.327 54.8467 292.321 64.1407 261.545 81.7294L157.445 141.216C94.0315 177.451 54.6401 245.333 54.6401 318.369L54.6401 477.421C54.6401 531.919 75.864 583.157 114.402 621.695C152.939 660.232 204.177 681.456 258.676 681.456H466.875C521.373 681.456 572.611 660.232 611.149 621.695C649.687 583.157 670.911 531.919 670.911 477.421V318.369C670.911 245.333 631.519 177.451 568.106 141.216L464.006 81.7294C433.23 64.1407 398.223 54.8467 362.775 54.8467Z" fill="url(#paint2_linear_0_1)"/>
<path d="M362.775 129.798C385.203 129.798 407.347 135.678 426.817 146.804L530.917 206.291C571.037 229.214 595.959 272.161 595.959 318.369V477.421C595.959 511.899 582.53 544.315 558.15 568.695C533.769 593.076 501.353 606.504 466.875 606.504H258.676C224.198 606.504 191.781 593.076 167.401 568.695C143.021 544.315 129.592 511.899 129.592 477.421L129.592 318.369C129.592 272.161 154.513 229.218 194.633 206.291L298.733 146.804C318.204 135.678 340.348 129.798 362.775 129.798ZM362.775 108.979C336.73 108.979 311.013 115.807 288.402 128.728L184.303 188.215C137.712 214.835 108.772 264.708 108.772 318.369V477.421C108.772 517.462 124.366 555.104 152.677 583.419C180.992 611.73 218.635 627.324 258.676 627.324H466.875C506.916 627.324 544.558 611.73 572.874 583.419C601.184 555.104 616.779 517.462 616.779 477.421V318.369C616.779 264.712 587.839 214.84 541.248 188.215L437.148 128.728C414.538 115.807 388.821 108.979 362.775 108.979Z" fill="url(#paint3_linear_0_1)"/>
<path d="M362.775 183.93C375.796 183.93 388.654 187.345 399.96 193.807L504.059 253.294C527.353 266.606 541.823 291.54 541.823 318.369V477.421C541.823 497.441 534.028 516.262 519.87 530.42C505.713 544.578 486.891 552.373 466.871 552.373H258.671C238.651 552.373 219.83 544.578 205.672 530.42C191.515 516.262 183.72 497.441 183.72 477.421L183.72 318.369C183.72 291.54 198.189 266.602 221.487 253.294L325.587 193.807C336.892 187.345 349.75 183.93 362.775 183.93ZM362.775 163.11C346.136 163.11 329.705 167.474 315.26 175.727L211.16 235.214C181.396 252.224 162.904 284.087 162.904 318.369L162.904 477.421C162.904 503.004 172.864 527.051 190.957 545.14C209.045 563.228 233.096 573.192 258.676 573.192H466.875C492.459 573.192 516.506 563.232 534.594 545.14C552.682 527.051 562.647 503 562.647 477.421V318.369C562.647 284.087 544.155 252.224 514.39 235.214L410.291 175.727C395.846 167.474 379.415 163.11 362.775 163.11Z" fill="url(#paint4_linear_0_1)"/>
<path d="M362.775 238.062C366.394 238.062 369.966 239.012 373.106 240.806L477.206 300.293C483.677 303.991 487.695 310.915 487.695 318.369V477.421C487.695 488.901 478.355 498.241 466.875 498.241H258.676C247.195 498.241 237.856 488.901 237.856 477.421V318.369C237.856 310.915 241.874 303.991 248.345 300.293L352.444 240.806C355.584 239.012 359.157 238.062 362.775 238.062ZM362.775 217.242C355.647 217.242 348.518 219.07 342.118 222.73L238.018 282.217C225.043 289.629 217.036 303.428 217.036 318.369L217.036 477.421C217.036 500.418 235.678 519.061 258.676 519.061H466.875C489.873 519.061 508.515 500.418 508.515 477.421V318.369C508.515 303.424 500.508 289.629 487.533 282.217L383.433 222.73C377.033 219.074 369.904 217.242 362.775 217.242Z" fill="url(#paint5_linear_0_1)"/>
<path d="M325.3 400.383V363.069C325.3 359.334 327.303 355.887 330.546 354.029L357.612 338.564C360.814 336.736 364.741 336.736 367.943 338.564L395.009 354.029C398.253 355.882 400.256 359.33 400.256 363.069V400.383C400.256 406.133 395.596 410.793 389.846 410.793H335.714C329.963 410.793 325.304 406.133 325.304 400.383H325.3Z" fill="url(#paint6_linear_0_1)"/>
<defs>
<linearGradient id="paint0_linear_0_1" x1="362.77" y1="276.429" x2="362.77" y2="464.975" gradientUnits="userSpaceOnUse">
<stop offset="0" stop-color="#FF2CDE"/>
<stop offset="1" stop-color="#FF72E9"/>
</linearGradient>
<linearGradient id="paint1_linear_0_1" x1="362.755" y1="0.714827" x2="362.755" y2="735.786" gradientUnits="userSpaceOnUse">
<stop offset="0" stop-color="#FF2CDE"/>
<stop offset="1" stop-color="#FF72E9"/>
</linearGradient>
<linearGradient id="paint2_linear_0_1" x1="362.758" y1="54.8467" x2="362.758" y2="681.625" gradientUnits="userSpaceOnUse">
<stop offset="0" stop-color="#FF2CDE"/>
<stop offset="1" stop-color="#FF72E9"/>
</linearGradient>
<linearGradient id="paint3_linear_0_1" x1="362.761" y1="108.979" x2="362.761" y2="627.464" gradientUnits="userSpaceOnUse">
<stop offset="0" stop-color="#FF2CDE"/>
<stop offset="1" stop-color="#FF72E9"/>
</linearGradient>
<linearGradient id="paint4_linear_0_1" x1="362.764" y1="163.11" x2="362.764" y2="573.303" gradientUnits="userSpaceOnUse">
<stop offset="0" stop-color="#FF2CDE"/>
<stop offset="1" stop-color="#FF72E9"/>
</linearGradient>
<linearGradient id="paint5_linear_0_1" x1="362.767" y1="217.242" x2="362.767" y2="519.142" gradientUnits="userSpaceOnUse">
<stop offset="0" stop-color="#FF2CDE"/>
<stop offset="1" stop-color="#FF72E9"/>
</linearGradient>
<linearGradient id="paint6_linear_0_1" x1="362.776" y1="337.193" x2="362.776" y2="410.813" gradientUnits="userSpaceOnUse">
<stop offset="0" stop-color="#FF2CDE"/>
<stop offset="1" stop-color="#FF72E9"/>
</linearGradient>
</defs>
</svg>
