<svg xmlns="http://www.w3.org/2000/svg" fill="none" viewBox="0 0 382 388"><path fill="#47385C" d="M190.849 145.251c-1.878 0-3.756.483-5.443 1.446l-37.292 21.309a10.968 10.968 0 0 0-5.526 9.523v56.057c0 6.057 4.912 10.968 10.968 10.968h74.585c6.057 0 10.968-4.911 10.968-10.968v-56.057a10.97 10.97 0 0 0-5.525-9.523l-37.293-21.309a10.97 10.97 0 0 0-5.442-1.446Zm-33.125 88.337a4.17 4.17 0 0 1-4.168-4.168v-49.471c0-1.496.801-2.876 2.1-3.62L188.78 157.4a4.166 4.166 0 0 1 2.069-.548 4.16 4.16 0 0 1 2.068.548l33.125 18.929a4.17 4.17 0 0 1 2.099 3.62v49.471a4.17 4.17 0 0 1-4.168 4.168h-66.249Z"/><path fill="#47385C" d="M190.849 10.968c21.724 0 43.176 5.697 62.037 16.475l54.841 31.338c38.861 22.207 63.002 63.805 63.002 108.565v83.791c0 33.399-13.006 64.799-36.623 88.416-23.617 23.617-55.017 36.623-88.415 36.623H136.007c-33.398 0-64.798-13.006-88.415-36.623-23.617-23.617-36.624-55.017-36.624-88.416v-83.791c0-44.76 24.142-86.358 63.002-108.565l54.842-31.338a125.245 125.245 0 0 1 62.037-16.475Zm0-10.968c-23.63 0-46.962 6.197-67.479 17.92L68.528 49.26C26.258 73.413 0 118.66 0 167.346v83.791c0 36.33 14.147 70.483 39.835 96.173 25.688 25.688 59.843 39.835 96.172 39.835h109.684c36.329 0 70.482-14.147 96.172-39.835 25.688-25.688 39.835-59.843 39.835-96.173v-83.791c0-48.684-26.258-93.933-68.528-118.087L258.328 17.92A136.235 136.235 0 0 0 190.849 0Z"/><path fill="#47385C" d="M190.849 39.486a96.696 96.696 0 0 1 47.888 12.717l54.841 31.338c29.999 17.142 48.634 49.255 48.634 83.805v83.791c0 25.782-10.041 50.02-28.27 68.252-18.232 18.229-42.469 28.27-68.252 28.27H136.007c-25.782 0-50.02-10.041-68.251-28.27-18.232-18.23-28.27-42.47-28.27-68.252v-83.791c0-34.55 18.635-66.663 48.634-83.805l54.841-31.338a96.668 96.668 0 0 1 47.888-12.717Zm0-10.968a107.652 107.652 0 0 0-53.33 14.162L82.677 74.019c-33.407 19.089-54.16 54.85-54.16 93.327v83.791c0 28.711 11.182 55.704 31.484 76.006 20.302 20.303 47.295 31.484 76.006 31.484H245.69c28.711 0 55.704-11.181 76.007-31.484 20.302-20.302 31.483-47.295 31.483-76.006v-83.791c0-38.477-20.752-74.238-54.159-93.327l-54.842-31.34a107.655 107.655 0 0 0-53.33-14.161Z"/><path fill="#47385C" d="M190.849 68.004a68.113 68.113 0 0 1 33.739 8.959l54.841 31.338c21.136 12.076 34.265 34.702 34.265 59.045v83.791c0 18.164-7.074 35.242-19.918 48.086-12.844 12.844-29.922 19.918-48.085 19.918H136.007c-18.163 0-35.241-7.074-48.085-19.918-12.844-12.844-19.918-29.922-19.918-48.086v-83.791c0-24.343 13.129-46.966 34.265-59.045l54.841-31.338a68.113 68.113 0 0 1 33.739-8.96Zm0-10.969a79.097 79.097 0 0 0-39.181 10.405L96.826 98.779c-24.545 14.024-39.79 40.297-39.79 68.567v83.791c0 21.095 8.215 40.926 23.13 55.842 14.916 14.915 34.747 23.13 55.841 23.13h109.684c21.094 0 40.925-8.215 55.842-23.13 14.914-14.916 23.13-34.747 23.13-55.842v-83.791c0-28.268-15.246-54.541-39.791-68.567L230.03 67.44a79.097 79.097 0 0 0-39.181-10.405Z"/><path fill="#47385C" d="M190.849 96.521c6.86 0 13.634 1.8 19.589 5.204l54.842 31.338c12.271 7.014 19.894 20.149 19.894 34.283v83.791c0 10.548-4.106 20.463-11.565 27.921-7.458 7.459-17.373 11.565-27.921 11.565H136.005c-10.547 0-20.462-4.106-27.921-11.565-7.458-7.458-11.565-17.373-11.565-27.921v-83.791c0-14.134 7.623-27.272 19.897-34.283l54.841-31.338a39.537 39.537 0 0 1 19.592-5.204Zm0-10.968a50.543 50.543 0 0 0-25.032 6.647l-54.842 31.338c-15.68 8.962-25.422 25.748-25.422 43.808v83.791c0 13.478 5.247 26.147 14.779 35.676 9.529 9.529 22.2 14.779 35.675 14.779h109.684c13.477 0 26.146-5.248 35.675-14.779 9.529-9.529 14.779-22.2 14.779-35.676v-83.791c0-18.06-9.742-34.846-25.423-43.808L215.881 92.2a50.543 50.543 0 0 0-25.032-6.647Z"/><path fill="#47385C" d="M190.849 125.039c1.906 0 3.788.5 5.442 1.446l54.842 31.338a10.99 10.99 0 0 1 5.526 9.523v83.791c0 6.048-4.921 10.969-10.969 10.969H136.007c-6.048 0-10.968-4.921-10.968-10.969v-83.791a10.99 10.99 0 0 1 5.526-9.523l54.841-31.338a10.983 10.983 0 0 1 5.443-1.446Zm0-10.968a21.91 21.91 0 0 0-10.883 2.891l-54.842 31.339a21.934 21.934 0 0 0-11.053 19.045v83.791c0 12.116 9.821 21.937 21.936 21.937H245.69c12.116 0 21.937-9.821 21.937-21.937v-83.791a21.93 21.93 0 0 0-11.054-19.045l-54.841-31.339a21.933 21.933 0 0 0-10.883-2.891Z"/><path fill="#47385C" d="M171.106 210.552v-19.657a5.49 5.49 0 0 1 2.764-4.763l14.259-8.147a5.487 5.487 0 0 1 5.442 0l14.259 8.147a5.485 5.485 0 0 1 2.764 4.763v19.657a5.484 5.484 0 0 1-5.484 5.485h-28.518a5.484 5.484 0 0 1-5.484-5.485h-.002Z"/></svg>