<svg xmlns="http://www.w3.org/2000/svg" fill="none" viewBox="0 0 989 382"><path fill="#47385C" d="M968.983 181.119c43.177 43.177 74.487 97.136 90.557 156.044l46.71 171.287c33.1 121.373-1.59 252.033-90.55 340.995L849.157 1015.98c-66.38 66.38-154.64 102.94-248.519 102.94-93.879 0-182.139-36.56-248.519-102.94l-218-217.996c-66.38-66.381-102.94-154.641-102.94-248.52 0-93.879 36.56-182.138 102.94-248.519l166.539-166.539c88.961-88.961 219.621-123.658 340.994-90.557l171.287 46.713c58.908 16.067 112.867 47.38 156.044 90.557Zm21.8-21.8c-46.966-46.966-105.656-81.021-169.734-98.5L649.762 14.104c-132.02-36.005-274.139 1.736-370.904 98.501L112.319 279.145C40.113 351.351.35 447.349.346 549.464c0 102.111 39.767 198.114 111.973 270.32l218 217.996c72.205 72.21 168.204 111.97 270.319 111.98 102.111 0 198.114-39.77 270.319-111.98L1037.5 871.245c96.76-96.762 134.5-238.884 98.5-370.905l-46.72-171.286c-17.48-64.079-51.53-122.769-98.497-169.735Z"/><path fill="#47385C" d="M912.303 237.799c33.328 33.328 57.5 74.983 69.904 120.454l46.713 171.286c25.55 93.692-1.23 194.556-69.904 263.226L792.478 959.303c-51.243 51.247-119.373 79.457-191.84 79.467-72.467-.01-140.597-28.22-191.84-79.467L190.799 741.304c-51.243-51.243-79.461-119.372-79.465-191.84-.005-72.467 28.222-140.596 79.465-191.839l166.538-166.539c68.67-68.67 169.534-95.458 263.226-69.904l171.287 46.713c45.474 12.4 87.125 36.576 120.453 69.904Zm21.8-21.8c-37.116-37.117-83.502-64.039-134.144-77.848L628.673 91.438c-104.339-28.457-216.661 1.374-293.135 77.848L168.999 335.825c-57.064 57.063-88.49 132.936-88.49 213.639 0 80.704 31.426 156.576 88.49 213.64l217.999 217.999c57.064 57.067 132.936 88.487 213.64 88.487 80.703 0 156.576-31.42 213.64-88.487l166.538-166.538c76.474-76.475 106.304-188.797 77.844-293.136l-46.71-171.286c-13.807-50.641-40.73-97.027-77.847-134.144Z"/><path fill="#47385C" d="M855.623 294.479a191.453 191.453 0 0 1 49.251 84.863l46.713 171.286c18.006 66.011-.868 137.074-49.251 185.457L735.798 902.624c-36.101 36.1-84.105 55.982-135.16 55.982-51.056 0-99.059-19.882-135.16-55.982l-217.999-218c-36.101-36.101-55.983-84.104-55.983-135.16 0-51.055 19.882-99.059 55.983-135.159l166.538-166.539c48.383-48.383 119.442-67.253 185.457-49.25l171.286 46.713a191.436 191.436 0 0 1 84.863 49.25Zm21.8-21.8c-27.271-27.272-61.349-47.049-98.553-57.194l-171.287-46.713c-76.657-20.911-159.178 1.007-215.366 57.194L225.679 392.505c-41.926 41.925-65.012 97.668-65.016 156.959.004 59.292 23.09 115.034 65.016 156.96l217.999 217.999c41.926 41.926 97.669 65.012 156.96 65.017 59.292-.005 115.034-23.091 156.96-65.017l166.538-166.538c56.183-56.183 78.104-138.704 57.195-215.366l-46.713-171.287c-10.146-37.204-29.923-71.281-57.195-98.553Z"/><path fill="#47385C" d="M798.944 351.159a111.133 111.133 0 0 1 28.593 49.277l46.713 171.286c10.451 38.329-.506 79.587-28.597 107.679L679.114 845.939c-20.963 20.963-48.832 32.508-78.48 32.509-29.648-.001-57.517-11.546-78.48-32.509L304.155 627.94c-20.963-20.963-32.508-48.832-32.508-78.48 0-29.648 11.545-57.517 32.508-78.48l166.538-166.538c28.092-28.092 69.355-39.053 107.683-28.593l171.287 46.713a111.129 111.129 0 0 1 49.281 28.597Zm21.8-21.8a142.058 142.058 0 0 0-62.963-36.541l-171.286-46.713c-48.976-13.355-101.701.645-137.597 36.541L282.359 449.185c-26.788 26.787-41.537 62.395-41.533 100.279 0 37.88 14.75 73.497 41.533 100.28l218 218c26.788 26.787 62.396 41.537 100.28 41.533 37.879 0 73.496-14.75 100.279-41.533l166.539-166.539c35.896-35.896 49.896-88.621 36.541-137.597l-46.713-171.286a142.067 142.067 0 0 0-36.541-62.963Z"/><path fill="#47385C" d="M742.264 407.839a30.873 30.873 0 0 1 7.943 13.69l46.713 171.286c2.904 10.648-.139 22.106-7.943 29.91L622.438 789.264c-12.021 12.02-31.579 12.02-43.6 0l-217.999-218c-12.021-12.02-12.021-31.579 0-43.6l166.538-166.538c7.804-7.805 19.263-10.848 29.91-7.944l171.286 46.713a30.874 30.874 0 0 1 13.691 7.944Zm21.8-21.8a61.575 61.575 0 0 0-27.377-15.884l-171.286-46.713a61.656 61.656 0 0 0-59.824 15.884L339.039 505.864c-24.081 24.08-24.081 63.12 0 87.2l217.999 217.999c24.08 24.081 63.12 24.081 87.2 0l166.538-166.538a61.648 61.648 0 0 0 15.884-59.823l-46.713-171.287a61.638 61.638 0 0 0-15.883-27.376Z"/></svg>