<svg xmlns="http://www.w3.org/2000/svg" fill="none" viewBox="0 0 932 635"><path fill="#47385C" d="M557.339 292.989a30.838 30.838 0 0 0-15.539 3.007l-108.673 52.587a30.827 30.827 0 0 0-17.326 25.642l-10.776 157.196c-1.164 16.984 11.665 31.702 28.649 32.866l209.152 14.337c16.985 1.165 31.702-11.664 32.866-28.649l10.776-157.196a30.823 30.823 0 0 0-13.665-27.766l-100.48-66.924a30.835 30.835 0 0 0-14.984-5.1ZM447.47 534.337c-6.453-.443-11.329-6.036-10.886-12.489l9.51-138.73a11.72 11.72 0 0 1 6.582-9.746l96.527-46.714a11.69 11.69 0 0 1 5.906-1.14c2.006.137 3.97.785 5.696 1.935l89.249 59.449a11.714 11.714 0 0 1 5.191 10.554l-9.51 138.729c-.442 6.453-6.036 11.329-12.489 10.887L447.47 534.337Z"/><path fill="#47385C" d="M583.152-83.57c60.919 4.175 119.98 24.275 170.799 58.123l147.763 98.422c104.706 69.743 164.406 191.035 155.806 316.55l-16.11 234.97c-6.42 93.657-48.929 179.209-119.696 240.897-70.768 61.687-161.321 92.123-254.978 85.703L359.16 930.011c-93.656-6.42-179.209-48.929-240.897-119.696-61.687-70.767-92.123-161.32-85.703-254.977l16.107-234.97C57.271 194.853 132.965 82.842 246.208 28.04l159.813-77.338c54.962-26.597 116.213-38.449 177.131-34.273Zm2.109-30.758c-66.264-4.543-132.883 8.35-192.672 37.28L232.777.29C109.6 59.9 27.269 181.733 17.91 318.26L1.802 553.229C-5.18 655.105 27.925 753.597 95.021 830.576c67.096 76.972 160.156 123.209 262.031 130.192l307.576 21.085c101.875 6.983 200.368-26.122 277.346-93.218 76.976-67.097 123.206-160.156 130.196-262.032l16.1-234.969c9.36-136.521-55.57-268.456-169.463-344.316L771.043-51.105c-55.282-36.818-119.518-58.681-185.782-63.223Z"/><path fill="#47385C" d="M577.671-3.6c47.022 3.223 92.614 18.74 131.843 44.865l147.763 98.423c80.827 53.834 126.912 147.469 120.27 244.355l-16.107 234.97c-4.956 72.299-37.771 138.337-92.395 185.958-54.63 47.614-124.528 71.111-196.827 66.155l-307.576-21.085c-72.298-4.956-138.337-37.771-185.958-92.395-47.621-54.623-71.11-124.527-66.154-196.826l16.107-234.97c6.642-96.886 65.072-183.356 152.489-225.658l159.812-77.338C483.365 2.32 530.648-6.824 577.671-3.6Zm2.108-30.758c-52.368-3.59-105.025 6.595-152.272 29.462L267.695 72.442c-97.351 47.109-162.419 143.402-169.816 251.3L81.772 558.711c-5.519 80.511 20.646 158.355 73.676 219.19 53.03 60.836 126.575 97.379 207.086 102.898l307.576 21.084c80.511 5.519 158.355-20.646 219.19-73.676 60.835-53.029 97.378-126.575 102.897-207.086l16.103-234.969c7.4-107.898-43.918-212.169-133.93-272.122L726.606 15.607c-43.685-29.1-94.459-46.376-146.827-49.965Z"/><path fill="#47385C" d="M572.189 76.369a191.449 191.449 0 0 1 92.888 31.608L812.841 206.4c56.949 37.927 89.416 103.898 84.737 172.161l-16.108 234.97c-3.491 50.935-26.613 97.464-65.099 131.012-38.486 33.549-87.736 50.104-138.67 46.613l-307.576-21.085c-50.935-3.491-97.464-26.613-131.013-65.099-33.548-38.486-50.104-87.736-46.612-138.67l16.107-234.97c4.68-68.263 45.845-129.18 107.437-158.987l159.812-77.339a191.449 191.449 0 0 1 96.333-18.637Zm2.108-30.758c-38.477-2.637-77.161 4.847-111.872 21.645l-159.812 77.339c-71.525 34.608-119.329 105.354-124.763 184.629l-16.108 234.969c-4.055 59.153 15.171 116.342 54.128 161.04 38.963 44.691 92.993 71.541 152.146 75.596l307.576 21.084c59.153 4.055 116.342-15.17 161.04-54.127 44.691-38.963 71.541-92.994 75.596-152.147l16.107-234.969c5.434-79.269-32.268-155.876-98.401-199.927L682.17 82.32c-32.095-21.378-69.395-34.071-107.873-36.709Z"/><path fill="#47385C" d="M566.707 156.339a111.123 111.123 0 0 1 53.933 18.357l147.764 98.423c33.063 22.025 51.915 60.326 49.198 99.96l-16.108 234.97c-2.027 29.576-15.449 56.592-37.798 76.073-22.349 19.481-50.943 29.091-80.519 27.064l-307.576-21.085c-29.577-2.027-56.592-15.449-76.074-37.798-19.481-22.349-29.091-50.943-27.063-80.52l16.107-234.969c2.717-39.635 26.619-75.011 62.384-92.312l159.813-77.338a111.134 111.134 0 0 1 55.939-10.825Zm2.108-30.758a142.069 142.069 0 0 0-71.472 13.827l-159.812 77.339c-45.694 22.114-76.24 67.313-79.712 117.959l-16.107 234.969c-2.591 37.795 9.688 74.329 34.585 102.883 24.89 28.554 59.412 45.711 97.201 48.301l307.576 21.085c37.795 2.59 74.329-9.689 102.883-34.585 28.554-24.891 45.711-59.413 48.301-97.202l16.107-234.969c3.472-50.646-20.62-99.59-62.868-127.733l-147.764-98.423a142.068 142.068 0 0 0-68.918-23.451Z"/><path fill="#47385C" d="M561.225 236.308a30.88 30.88 0 0 1 14.984 5.101l147.763 98.422c9.185 6.118 14.42 16.755 13.666 27.766l-16.108 234.97c-1.162 16.96-15.906 29.812-32.866 28.649l-307.576-21.084c-16.96-1.163-29.812-15.907-28.649-32.866l16.107-234.97c.755-11.011 7.393-20.834 17.326-25.641l159.813-77.339a30.887 30.887 0 0 1 15.54-3.008Zm2.108-30.757a61.573 61.573 0 0 0-31.073 6.016l-159.813 77.338a61.657 61.657 0 0 0-34.658 51.283l-16.108 234.969c-2.329 33.975 23.324 63.403 57.299 65.732l307.576 21.085c33.975 2.329 63.403-23.324 65.732-57.299l16.107-234.969a61.649 61.649 0 0 0-27.336-55.533l-147.764-98.422a61.635 61.635 0 0 0-29.962-10.2Z"/></svg>