<?xml version="1.0" encoding="UTF-8"?><svg id="Layer_1" xmlns="http://www.w3.org/2000/svg" viewBox="0 0 120 92.14"><defs><style>.cls-1{fill:#47385c;stroke-width:0px;}</style></defs><path class="cls-1" d="m32.14,83.57h16.07v-12.86h23.57v12.86h16.07c2.37,0,4.29,1.92,4.29,4.29s-1.92,4.29-4.29,4.29h-55.71c-2.37,0-4.29-1.92-4.29-4.29s1.92-4.29,4.29-4.29Z"/><path class="cls-1" d="m16.16,5.86c1.17-3.5,4.44-5.86,8.13-5.86h32.49v27.86H8.83l7.33-22Z"/><path class="cls-1" d="m63.21,0h32.49c3.69,0,6.96,2.36,8.13,5.86l7.33,22h-47.96V0Z"/><path class="cls-1" d="m63.21,34.29h50.1l6.24,18.72c1.85,5.55-2.28,11.28-8.13,11.28h-48.21v-30Z"/><path class="cls-1" d="m.45,53l6.24-18.72h50.1v30H8.58c-5.85,0-9.98-5.73-8.13-11.28Z"/></svg>