<svg width="243" height="88" viewBox="0 0 243 88" fill="none" xmlns="http://www.w3.org/2000/svg">
<g clip-path="url(#clip0_1_946)">
<mask id="mask0_1_946" style="mask-type:luminance" maskUnits="userSpaceOnUse" x="0" y="0" width="88" height="88">
<path d="M7.45002e-08 43.9293C-0.000505836 52.6183 2.57562 61.1123 7.40261 68.3372C12.2296 75.5621 19.0906 81.1934 27.1181 84.5188C35.1455 87.8443 43.9788 88.7147 52.501 87.0199C61.0231 85.325 68.8512 81.1411 74.9954 74.9973C81.1397 68.8534 85.324 61.0255 87.0194 52.5035C88.7147 43.9814 87.8448 35.1481 84.5198 27.1204C81.1948 19.0928 75.5639 12.2314 68.3393 7.40403C61.1147 2.57662 52.6209 1.47281e-08 43.9318 0C32.2808 -1.97488e-08 21.107 4.62817 12.8682 12.8664C4.6295 21.1047 0.000678445 32.2783 7.45002e-08 43.9293Z" fill="white"/>
</mask>
<g mask="url(#mask0_1_946)">
<path d="M87.8611 0H0V87.8586H87.8611V0Z" fill="url(#paint0_radial_1_946)"/>
</g>
<path d="M39.4172 65.9272C39.4138 67.1077 38.9432 68.2388 38.1082 69.0733C37.2732 69.9078 36.1418 70.3778 34.9613 70.3805H34.726C33.5453 70.3778 32.4136 69.9079 31.5782 69.0734C30.7428 68.239 30.2716 67.1079 30.2676 65.9272V23.2998C30.2716 22.1186 30.7426 20.987 31.5779 20.1517C32.4131 19.3165 33.5448 18.8455 34.726 18.8414H34.9613C36.1423 18.8455 37.2737 19.3166 38.1085 20.1519C38.9433 20.9872 39.4138 22.1189 39.4172 23.2998V65.9272Z" fill="white"/>
<path d="M64.0931 49.7792V65.9272C64.0898 67.1077 63.6191 68.2388 62.7842 69.0733C61.9492 69.9078 60.8178 70.3778 59.6373 70.3805H59.402C58.2212 70.3771 57.0896 69.9071 56.254 69.0729C55.4184 68.2387 54.9464 67.108 54.941 65.9272V49.7869C54.941 41.7142 51.1809 39.9799 47.2417 39.9799C42.6861 39.9799 41.8702 42.3562 41.2946 42.3562C41.0388 42.3562 40.9058 42.2462 40.9058 41.7935V34.3551C40.9058 34.3551 43.6274 31.3956 49.9889 31.3956C54.8131 31.3956 59.4838 33.0583 61.9496 37.8492C63.4102 40.7038 64.019 43.873 64.0931 48.8481V49.7997" fill="white"/>
<path fill-rule="evenodd" clip-rule="evenodd" d="M25.3231 37.0435C25.0136 37.0435 24.7169 37.0435 24.4278 37.0435C24.3795 37.0308 24.3381 36.9995 24.3127 36.9565C24.0518 36.5849 23.9488 36.125 24.0263 35.6775C24.0524 35.4111 24.1368 35.1537 24.2733 34.9234C24.4099 34.6931 24.5954 34.4956 24.8166 34.3449C25.2619 34.0294 25.8115 33.8975 26.3514 33.9765C26.7875 34.0036 27.2031 34.1714 27.5357 34.4549C27.7288 34.6199 27.8874 34.8215 28.0024 35.048C28.1174 35.2745 28.1866 35.5214 28.2059 35.7747C28.2573 36.1546 28.1779 36.5407 27.9808 36.8695C27.9541 36.93 27.9085 36.9803 27.8509 37.0126C27.7932 37.0449 27.7265 37.0575 27.661 37.0486C27.4538 37.0332 27.239 37.0486 27.0343 37.0486C26.9952 37.0523 26.9558 37.0523 26.9167 37.0486C27.0415 36.9364 27.142 36.7998 27.212 36.6473C27.282 36.4947 27.32 36.3294 27.3236 36.1616C27.3272 35.9938 27.2963 35.8271 27.2329 35.6717C27.1695 35.5162 27.075 35.3755 26.955 35.2581C26.7239 35.0382 26.4171 34.9155 26.0981 34.9155C25.7791 34.9155 25.4724 35.0382 25.2413 35.2581C25.1214 35.3769 25.0277 35.5195 24.9662 35.6767C24.9047 35.8339 24.8768 36.0022 24.8843 36.1709C24.8917 36.3395 24.9344 36.5047 25.0095 36.6559C25.0847 36.807 25.1906 36.9408 25.3205 37.0486" fill="white"/>
<path fill-rule="evenodd" clip-rule="evenodd" d="M25.4255 37.2506H27.6816C27.7998 37.2444 27.9164 37.2808 28.0102 37.353C28.104 37.4252 28.1689 37.5286 28.1931 37.6445C28.2175 37.7646 28.195 37.8895 28.1303 37.9936C28.0657 38.0977 27.9637 38.1732 27.8453 38.2047C27.7722 38.2212 27.6976 38.2306 27.6227 38.2328H23.1899C23.0839 38.2364 22.9787 38.2145 22.883 38.1689C22.783 38.1249 22.7021 38.0465 22.6552 37.9479C22.6082 37.8493 22.5983 37.7371 22.6272 37.6317C22.6571 37.5201 22.724 37.422 22.8169 37.3532C22.9098 37.2845 23.0232 37.2492 23.1387 37.2532H25.4409L25.4255 37.2506Z" fill="white"/>
<path fill-rule="evenodd" clip-rule="evenodd" d="M25.4178 67.0092H27.7404C27.8439 67.0069 27.9453 67.0391 28.0286 67.1007C28.112 67.1622 28.1725 67.2497 28.2008 67.3493C28.2321 67.4484 28.2286 67.5551 28.1909 67.6519C28.1533 67.7487 28.0836 67.8296 27.9936 67.8814C27.8919 67.9382 27.7775 67.9681 27.6611 67.9684C26.1621 67.9684 24.6666 67.9684 23.1745 67.9684C23.0953 67.9634 23.0167 67.9523 22.9392 67.9351C22.8326 67.9009 22.7414 67.8303 22.6818 67.7355C22.6221 67.6408 22.5978 67.528 22.6131 67.4171C22.6284 67.3062 22.6823 67.2043 22.7653 67.1292C22.8483 67.0541 22.9552 67.0107 23.0671 67.0066L25.4178 67.0092Z" fill="white"/>
<path fill-rule="evenodd" clip-rule="evenodd" d="M25.1313 66.7815H25.0059C24.8064 66.7815 24.612 66.7815 24.415 66.7815C24.3716 66.7854 24.3281 66.7759 24.2902 66.7545C24.2523 66.733 24.2218 66.7005 24.2027 66.6613C24.0833 66.4692 24.0138 66.2502 24.0007 66.0244C23.9594 65.7179 23.9981 65.4059 24.1132 65.1189C24.2051 64.9115 24.3494 64.7317 24.532 64.5971C24.7145 64.4625 24.929 64.3779 25.1543 64.3515C25.4085 64.3135 25.6647 64.2904 25.9216 64.2825C26.5151 64.2825 27.1136 64.2825 27.7122 64.2825C27.8124 64.2833 27.9103 64.3135 27.9935 64.3694C28.0767 64.4254 28.1417 64.5045 28.1803 64.5971C28.2161 64.6918 28.2207 64.7954 28.1936 64.8929C28.1665 64.9905 28.1089 65.0768 28.0294 65.1394C27.9433 65.2028 27.8395 65.2377 27.7326 65.2391C27.1136 65.2519 26.4997 65.2391 25.8807 65.2519C25.7321 65.2524 25.5843 65.2722 25.4408 65.3107C24.9727 65.4386 24.8397 65.784 24.8831 66.2341C24.8943 66.4071 24.9638 66.5712 25.0801 66.6997C25.0801 66.7176 25.098 66.738 25.121 66.7739" fill="white"/>
<path fill-rule="evenodd" clip-rule="evenodd" d="M25.1288 47.7891H24.9446C24.8101 47.7789 24.675 47.7789 24.5405 47.7891C24.318 47.8301 24.208 47.7124 24.121 47.5206C23.969 47.2139 23.9371 46.8614 24.0318 46.5324C24.1265 46.2034 24.3408 45.9218 24.6326 45.7428C24.6625 45.7296 24.6888 45.7094 24.7093 45.684C24.6658 45.6482 24.6326 45.6277 24.5993 45.5996C24.2809 45.3662 24.0647 45.019 23.9956 44.6303C23.9265 44.2416 24.0099 43.8412 24.2284 43.5123C24.3337 43.348 24.476 43.2106 24.6439 43.1111C24.8118 43.0116 25.0006 42.9528 25.1953 42.9394C25.6788 42.9087 26.175 42.9061 26.6712 42.8933C27.0217 42.8933 27.3721 42.8933 27.7225 42.8933C27.8346 42.8927 27.9434 42.9308 28.0305 43.0012C28.1177 43.0716 28.1779 43.1699 28.2008 43.2796C28.2186 43.381 28.2033 43.4854 28.1573 43.5775C28.1112 43.6696 28.0368 43.7445 27.9451 43.7911C27.87 43.8266 27.7875 43.8433 27.7046 43.8397C27.1547 43.8525 26.6098 43.8397 26.0573 43.8525C25.8794 43.854 25.7016 43.8669 25.5253 43.8909C25.3589 43.8988 25.2012 43.968 25.0827 44.0851C24.9642 44.2022 24.8932 44.3589 24.8833 44.5253C24.8679 45.0164 25.0674 45.2926 25.492 45.3873C25.6402 45.4234 25.7923 45.4414 25.9448 45.441C26.5382 45.441 27.1291 45.441 27.7353 45.441C27.8289 45.441 27.9205 45.4686 27.9985 45.5204C28.0765 45.5722 28.1374 45.6459 28.1738 45.7322C28.2101 45.8185 28.2201 45.9136 28.2026 46.0056C28.1852 46.0975 28.1409 46.1823 28.0755 46.2493C28.0225 46.3035 27.9587 46.3459 27.8881 46.3737C27.8176 46.4014 27.742 46.414 27.6662 46.4104C27.0344 46.4104 26.4001 46.4104 25.7683 46.4104C25.5764 46.4054 25.3867 46.4513 25.2183 46.5434C25.1202 46.5992 25.0384 46.6799 24.9814 46.7774C24.9244 46.8748 24.894 46.9856 24.8935 47.0985C24.8804 47.2101 24.8912 47.3233 24.9251 47.4305C24.9591 47.5376 25.0154 47.6363 25.0904 47.7201C25.0904 47.7201 25.0904 47.7508 25.1211 47.7789" fill="white"/>
<path fill-rule="evenodd" clip-rule="evenodd" d="M26.1135 48.9555H24.5251C24.4586 48.9633 24.3913 48.9574 24.3273 48.9381C24.2633 48.9188 24.2039 48.8866 24.1528 48.8435C24.1017 48.8003 24.0601 48.7471 24.0304 48.6872C24.0007 48.6273 23.9836 48.5619 23.9802 48.4951C23.9801 48.4255 23.9942 48.3566 24.0217 48.2926C24.0491 48.2286 24.0893 48.1709 24.1399 48.123C24.1904 48.0751 24.2502 48.0381 24.3155 48.0141C24.3809 47.9901 24.4504 47.9797 24.5199 47.9835H27.6764C27.7462 47.9777 27.8165 47.9867 27.8826 48.01C27.9487 48.0333 28.0091 48.0704 28.0598 48.1187C28.1106 48.167 28.1505 48.2256 28.177 48.2904C28.2035 48.3553 28.216 48.4251 28.2135 48.4951C28.2115 48.6145 28.1627 48.7284 28.0775 48.8121C27.9923 48.8958 27.8777 48.9428 27.7582 48.9427L26.1135 48.9555Z" fill="white"/>
<path fill-rule="evenodd" clip-rule="evenodd" d="M25.1364 58.4249H24.3332C24.3025 58.4249 24.2539 58.3814 24.2309 58.3482C24.1215 58.1933 24.0455 58.0173 24.0077 57.8315C23.97 57.6457 23.9714 57.454 24.0119 57.2687C24.0523 57.0834 24.1308 56.9086 24.2425 56.7554C24.3542 56.6021 24.4966 56.4738 24.6606 56.3786C24.6804 56.3655 24.6992 56.351 24.7169 56.3351C24.6811 56.3019 24.6427 56.2737 24.612 56.2481C24.2918 56.015 24.0741 55.667 24.0045 55.2771C23.9349 54.8871 24.0188 54.4853 24.2386 54.1558C24.3468 53.9943 24.4898 53.859 24.6571 53.7598C24.8244 53.6607 25.0118 53.6002 25.2054 53.5828C25.4868 53.5547 25.7733 53.5393 26.0444 53.5342C26.6046 53.5342 27.1648 53.5342 27.7224 53.5342C27.8365 53.5304 27.9482 53.567 28.0379 53.6376C28.1276 53.7082 28.1893 53.8083 28.2123 53.9201C28.2353 54.0319 28.218 54.1482 28.1634 54.2484C28.1089 54.3487 28.0206 54.4264 27.9143 54.4679C27.8557 54.4906 27.7928 54.5002 27.7301 54.496C27.1648 54.496 26.5969 54.496 26.024 54.496C25.852 54.4929 25.6803 54.5101 25.5124 54.5471C25.3414 54.5628 25.1832 54.6445 25.0714 54.7749C24.9597 54.9052 24.9032 55.0741 24.9138 55.2454C24.892 55.4326 24.9442 55.621 25.0594 55.7701C25.1747 55.9192 25.3437 56.0174 25.5303 56.0435C25.6695 56.0697 25.8107 56.0842 25.9524 56.087C26.5611 56.087 27.1622 56.087 27.7633 56.087C27.8486 56.0859 27.9323 56.1095 28.0044 56.1549C28.0766 56.2003 28.1341 56.2655 28.17 56.3428C28.213 56.4176 28.2344 56.503 28.2317 56.5892C28.2289 56.6755 28.2023 56.7593 28.1547 56.8313C28.1041 56.9068 28.0343 56.9675 27.9525 57.007C27.8706 57.0466 27.7798 57.0637 27.6892 57.0564C27.065 57.0564 26.4384 57.0564 25.8142 57.0564C25.6846 57.0589 25.5558 57.0769 25.4305 57.1102C25.3196 57.1418 25.2177 57.1989 25.1328 57.277C25.0479 57.355 24.9825 57.4519 24.9417 57.5598C24.9009 57.6676 24.886 57.7835 24.898 57.8982C24.9101 58.0129 24.9488 58.1232 25.011 58.2203C25.0483 58.2929 25.0928 58.3614 25.1441 58.4249" fill="white"/>
<path fill-rule="evenodd" clip-rule="evenodd" d="M26.1084 59.5938H24.5353C24.2002 59.5938 23.993 59.4173 23.9879 59.1359C23.9877 59.0654 24.0021 58.9956 24.0302 58.9309C24.0583 58.8662 24.0994 58.808 24.1511 58.7599C24.2027 58.7119 24.2637 58.675 24.3303 58.6517C24.3969 58.6284 24.4675 58.6191 24.5379 58.6244C24.8857 58.6244 25.2413 58.6244 25.5917 58.6244C26.2593 58.6244 26.9321 58.6244 27.6022 58.6244C27.6759 58.6269 27.7493 58.6337 27.8222 58.6448C27.9406 58.6649 28.0471 58.7285 28.121 58.8232C28.1948 58.9179 28.2306 59.0367 28.2212 59.1564C28.2127 59.2754 28.1589 59.3865 28.0709 59.4669C27.9828 59.5474 27.8673 59.591 27.748 59.5887L26.1084 59.5938Z" fill="white"/>
<path fill-rule="evenodd" clip-rule="evenodd" d="M24.855 22.3662V23.883C24.8617 23.9348 24.8571 23.9873 24.8415 24.0371C24.8259 24.0869 24.7997 24.1327 24.7647 24.1714C24.7297 24.21 24.6867 24.2406 24.6387 24.2611C24.5907 24.2815 24.5388 24.2913 24.4867 24.2898C24.4334 24.2907 24.3805 24.2804 24.3314 24.2595C24.2824 24.2386 24.2383 24.2076 24.2021 24.1684C24.1659 24.1293 24.1383 24.083 24.1213 24.0325C24.1042 23.982 24.098 23.9284 24.103 23.8754V21.6602C24.0984 21.57 24.1201 21.4803 24.1655 21.4022C24.2109 21.3241 24.2781 21.2609 24.3588 21.2203C24.434 21.1824 24.5183 21.1667 24.6021 21.1748C24.6858 21.183 24.7656 21.2147 24.832 21.2663C25.9319 22.0183 27.042 22.7806 28.1573 23.5352C28.1959 23.5764 28.2216 23.6279 28.2315 23.6835C28.2353 23.7466 28.2353 23.8098 28.2315 23.8728C28.2393 23.9517 28.2222 24.0311 28.1828 24.0998C28.1434 24.1686 28.0835 24.2234 28.0115 24.2565C27.9426 24.2936 27.8646 24.3101 27.7866 24.3042C27.7087 24.2983 27.634 24.2702 27.5715 24.2233C27.3413 24.0672 27.1137 23.9035 26.8835 23.7475L24.9753 22.443C24.9371 22.4167 24.8969 22.3936 24.855 22.3739" fill="white"/>
<path fill-rule="evenodd" clip-rule="evenodd" d="M28.2085 23.3178C27.9527 23.1464 27.7302 22.9878 27.5051 22.8215C27.4914 22.8094 27.4807 22.7944 27.4736 22.7775C27.4665 22.7607 27.4633 22.7426 27.4641 22.7243C27.4641 22.3483 27.4641 21.9697 27.4641 21.5937C27.4594 21.5097 27.4817 21.4264 27.5277 21.356C27.5737 21.2856 27.6411 21.2317 27.7199 21.2024C27.7919 21.1755 27.8706 21.1722 27.9446 21.1929C28.0186 21.2136 28.0841 21.2572 28.1317 21.3175C28.1781 21.3772 28.2057 21.4493 28.211 21.5247C28.211 22.1002 28.211 22.6706 28.211 23.2513C28.211 23.264 28.211 23.282 28.1982 23.3178" fill="white"/>
<path fill-rule="evenodd" clip-rule="evenodd" d="M26.1135 29.6051C25.5841 29.6051 25.0495 29.6051 24.5097 29.6051C24.4456 29.61 24.3811 29.6018 24.3202 29.581C24.2593 29.5602 24.2033 29.5274 24.1555 29.4843C24.1076 29.4413 24.069 29.389 24.042 29.3306C24.015 29.2722 24.0001 29.209 23.9982 29.1447C23.9981 29.0759 24.0119 29.0079 24.0388 28.9447C24.0656 28.8814 24.1049 28.8242 24.1543 28.7764C24.2037 28.7287 24.2622 28.6914 24.3264 28.6668C24.3905 28.6421 24.459 28.6307 24.5277 28.6331H27.6918C27.815 28.6215 27.938 28.6566 28.0365 28.7315C28.1351 28.8063 28.2019 28.9154 28.2238 29.0372C28.2369 29.104 28.2352 29.1729 28.2189 29.239C28.2026 29.3051 28.172 29.3668 28.1294 29.4199C28.0868 29.473 28.0331 29.5162 27.9721 29.5464C27.9111 29.5766 27.8442 29.5931 27.7762 29.5949C27.2288 29.5949 26.6712 29.5949 26.1238 29.5949L26.1135 29.6051Z" fill="white"/>
<path fill-rule="evenodd" clip-rule="evenodd" d="M23.2026 29.5872C23.1404 29.589 23.0786 29.578 23.0208 29.555C22.963 29.5319 22.9106 29.4972 22.8667 29.4531C22.8229 29.409 22.7885 29.3564 22.7658 29.2985C22.743 29.2406 22.7324 29.1787 22.7345 29.1165C22.7318 28.9894 22.7795 28.8664 22.8672 28.7744C22.9549 28.6823 23.0755 28.6288 23.2026 28.6254C23.2687 28.6257 23.334 28.6393 23.3946 28.6654C23.4553 28.6915 23.51 28.7296 23.5557 28.7773C23.6013 28.8251 23.6368 28.8816 23.6601 28.9434C23.6833 29.0052 23.6939 29.071 23.6912 29.137C23.6913 29.1999 23.6785 29.2622 23.6536 29.32C23.6288 29.3777 23.5923 29.4298 23.5465 29.4729C23.5007 29.5161 23.4466 29.5494 23.3875 29.5708C23.3283 29.5922 23.2654 29.6013 23.2026 29.5974" fill="white"/>
<path d="M105.685 65.3593L103.06 54.3604H105.332L106.989 61.9138L109 54.3604H111.639L113.568 62.034L115.256 54.3604H117.492L114.821 65.3593H112.465L110.276 57.1382L108.091 65.3593H105.685Z" fill="#807C79"/>
<path d="M119.546 65.3593V54.3604H127.7V56.2199H121.756V58.6576H127.276V60.5095H121.756V63.5048H127.895V65.3567L119.546 65.3593Z" fill="#807C79"/>
<path d="M130.721 54.3629H135.118C135.769 54.3494 136.42 54.3853 137.065 54.4704C137.475 54.5372 137.866 54.6925 138.211 54.9257C138.558 55.1633 138.847 55.4775 139.055 55.844C139.282 56.2317 139.399 56.6737 139.395 57.1229C139.396 57.6275 139.25 58.1214 138.975 58.5446C138.7 58.9679 138.309 59.3022 137.847 59.5069C138.458 59.6622 139.001 60.0124 139.395 60.5044C139.755 60.9818 139.945 61.5665 139.932 62.1645C139.931 62.6709 139.812 63.17 139.584 63.6225C139.368 64.0748 139.041 64.4648 138.633 64.7557C138.188 65.0491 137.676 65.2251 137.144 65.2672C136.774 65.3082 135.881 65.3337 134.466 65.344H130.721V54.3629ZM132.941 56.1918V58.7344H134.397C135.261 58.7344 135.801 58.7344 136.011 58.6986C136.346 58.6734 136.662 58.5344 136.906 58.3047C137.016 58.1912 137.102 58.0564 137.158 57.9086C137.215 57.7609 137.24 57.6032 137.234 57.4452C137.247 57.1435 137.146 56.8479 136.952 56.6164C136.731 56.3883 136.433 56.2506 136.116 56.2302C135.896 56.2046 135.261 56.1918 134.218 56.1918H132.941ZM132.941 60.5658V63.5074H134.988C135.5 63.5246 136.014 63.5015 136.522 63.4383C136.833 63.3887 137.117 63.2344 137.328 63.0009C137.546 62.7392 137.658 62.4049 137.64 62.0648C137.65 61.7668 137.566 61.4734 137.4 61.2258C137.23 60.9849 136.987 60.8055 136.707 60.7142C136.405 60.6119 135.747 60.5582 134.737 60.5582L132.941 60.5658Z" fill="#807C79"/>
<path d="M147.335 61.7809L149.494 61.5711C149.565 62.1791 149.844 62.7439 150.284 63.1698C150.741 63.529 151.312 63.7107 151.893 63.6814C152.609 63.6814 153.148 63.5305 153.509 63.2286C153.675 63.1051 153.811 62.9452 153.905 62.7612C154 62.5772 154.051 62.3739 154.054 62.1671C154.061 61.9248 153.979 61.6884 153.824 61.5021C153.604 61.2771 153.329 61.1132 153.026 61.0263C152.77 60.9342 152.174 60.7705 151.248 60.5454C150.055 60.2521 149.22 59.8897 148.744 59.4583C148.421 59.1872 148.162 58.848 147.985 58.4651C147.808 58.0822 147.718 57.6649 147.721 57.2432C147.72 56.6849 147.886 56.1391 148.197 55.6752C148.53 55.1723 149.01 54.7832 149.57 54.5599C150.258 54.2871 150.994 54.1566 151.734 54.1762C153.114 54.1762 154.152 54.4789 154.85 55.0843C155.196 55.3863 155.473 55.759 155.663 56.1773C155.853 56.5957 155.951 57.0498 155.95 57.5092L153.729 57.6064C153.685 57.1377 153.467 56.7027 153.118 56.3863C152.704 56.1094 152.208 55.9789 151.711 56.0154C151.177 55.985 150.648 56.1237 150.197 56.4118C150.086 56.4873 149.995 56.5892 149.934 56.7085C149.872 56.8278 149.841 56.9606 149.844 57.0948C149.844 57.2239 149.874 57.3513 149.931 57.4671C149.988 57.5829 150.071 57.6839 150.174 57.7624C150.454 57.9977 151.136 58.2424 152.22 58.4965C153.048 58.6652 153.852 58.9314 154.617 59.2895C155.117 59.5441 155.537 59.9307 155.832 60.4073C156.135 60.9482 156.286 61.5603 156.272 62.1799C156.257 62.7995 156.076 63.4037 155.748 63.9295C155.393 64.4833 154.873 64.9119 154.261 65.1547C153.498 65.4447 152.686 65.5811 151.87 65.5563C150.478 65.5563 149.41 65.2349 148.665 64.592C147.92 63.9491 147.476 63.0121 147.335 61.7809Z" fill="#807C79"/>
<path d="M158.623 59.9263C158.597 58.9632 158.772 58.0052 159.134 57.1127C159.384 56.5532 159.73 56.0423 160.157 55.6035C160.559 55.1802 161.043 54.8433 161.58 54.6136C162.333 54.3113 163.139 54.1634 163.951 54.1788C165.571 54.1788 166.867 54.6818 167.839 55.6879C168.811 56.694 169.298 58.0915 169.299 59.8803C169.299 61.6555 168.817 63.0444 167.852 64.0471C166.886 65.0498 165.596 65.5512 163.982 65.5512C162.344 65.5512 161.044 65.0524 160.081 64.0548C159.117 63.0572 158.631 61.6811 158.623 59.9263ZM160.925 59.8522C160.925 61.0987 161.212 62.0426 161.787 62.6838C162.059 62.9959 162.396 63.2441 162.775 63.4108C163.154 63.5775 163.565 63.6585 163.979 63.6481C164.39 63.66 164.799 63.5804 165.175 63.4149C165.552 63.2495 165.887 63.0023 166.156 62.6914C166.724 62.0537 167.008 61.0979 167.01 59.824C167.012 58.5502 166.735 57.6123 166.179 57.0103C165.893 56.7145 165.55 56.4792 165.171 56.3185C164.792 56.1578 164.384 56.075 163.973 56.075C163.561 56.075 163.153 56.1578 162.774 56.3185C162.395 56.4792 162.053 56.7145 161.766 57.0103C161.197 57.6413 160.912 58.5886 160.912 59.8522H160.925Z" fill="#807C79"/>
<path d="M172.006 65.3593V54.4525H174.226V63.5074H179.746V65.3593H172.006Z" fill="#807C79"/>
<path d="M182.237 54.3629H184.457V60.3177C184.439 60.9319 184.466 61.5467 184.539 62.1568C184.625 62.5885 184.866 62.9737 185.217 63.2388C185.648 63.5338 186.164 63.6777 186.685 63.6481C187.19 63.6846 187.693 63.5484 188.11 63.2618C188.415 63.0288 188.621 62.6903 188.688 62.3128C188.767 61.6937 188.8 61.0696 188.785 60.4456V54.3629H191.006V60.1386C191.034 61.0751 190.973 62.012 190.824 62.937C190.723 63.4451 190.495 63.9194 190.162 64.3157C189.808 64.7134 189.364 65.0204 188.867 65.2109C188.19 65.457 187.472 65.5708 186.752 65.546C185.7 65.546 184.903 65.425 184.363 65.1828C183.868 64.9726 183.43 64.6483 183.084 64.2364C182.787 63.8827 182.574 63.4665 182.46 63.0188C182.292 62.0986 182.22 61.1633 182.245 60.2282L182.237 54.3629Z" fill="#807C79"/>
<path d="M196.728 65.3593V56.2225H193.464V54.3629H202.204V56.2225H198.948V65.3593H196.728Z" fill="#807C79"/>
<path d="M204.491 65.3593V54.3604H206.711V65.3593H204.491Z" fill="#807C79"/>
<path d="M209.3 59.9263C209.274 58.9632 209.449 58.0052 209.811 57.1127C210.06 56.5528 210.406 56.0418 210.834 55.6035C211.235 55.1802 211.718 54.8434 212.254 54.6136C213.007 54.3113 213.814 54.1634 214.625 54.1788C216.247 54.1788 217.544 54.6818 218.516 55.6879C219.488 56.694 219.974 58.0915 219.974 59.8803C219.974 61.6555 219.491 63.0444 218.526 64.0471C217.561 65.0498 216.271 65.5512 214.656 65.5512C213.019 65.5512 211.719 65.0524 210.755 64.0548C209.792 63.0572 209.307 61.6811 209.3 59.9263ZM211.586 59.8522C211.586 61.0987 211.874 62.0426 212.448 62.6838C212.726 62.9865 213.064 63.2282 213.44 63.3935C213.817 63.5589 214.223 63.6443 214.634 63.6443C215.045 63.6443 215.452 63.5589 215.828 63.3935C216.204 63.2282 216.542 62.9865 216.82 62.6838C217.388 62.046 217.672 61.0902 217.672 59.8163C217.672 58.5425 217.395 57.6046 216.84 57.0027C216.565 56.6946 216.225 56.4514 215.845 56.2904C215.465 56.1294 215.053 56.0547 214.641 56.0716C214.225 56.0553 213.811 56.1312 213.429 56.294C213.046 56.4568 212.704 56.7023 212.428 57.0129C211.869 57.6421 211.588 58.5886 211.586 59.8522Z" fill="#807C79"/>
<path d="M222.642 65.3593V54.3604H224.803L229.305 61.7041V54.3629H231.367V65.3619H229.139L224.706 58.1998V65.3619L222.642 65.3593Z" fill="#807C79"/>
<path d="M234.06 61.7809L236.219 61.5711C236.29 62.1798 236.57 62.7449 237.012 63.1698C237.468 63.5294 238.039 63.7112 238.618 63.6814C239.335 63.6814 239.873 63.5305 240.235 63.2286C240.401 63.1051 240.536 62.9452 240.631 62.7612C240.725 62.5772 240.776 62.3739 240.78 62.1671C240.786 61.9253 240.705 61.6892 240.552 61.5021C240.33 61.2778 240.055 61.114 239.751 61.0263C239.496 60.9342 238.9 60.7705 237.974 60.5454C236.78 60.2521 235.945 59.8897 235.47 59.4583C235.146 59.1872 234.887 58.848 234.71 58.4651C234.534 58.0822 234.443 57.6649 234.446 57.2432C234.446 56.6849 234.612 56.1391 234.922 55.6752C235.256 55.1723 235.735 54.7832 236.296 54.5599C236.984 54.2871 237.72 54.1566 238.46 54.1762C239.838 54.1762 240.88 54.4806 241.575 55.0843C241.921 55.3863 242.199 55.759 242.388 56.1773C242.578 56.5957 242.676 57.0498 242.675 57.5092L240.455 57.6064C240.41 57.1377 240.192 56.7027 239.844 56.3863C239.429 56.1091 238.934 55.9785 238.437 56.0154C237.903 55.985 237.373 56.1237 236.922 56.4118C236.811 56.4873 236.721 56.5892 236.659 56.7085C236.598 56.8278 236.567 56.9606 236.569 57.0948C236.57 57.2239 236.599 57.3513 236.657 57.4671C236.714 57.5829 236.797 57.6839 236.899 57.7624C237.177 57.9977 237.86 58.2424 238.946 58.4965C239.773 58.6652 240.578 58.9314 241.343 59.2895C241.842 59.5441 242.262 59.9307 242.558 60.4073C242.86 60.9482 243.012 61.5603 242.997 62.1799C242.982 62.7995 242.801 63.4037 242.473 63.9295C242.119 64.4839 241.599 64.9126 240.987 65.1547C240.224 65.4447 239.411 65.5811 238.595 65.5563C237.204 65.5563 236.135 65.2349 235.39 64.592C234.645 63.9491 234.202 63.0121 234.06 61.7809Z" fill="#807C79"/>
<path d="M105.385 23.0825C105.992 23.083 106.574 23.3229 107.004 23.7501C107.233 23.961 107.414 24.218 107.536 24.5042C107.658 24.7904 107.717 25.0992 107.71 25.4101V47.449C107.717 47.7611 107.655 48.0709 107.53 48.3571C107.405 48.6432 107.22 48.8989 106.987 49.1065C106.535 49.5386 105.933 49.778 105.309 49.7741C104.997 49.7899 104.686 49.7408 104.395 49.63C104.103 49.5193 103.838 49.3492 103.616 49.1306C103.394 48.9121 103.22 48.6497 103.104 48.3603C102.989 48.0708 102.934 47.7605 102.945 47.449V25.4101C102.938 25.101 102.995 24.7936 103.113 24.5078C103.231 24.2219 103.407 23.9639 103.631 23.7501C103.864 23.5275 104.139 23.3538 104.441 23.2391C104.742 23.1245 105.063 23.0712 105.385 23.0825ZM105.27 34.1786H122.278V38.5577H105.278L105.27 34.1786ZM122.278 23.0825C122.589 23.0674 122.9 23.1171 123.191 23.2283C123.482 23.3395 123.747 23.5098 123.969 23.7285C124.191 23.9472 124.366 24.2095 124.481 24.499C124.597 24.7884 124.651 25.0986 124.641 25.4101V47.449C124.649 47.7562 124.594 48.0617 124.479 48.3468C124.364 48.6319 124.192 48.8904 123.974 49.1065C123.739 49.3323 123.461 49.508 123.156 49.6228C122.851 49.7376 122.526 49.7891 122.201 49.7741C121.593 49.7742 121.01 49.5343 120.579 49.1065C120.351 48.8961 120.17 48.6395 120.048 48.3537C119.926 48.0679 119.867 47.7595 119.873 47.449V25.4101C119.867 25.0974 119.929 24.7871 120.055 24.5006C120.18 24.2141 120.366 23.958 120.6 23.7501C121.053 23.3163 121.658 23.0768 122.285 23.0825H122.278Z" fill="#2482B9"/>
<path d="M132.77 23.0441C133.162 23.0542 133.547 23.1521 133.896 23.3306C134.255 23.4949 134.564 23.7518 134.791 24.0749L144.056 38.3352L142.15 38.261L151.645 24.0749C151.844 23.7601 152.12 23.501 152.446 23.3221C152.773 23.1431 153.14 23.0501 153.512 23.0518C154.121 23.0515 154.708 23.2839 155.152 23.7015C155.389 23.9105 155.576 24.1694 155.701 24.4594C155.827 24.7495 155.886 25.0637 155.876 25.3794V47.4566C155.886 47.7681 155.832 48.0784 155.717 48.3679C155.601 48.6574 155.427 48.9198 155.204 49.1383C154.982 49.3569 154.717 49.527 154.426 49.6377C154.134 49.7485 153.823 49.7975 153.512 49.7818C153.193 49.7945 152.874 49.7418 152.576 49.627C152.278 49.5122 152.006 49.3377 151.778 49.1141C151.559 48.8981 151.387 48.6395 151.272 48.3545C151.158 48.0694 151.102 47.7639 151.11 47.4566V29.49L152.599 29.8327L144.818 41.6911C144.578 41.982 144.288 42.2272 143.961 42.415C143.647 42.6076 143.28 42.697 142.912 42.6708C142.553 42.6963 142.194 42.6067 141.889 42.415C141.562 42.2266 141.271 41.9815 141.03 41.6911L133.747 30.1806L134.74 28.1599V47.4541C134.758 48.0648 134.538 48.6587 134.128 49.1116C133.926 49.3324 133.678 49.5065 133.401 49.6218C133.125 49.7371 132.826 49.7908 132.527 49.7792C132.234 49.7879 131.942 49.7327 131.672 49.6174C131.402 49.5022 131.161 49.3296 130.964 49.1116C130.555 48.6585 130.337 48.0645 130.355 47.4541V25.3718C130.352 25.0643 130.413 24.7595 130.535 24.4771C130.656 24.1947 130.836 23.9409 131.061 23.7322C131.285 23.5077 131.551 23.331 131.845 23.2128C132.139 23.0945 132.454 23.0371 132.77 23.0441Z" fill="#2482B9"/>
<path d="M163.997 23.0441C164.389 23.0538 164.773 23.1517 165.122 23.3306C165.483 23.4943 165.793 23.7512 166.02 24.0749L175.285 38.3352L173.379 38.261L182.872 24.0749C183.071 23.7602 183.348 23.5013 183.675 23.3224C184.002 23.1435 184.369 23.0504 184.741 23.0518C185.351 23.0521 185.937 23.2844 186.381 23.7015C186.617 23.9109 186.805 24.1698 186.93 24.4598C187.055 24.7498 187.115 25.0638 187.105 25.3795V47.4566C187.116 47.7681 187.061 48.0785 186.946 48.3679C186.83 48.6574 186.656 48.9198 186.434 49.1383C186.212 49.3569 185.947 49.527 185.655 49.6377C185.364 49.7485 185.053 49.7975 184.741 49.7818C184.422 49.795 184.103 49.7425 183.805 49.6277C183.507 49.5129 183.235 49.3381 183.007 49.1142C182.789 48.8981 182.617 48.6396 182.502 48.3545C182.387 48.0694 182.332 47.7639 182.34 47.4566V29.49L183.826 29.8328L176.047 41.6912C175.807 41.982 175.517 42.2272 175.19 42.415C174.876 42.6073 174.509 42.6967 174.141 42.6708C173.786 42.6939 173.433 42.6044 173.131 42.415C172.804 42.2266 172.513 41.9815 172.272 41.6912L164.989 30.1806L165.982 28.1599V47.4541C166 48.0648 165.781 48.6588 165.37 49.1116C165.168 49.3323 164.92 49.5063 164.643 49.6216C164.367 49.7368 164.069 49.7906 163.769 49.7792C163.476 49.7879 163.184 49.7327 162.914 49.6175C162.644 49.5022 162.403 49.3296 162.206 49.1116C161.796 48.6588 161.577 48.0648 161.595 47.4541V25.3718C161.592 25.0644 161.654 24.7598 161.775 24.4775C161.897 24.1952 162.076 23.9413 162.301 23.7322C162.523 23.5097 162.788 23.3341 163.079 23.2159C163.37 23.0977 163.683 23.0393 163.997 23.0441Z" fill="#2482B9"/>
<path d="M204.759 23.0825C207.2 23.0825 209.018 23.6546 210.213 24.7988C211.408 25.943 212.005 27.6338 212.003 29.8711C212.042 30.9972 211.728 32.1072 211.107 33.0469C210.485 33.9866 209.586 34.7094 208.535 35.1148C207.389 35.6093 205.978 35.8566 204.302 35.8566L204.455 34.1428C205.366 34.1571 206.273 34.2651 207.161 34.4651C208.199 34.6907 209.196 35.0765 210.116 35.6085C211.08 36.1659 211.893 36.9521 212.482 37.8978C213.102 38.8749 213.414 40.1266 213.415 41.6528C213.415 43.3307 213.142 44.7035 212.594 45.771C212.106 46.7714 211.363 47.6261 210.441 48.2496C209.571 48.8257 208.601 49.2335 207.581 49.4518C206.616 49.661 205.632 49.769 204.644 49.7741H195.149C194.842 49.78 194.537 49.7239 194.253 49.6091C193.968 49.4944 193.709 49.3233 193.492 49.1062C193.275 48.8891 193.104 48.6305 192.989 48.3457C192.875 48.0609 192.818 47.7559 192.824 47.449V25.4101C192.818 25.103 192.874 24.7977 192.989 24.5126C193.103 24.2276 193.274 23.9686 193.491 23.7512C193.708 23.5338 193.967 23.3625 194.252 23.2476C194.537 23.1327 194.842 23.0765 195.149 23.0825H204.759ZM204.071 27.5844H197.285L197.782 26.973V33.8793L197.324 33.5366H204.186C204.913 33.5398 205.616 33.2831 206.169 32.8127C206.754 32.3284 207.046 31.6292 207.046 30.7152C207.046 29.6238 206.773 28.8292 206.228 28.3313C205.63 27.817 204.859 27.5498 204.071 27.5844ZM204.378 38.0308H197.439L197.782 37.7264V45.771L197.4 45.3899H204.644C205.814 45.3899 206.742 45.0786 207.427 44.4562C208.113 43.8338 208.454 42.8959 208.45 41.6425C208.45 40.4983 208.221 39.6721 207.762 39.1639C207.337 38.6734 206.762 38.3379 206.125 38.2098C205.549 38.0942 204.963 38.0342 204.376 38.0308H204.378Z" fill="#2482B9"/>
<path d="M219.401 26.8963C218.536 26.8963 217.926 26.7564 217.569 26.4768C217.213 26.1971 217.036 25.7051 217.037 25.0009V24.277C217.037 23.5403 217.232 23.0389 217.628 22.7729C218.025 22.5069 218.626 22.3713 219.439 22.3713C220.329 22.3713 220.952 22.5112 221.306 22.7908C221.662 23.0696 221.841 23.5582 221.841 24.277V25.0009C221.841 25.7401 221.652 26.2414 221.268 26.51C220.884 26.7786 220.265 26.8963 219.401 26.8963ZM221.726 47.4489C221.735 47.7545 221.682 48.0586 221.57 48.3433C221.459 48.628 221.292 48.8875 221.079 49.1065C220.64 49.5342 220.052 49.7737 219.439 49.7737C218.827 49.7737 218.238 49.5342 217.8 49.1065C217.586 48.8876 217.418 48.6282 217.307 48.3435C217.195 48.0588 217.142 47.7546 217.15 47.4489V31.7C217.142 31.3943 217.195 31.0901 217.307 30.8054C217.418 30.5207 217.586 30.2613 217.8 30.0425C218.238 29.6147 218.827 29.3752 219.439 29.3752C220.052 29.3752 220.64 29.6147 221.079 30.0425C221.292 30.2614 221.459 30.5209 221.57 30.8056C221.682 31.0903 221.735 31.3945 221.726 31.7V47.4489Z" fill="#2482B9"/>
<path d="M239.419 45.5817C239.701 45.5722 239.983 45.6196 240.246 45.7211C240.51 45.8226 240.751 45.9761 240.954 46.1726C241.155 46.3666 241.314 46.6007 241.419 46.8598C241.524 47.1188 241.574 47.3971 241.565 47.6766C241.57 47.9534 241.519 48.2282 241.414 48.4843C241.308 48.7403 241.152 48.9721 240.954 49.1653C240.753 49.3667 240.514 49.5247 240.25 49.6294C239.986 49.7341 239.703 49.7834 239.419 49.7741H227.141C226.85 49.7861 226.559 49.7305 226.293 49.6116C226.027 49.4926 225.792 49.3136 225.606 49.0886C225.266 48.713 225.083 48.2214 225.095 47.715C225.114 47.3741 225.166 47.0359 225.248 46.7046C225.366 46.3278 225.56 45.9794 225.819 45.6815L235.314 33.4036L235.237 33.9382H227.484C227.202 33.9445 226.921 33.8935 226.659 33.7884C226.397 33.6833 226.159 33.5262 225.96 33.3266C225.76 33.127 225.603 32.889 225.498 32.6271C225.393 32.3651 225.342 32.0845 225.348 31.8023C225.342 31.5285 225.393 31.2564 225.498 31.0035C225.603 30.7506 225.761 30.5226 225.959 30.3341C226.162 30.1374 226.403 29.9837 226.666 29.8822C226.93 29.7806 227.212 29.7334 227.494 29.7432H239.237C239.517 29.7393 239.795 29.7952 240.052 29.9072C240.309 30.0193 240.538 30.1849 240.726 30.3929C240.929 30.6108 241.082 30.8705 241.174 31.1537C241.267 31.4369 241.296 31.7368 241.261 32.0325C241.233 32.2911 241.188 32.5475 241.125 32.7999C241.018 33.1356 240.844 33.4461 240.613 33.7131L231.259 45.8094V45.5817H239.419Z" fill="#2482B9"/>
</g>
<defs>
<radialGradient id="paint0_radial_1_946" cx="0" cy="0" r="1" gradientUnits="userSpaceOnUse" gradientTransform="translate(44.1429 43.7579) scale(43.9178 43.9178)">
<stop stop-color="#378DCC"/>
<stop offset="1" stop-color="#0C4068"/>
</radialGradient>
<clipPath id="clip0_1_946">
<rect width="243" height="87.8586" fill="white"/>
</clipPath>
</defs>
</svg>
