<?xml version="1.0" standalone="no"?>
<!DOCTYPE svg PUBLIC "-//W3C//DTD SVG 1.1//EN" "http://www.w3.org/Graphics/SVG/1.1/DTD/svg11.dtd" >
<svg xmlns="http://www.w3.org/2000/svg">
<metadata>Generated by IcoMoon</metadata>
<defs>
<font id="icomoon" horiz-adv-x="1024">
<font-face units-per-em="1024" ascent="960" descent="-64" />
<missing-glyph horiz-adv-x="1024" />
<glyph unicode="&#x20;" horiz-adv-x="512" d="" />
<glyph unicode="&#xe900;" glyph-name="minus-circle" d="M512 746.667c188.204 0 341.333-153.124 341.333-341.321s-153.129-341.346-341.333-341.346c-188.204 0-341.333 153.148-341.333 341.346s153.129 341.321 341.333 341.321zM512 670.826c-146.383 0-265.49-119.102-265.49-265.48s119.106-265.48 265.49-265.48c146.383 0 265.49 119.102 265.49 265.48s-119.106 265.48-265.49 265.48zM625.785 443.286v-75.865h-227.58v75.865h227.58z" />
<glyph unicode="&#xe901;" glyph-name="plus-circle" d="M511.988 789.333c188.222 0 341.346-153.124 341.346-341.321s-153.124-341.346-341.346-341.346c-188.197 0-341.321 153.148-341.321 341.346s153.124 341.321 341.321 341.321zM511.988 713.492c-146.378 0-265.48-119.102-265.48-265.48s119.102-265.48 265.48-265.48c146.403 0 265.48 119.102 265.48 265.48s-119.077 265.48-265.48 265.48zM549.916 561.788v-75.865h75.865v-75.841h-75.865v-75.865h-75.841v75.865h-75.865v75.841h75.865v75.865h75.841z" />
<glyph unicode="&#xe902;" glyph-name="add-user" d="M457.856 746.661c47.465-0.583 76.642-40.979 99.904-60.539 24.104-20.258 13.314-54.519 17.224-96.117 1.807-19.32 13.809-5.413 21.629-30.988 5.915-19.272-1.312-70.518-17.026-88.394-15.467-17.611-14.254-67.198-39.521-86.012-26.95-20.041-43.803-5.004-2.475-85.916 20.837-40.829 157.343-26.008 184.218-61.712 18.302-24.252 20.335-74.642 20.561-85.541l0.028-2.108h-614.399l0.035 2.108c0.239 10.898 2.253 61.289 20.555 85.541 26.875 35.704 163.381 20.884 184.218 61.664 41.353 80.96 24.45 65.923-2.475 85.964-25.267 18.814-24.054 68.401-39.521 86.012-15.69 17.876-22.941 69.123-17.026 88.394 7.82 25.575 19.823 11.669 21.629 30.988 3.935 41.599 3.242 150.684 105.646 140.050 21.505 12.006 40.264 16.793 56.795 16.607zM819.209 559.998v-74.68h76.791v-74.68h-76.791v-74.656h-76.815v74.656h-76.791v74.68h76.791v74.68h76.815z" />
<glyph unicode="&#xe903;" glyph-name="alarm-clock" d="M550.106 789.333v-78.481c150.154-18.771 266.76-146.354 266.76-300.773 0-167.3-136.769-303.413-304.875-303.413s-304.875 136.113-304.875 303.413c0 154.419 116.631 282.002 266.784 300.773v0 78.481h76.207zM511.99 637.627c-126.086 0-228.644-102.091-228.644-227.547 0-125.481 102.558-227.572 228.644-227.572s228.669 102.091 228.669 227.572c0 125.457-102.583 227.547-228.669 227.547zM550.101 561.764v-113.774h76.231v-75.841h-152.438v189.615h76.207zM246.873 787.693l53.882-53.624-76.207-75.865-53.882 53.648 76.207 75.841zM777.102 787.688l76.231-75.841-53.882-53.624-76.231 75.841 53.882 53.624z" />
<glyph unicode="&#xe904;" glyph-name="alert" d="M883.797 267.712l-271.79 483.145c-29.179 51.857-70.107 80.393-115.246 80.393-45.179 0-86.107-28.536-115.282-80.393l-271.753-483.145c-29.036-51.643-32.25-101.897-9.071-141.568 23.179-39.607 68.607-61.429 127.854-61.429h536.503c59.286 0 104.677 21.821 127.854 61.429 23.179 39.643 19.964 89.928-9.071 141.568h0.003zM838.297 158.107c-11.215-19.143-37.893-30.072-73.25-30.072h-536.503c-35.357 0-62.072 11-73.25 30.072-11.215 19.179-7.679 47.822 9.607 78.608l271.753 483.145c17.25 30.608 39.142 48.143 60.143 48.143s42.893-17.536 60.071-48.143l271.753-483.145c17.321-30.786 20.821-59.429 9.679-78.608h-0.004zM496.762 290.889c-23 0-41.643-18.643-41.643-41.643 0-23.035 18.643-41.714 41.643-41.714 23.035 0 41.679 18.643 41.679 41.714 0 22.964-18.643 41.643-41.679 41.643zM496.762 592.75c-23 0-41.643-18.643-41.643-41.643 0-1.25 0.25-2.357 0.321-3.536h-0.214l16.607-201.819h0.143c1.071-12.785 11.714-22.928 24.785-22.928 13.107 0 23.715 10.107 24.821 22.928h0.143l16.607 201.819h-0.214c0.107 1.179 0.321 2.286 0.321 3.536 0 22.964-18.643 41.643-41.679 41.643h0.001z" />
<glyph unicode="&#xe905;" glyph-name="minus" d="M856.086 408h-688.173v80h688.173v-80z" />
<glyph unicode="&#xe906;" glyph-name="x-twitter" horiz-adv-x="1001" d="M596.009 526.629l372.819 433.371h-88.346l-323.718-376.29-258.553 376.29h-298.21l390.983-569.018-390.983-454.457h88.351l341.855 397.375 273.051-397.375h298.21l-405.458 590.103zM475 385.969l-354.815 507.521h135.702l624.636-893.48h-135.702l-269.821 385.959z" />
<glyph unicode="&#xe907;" glyph-name="download" d="M512.001 277.333l-213.333 213.333 59.733 61.867 110.933-110.933v347.733h85.333v-347.733l110.933 110.933 59.733-61.867-213.333-213.333zM256.001 106.667c-23.467 0-43.555 8.354-60.267 25.067s-25.067 36.8-25.067 60.267v128h85.333v-128h512v128h85.333v-128c0-23.467-8.354-43.554-25.067-60.267s-36.8-25.067-60.267-25.067h-512z" />
<glyph unicode="&#xe908;" glyph-name="quotes-open" horiz-adv-x="1463" d="M513.989 957.894l167.351-216.269c-133.881-74.664-205.97-187.948-205.97-293.508 0-82.388 59.216-162.202 244.59-182.799-18.022-195.672-164.776-316.679-339.851-316.679-231.717 0-357.873 162.202-357.873 386.194 0 285.784 242.015 504.627 491.754 623.060zM1234.885 957.894l167.351-216.269c-133.881-74.664-205.97-187.948-205.97-293.508 0-82.388 59.216-162.202 244.59-182.799-18.022-195.672-164.776-316.679-339.851-316.679-231.717 0-357.873 162.202-357.873 386.194 0 285.784 242.015 504.627 491.754 623.060z" />
<glyph unicode="&#xe909;" glyph-name="arrow-down-left" d="M213.576 715.467l88.94-0.041-0.182-414.207 445.447 445.447 62.886-62.886-445.447-445.447 414.187 0.203 0.041-88.94-566.113-0.263z" />
<glyph unicode="&#xe90a;" glyph-name="arrow-down-right" d="M810.424 715.467l-88.94-0.041 0.182-414.207-445.447 445.447-62.886-62.886 445.447-445.447-414.187 0.203-0.041-88.94 566.113-0.263z" />
<glyph unicode="&#xe90b;" glyph-name="arrow-down" d="M853.333 448.293l-53.673 53.622-249.74-249.951v537.369h-75.865v-537.369l-249.716 249.951-53.673-53.622 341.321-341.627z" />
<glyph unicode="&#xe90c;" glyph-name="arrow-left" d="M512.306 106.667l53.6 53.673-249.96 249.74h537.388v75.841h-537.388l249.96 249.74-53.6 53.673-341.639-341.346z" />
<glyph unicode="&#xe90d;" glyph-name="arrow-right" d="M511.707 789.333l-53.622-53.673 249.951-249.74h-537.369v-75.865h537.369l-249.951-249.716 53.622-53.673 341.627 341.321z" />
<glyph unicode="&#xe90e;" glyph-name="arrow-up-left" d="M213.597 180.515l88.922 0.061-0.182 414.235 445.462-445.478 62.868 62.87-445.462 445.478 414.221-0.182 0.061 88.925-566.153 0.243z" />
<glyph unicode="&#xe90f;" glyph-name="arrow-up-right" d="M810.403 180.515l-88.922 0.061 0.182 414.235-445.462-445.478-62.868 62.87 445.462 445.478-414.221-0.182-0.061 88.925 566.153 0.243z" />
<glyph unicode="&#xe910;" glyph-name="arrow-up" d="M170.667 447.694l53.673-53.6 249.74 249.96v-537.388h75.841v537.388l249.74-249.96 53.673 53.6-341.346 341.639z" />
<glyph unicode="&#xe911;" glyph-name="attach" d="M694.847 640.012v-307.21c0-105.868-82.038-191.988-182.859-191.988s-182.835 86.12-182.835 191.988v307.21c0 63.526 49.209 115.198 109.706 115.198s109.706-51.672 109.706-115.198v-307.21c0-21.159-16.403-38.407-36.576-38.407s-36.576 17.249-36.576 38.407v307.21h-73.129v-307.21c0-63.526 49.209-115.198 109.706-115.198 60.521 0 109.706 51.672 109.706 115.198v307.21c0 105.868-82.014 191.988-182.835 191.988s-182.859-86.12-182.859-191.988v-307.21c0-148.21 114.844-268.802 255.988-268.802s256.012 120.592 256.012 268.802v307.21h-73.153z" />
<glyph unicode="&#xe912;" glyph-name="back" d="M234.671 744.826h127.996c11.741 0 21.337-8.369 21.337-18.555v-225.692l397.242 244.677c2.502 0.909 5.224 1.411 8.084 1.411 11.823 0 21.337-8.297 21.337-18.555v-560.224c0-10.234-9.514-18.555-21.337-18.555-2.86 0-5.582 0.526-8.084 1.435l-397.242 244.653v-225.692c0-10.186-9.596-18.555-21.337-18.555h-127.996c-11.713 0-21.337 8.369-21.337 18.555v556.542c0 10.186 9.624 18.555 21.337 18.555z" />
<glyph unicode="&#xe913;" glyph-name="mail" horiz-adv-x="1408" d="M175.698-64c-36.166 0-67.125 12.531-92.879 37.6s-38.631 55.2-38.631 90.4v768c0 35.2 12.877 65.333 38.631 90.4s56.714 37.6 92.879 37.6h1052.084c36.166 0 67.123-12.533 92.877-37.6s38.63-55.2 38.63-90.4v-768c0-35.2-12.877-65.331-38.63-90.4s-56.71-37.6-92.877-37.6h-1052.084zM701.741 384l-526.043 320v-640h1052.084v640l-526.042-320zM701.741 512l526.042 320h-1052.084l526.043-320zM175.698 704v0z" />
<glyph unicode="&#xe914;" glyph-name="bell" d="M592.329 182.531c0-41.916-35.946-75.864-80.329-75.864s-80.329 33.948-80.329 75.864v0zM511.987 789.333c132.527 0 240.961-102.407 240.961-227.569v0-208.578l100.385-132.738h-682.667l100.385 132.738v208.578c0 125.162 108.434 227.569 240.935 227.569z" />
<glyph unicode="&#xe915;" glyph-name="bin" d="M773.319 639.978v-565.337c0-10.567-8.397-10.641-18.67-10.641v0h-485.335c-10.249 0-18.67 0.074-18.67 10.641v0 565.337h522.676zM474.664 524.807h-37.341v-307.205h37.341v307.205zM586.662 524.807h-37.341v-307.205h37.341v307.205zM594.393 832l74.658-76.814h122.946c10.274 0 18.67-17.199 18.67-27.766v0-49.023h-597.333v49.023c0 10.567 8.397 27.766 18.67 27.766v0h122.922l74.658 76.814h164.81zM578.922 793.593h-133.869l-37.341-38.407h208.551l-37.341 38.407z" />
<glyph unicode="&#xe916;" glyph-name="calendar" d="M675.207 789.332c19.315-0.185 35.043-14.448 36.656-32.509l0.135-3.429-0.574-53.618 110.253-0.026c41.047 0 74.323-31.864 74.323-71.17v-450.744c0-39.306-33.275-71.17-74.323-71.17h-619.355c-41.047 0-74.323 31.864-74.323 71.17v450.744c0 39.306 33.275 71.17 74.323 71.17l112.728 0.026 0.564 54.323c0.203 19.652 17.005 35.425 37.528 35.232 19.315-0.185 35.043-14.448 36.656-32.509l0.135-3.429-0.558-53.618h247.723l0.581 54.323c0.203 19.652 17.005 35.425 37.528 35.232zM821.675 431.872h-619.392l0.040-254.035h619.355l-0.003 254.035zM314.283 628.608l-111.96-0.028-0.040-125.54h619.392l0.003 125.54-110.979 0.028-0.507-49.735c-0.203-19.652-17.005-35.425-37.528-35.232-19.315 0.185-35.043 14.448-36.656 32.509l-0.135 3.429 0.501 49.030h-247.765l-0.481-49.735c-0.203-19.652-17.005-35.425-37.528-35.232-19.315 0.185-35.043 14.448-36.656 32.509l-0.135 3.429 0.474 49.030z" />
<glyph unicode="&#xe917;" glyph-name="camera" d="M627.198 746.667l76.815-75.78h38.407v18.927c0 10.428 8.637 18.951 19.179 18.951v0h38.407c10.542 0 19.204-8.523 19.204-18.951v0-18.927h57.586c10.567 0 19.204-8.548 19.204-18.951v0-492.633c0-10.428-8.637-18.951-19.204-18.951v0h-729.593c-10.567 0-19.204 8.523-19.204 18.951v0 492.633c0 10.404 8.637 18.951 19.204 18.951v0h172.809l76.79 75.78h230.395zM512 595.106c-106.066 0-191.988-84.816-191.988-189.487s85.922-189.487 191.988-189.487c106.066 0 192.012 84.816 192.012 189.487s-85.947 189.487-192.012 189.487zM512 519.304c63.625 0 115.198-50.87 115.198-113.683 0-62.788-51.573-113.707-115.198-113.707s-115.198 50.919-115.198 113.707c0 62.812 51.573 113.683 115.198 113.683z" />
<glyph unicode="&#xe918;" glyph-name="chevron-down" d="M515.032 377.308l241.359 241.359 60.34-60.34-301.699-301.699-301.699 301.699 60.34 60.34z" />
<glyph unicode="&#xe919;" glyph-name="chevron-left" d="M454.692 437.647l241.359-241.359-60.34-60.34-301.699 301.699 301.699 301.699 60.34-60.34z" />
<glyph unicode="&#xe91a;" glyph-name="chevron-right" d="M575.372 437.647l-241.359-241.359 60.34-60.34 301.699 301.699-301.699 301.699-60.34-60.34z" />
<glyph unicode="&#xe91b;" glyph-name="chevron-up" d="M515.032 497.987l241.359-241.359 60.34 60.34-301.699 301.699-301.699-301.699 60.34-60.34z" />
<glyph unicode="&#xe91c;" glyph-name="clock" d="M512 789.333c188.228 0 341.333-153.124 341.333-341.346s-153.105-341.321-341.333-341.321c-188.228 0-341.333 153.1-341.333 341.321s153.105 341.346 341.333 341.346zM512 713.468c-146.359 0-265.49-119.077-265.49-265.48 0-146.354 119.131-265.48 265.49-265.48 146.383 0 265.49 119.126 265.49 265.48 0 146.403-119.106 265.48-265.49 265.48zM549.929 637.617v-151.706h75.868v-75.841h-151.736v227.547h75.868z" />
<glyph unicode="&#xe91d;" glyph-name="cloud" d="M796.72 464.914c0 0.46 0.078 0.894 0.078 1.353 0 131.084-109.085 237.733-243.195 237.733-105.768 0-195.705-66.435-229.141-158.761-108.85-3.089-196.463-90.538-196.463-197.825 0-109.228 91.061-198.081 202.967-198.081h445.561c89.389 0 162.139 71.082 162.139 158.454 0 80.708-62.039 147.348-141.946 157.127z" />
<glyph unicode="&#xe91e;" glyph-name="cog" d="M533.346 325.921c-55.651 0-100.733 45.16-100.733 100.733 0 55.651 45.082 100.759 100.733 100.759 55.573 0 100.733-45.108 100.733-100.759 0-55.573-45.16-100.733-100.733-100.733v0zM896 366.224v120.885l-89.826 9.972c-6.648 25.865-16.854 50.276-30.098 72.738l56.43 70.531-85.489 85.489-70.505-56.43c-22.489 13.27-46.874 23.424-72.764 30.124l-9.946 89.8h-120.911l-9.972-89.8c-25.917-6.7-50.301-16.854-72.738-30.124l-70.557 56.43-85.515-85.489 56.482-70.531c-13.27-22.437-23.424-46.874-30.124-72.738l-89.8-9.972v-120.885l89.8-9.972c6.7-25.917 16.854-50.301 30.124-72.738l-56.482-70.557 85.515-85.489 70.557 56.456c22.437-13.27 46.822-23.45 72.738-30.098l9.972-89.826h120.911l9.946 89.826c25.891 6.648 50.276 16.828 72.713 30.098l70.557-56.456 85.489 85.489-56.43 70.557c13.296 22.437 23.45 46.822 30.098 72.738l89.826 9.972z" />
<glyph unicode="&#xe91f;" glyph-name="comment" d="M625.786 410.069c-20.946 0-37.933 16.986-37.933 37.931s16.987 37.931 37.933 37.931c20.946 0 37.933-16.986 37.933-37.931s-16.987-37.931-37.933-37.931zM512.012 410.069c-20.946 0-37.933 16.986-37.933 37.931s16.987 37.931 37.933 37.931c20.946 0 37.908-16.986 37.908-37.931s-16.962-37.931-37.908-37.931zM398.214 410.069c-20.922 0-37.908 16.986-37.908 37.931s16.987 37.931 37.908 37.931c20.946 0 37.933-16.986 37.933-37.931s-16.987-37.931-37.933-37.931zM512.012 789.333c-188.539 0-341.346-152.825-341.346-341.333 0-94.266 38.202-179.587 99.964-241.372l-99.964-99.961h341.346c188.539 0 341.321 152.801 341.321 341.333 0 188.508-152.782 341.333-341.321 341.333z" />
<glyph unicode="&#xe920;" glyph-name="crop" d="M360.313 296.306v303.413h303.424v-303.413h-303.424zM739.58 296.306v322.355c0 31.382-25.542 56.899-56.901 56.899h-322.366v113.774h-75.868v-113.774h-113.778v-75.841h113.778v-322.379c0-31.382 25.518-56.899 56.901-56.899h322.366v-113.774h75.868v113.774h113.753v75.865h-113.753z" />
<glyph unicode="&#xe921;" glyph-name="document" d="M735.988 165.537c0-13.611-10.826-24.747-24.059-24.747h-399.882c-13.232 0-24.059 11.136-24.059 24.747v564.926c0 13.586 10.826 24.747 24.059 24.747h213.21c13.256 0 24.059-11.161 24.059-24.747v-142.518c0-13.611 10.826-24.747 24.059-24.747h138.555c13.232 0 24.059-11.136 24.059-24.747v-372.913zM603.664 814.504c-9.359 9.627-21.196 17.496-26.344 17.496h-321.258c-13.232 0-28.269-1.93-33.394-4.331-5.149-2.376-9.335-26.009-9.335-39.62v-680.098c0-13.611 1.877-29.078 4.21-34.349 2.286-5.296 25.286-9.602 38.518-9.602h511.876c13.208 0 28.245 1.955 33.37 4.306 5.149 2.376 9.359 26.034 9.359 39.645v468.907c0 13.611-7.675 32.617-17.034 42.243l-189.969 195.403z" />
<glyph unicode="&#xe922;" glyph-name="drawer" d="M736.009 755.188v-499.181h-145.273c0-38.406-35.464-76.788-76.703-76.788-41.214 0-76.703 38.381-76.703 76.788h-149.339v499.181h448.018zM810.667 812.797c0 10.591-8.349 19.203-18.67 19.203h-559.992c-10.322 0-18.67-8.612-18.67-19.203v-729.594c0-10.591 8.349-19.203 18.67-19.203h559.992c10.322 0 18.67 8.612 18.67 19.203v729.594z" />
<glyph unicode="&#xe923;" glyph-name="dribble" d="M674.816 206.251c-2.901 17.579-18.517 103.125-56.661 208.213 94.080 15.019 175.573-10.752 181.589-12.757-12.928-81.195-59.435-151.296-124.928-195.456zM512 156.501c-70.613 0-135.253 25.088-185.685 66.773 3.84-3.072 6.485-5.077 6.485-5.077s55.936 121.899 228.779 182.101c0.64 0.256 1.237 0.427 1.92 0.597 41.003-106.581 57.984-195.797 62.251-221.312-34.944-14.891-73.429-23.083-113.749-23.083zM220.501 448.043c0 3.072 0.128 6.144 0.213 9.173 5.205-0.085 149.205-3.371 299.264 41.515 8.32-16.299 16.341-32.939 23.68-49.536-3.925-1.067-7.68-2.219-11.52-3.456-157.312-50.816-237.056-192.384-237.056-192.384s0.085-0.085 0.085-0.128c-46.421 51.627-74.667 119.893-74.667 194.816zM387.584 711.637c3.883-5.205 57.813-78.293 108.245-167.979-139.947-37.163-261.419-35.712-269.099-35.584 18.901 90.283 79.573 165.163 160.853 203.563zM704.469 666.752c-0.725-1.109-42.24-64.299-152.235-105.557-49.835 91.563-104.576 164.309-108.928 170.069 22.016 5.376 45.013 8.235 68.693 8.235 73.728 0 141.141-27.477 192.469-72.747zM803.413 450.901c-4.267 0.939-102.912 22.144-203.093 9.557-2.005 4.992-4.096 9.984-6.272 15.061-6.059 14.293-12.587 28.416-19.413 42.283 115.2 46.933 161.92 114.517 162.432 115.371 40.917-49.664 65.579-113.109 66.347-182.272zM846.336 516.693c-4.437 21.931-11.179 43.563-19.925 64.171-8.491 20.267-19.115 39.765-31.445 57.984-12.245 18.091-26.24 35.072-41.643 50.475-15.403 15.488-32.427 29.483-50.517 41.685-18.219 12.331-37.76 22.912-57.984 31.488-20.608 8.661-42.155 15.403-64.171 19.883-22.4 4.608-45.568 6.955-68.651 6.955-23.168 0-46.251-2.347-68.779-6.955-21.888-4.48-43.477-11.221-64.171-19.883-20.139-8.576-39.723-19.157-57.984-31.488-18.005-12.203-34.987-26.197-50.517-41.685-15.403-15.403-29.397-32.384-41.557-50.475-12.331-18.219-22.912-37.717-31.531-57.984-8.747-20.608-15.403-42.24-19.883-64.171-4.608-22.4-6.912-45.568-6.912-68.651 0-23.168 2.304-46.336 6.912-68.779 4.48-21.931 11.136-43.52 19.883-64.128 8.619-20.224 19.2-39.808 31.531-58.027 12.16-18.048 26.155-35.029 41.557-50.475 15.531-15.445 32.512-29.44 50.517-41.643 18.261-12.331 37.845-22.912 57.984-31.445 20.693-8.747 42.283-15.403 64.171-19.925 22.528-4.608 45.611-6.955 68.779-6.955 23.083 0 46.251 2.347 68.651 6.955 22.016 4.523 43.563 11.179 64.171 19.925 20.224 8.533 39.765 19.115 57.984 31.445 18.091 12.203 35.115 26.197 50.517 41.643s29.397 32.427 41.643 50.475c12.331 18.219 22.955 37.803 31.445 58.027 8.747 20.608 15.488 42.197 19.925 64.128 4.651 22.443 6.997 45.611 6.997 68.779 0 23.083-2.347 46.251-6.997 68.651z" />
<glyph unicode="&#xe924;" glyph-name="education" d="M531.204 746.667l364.796-227.363-364.796-227.363-326.414 203.43v-227.656c11.458-6.569 19.204-18.633 19.204-32.627 0-13.236-6.904-24.861-17.348-31.626v0l36.551-63.105h-115.198l36.551 63.105c-10.443 6.765-17.372 18.389-17.372 31.626 0 13.993 7.771 26.058 19.204 32.627v0 251.589l364.821 227.363zM281.607 402.709l249.599-155.588 249.599 155.564v-106.746l-249.599-155.588-249.599 155.588v106.77z" />
<glyph unicode="&#xe925;" glyph-name="email" d="M853.333 535.827v-285.92c0-8.386-7.699-15.241-17.070-15.241v0h-648.549c-9.371 0-17.048 6.854-17.048 15.241v0 285.92l341.333-152.387 341.333 152.387zM836.263 661.333c9.371 0 17.070-6.874 17.070-15.241v0-42.128l-341.333-152.368-341.333 152.368v42.128c0 8.367 7.677 15.241 17.048 15.241v0z" />
<glyph unicode="&#xe926;" glyph-name="eye-Closed" d="M231.96 746.667l614.383-627.214-54.294-55.453-134.102 136.902c-46.796-19.933-95.621-30.771-145.931-30.771-145.337 0-278.745 88.169-384.017 235.202 49.939 69.702 106.237 125.913 167.064 166.031v0l-117.398 119.849 54.294 55.453zM379.821 484.837c-13.512-23.293-21.406-50.426-21.406-79.504 0-86.603 68.746-156.81 153.602-156.81 28.459 0 54.987 8.11 77.828 21.929v0l-58.229 59.445c-6.286-1.743-12.794-2.981-19.599-2.981-42.416 0-76.813 35.192-76.813 78.417 0 6.973 1.188 13.642 2.846 20.059v0zM512.007 640.535c145.337 0 278.77-88.169 383.993-235.202-36.749-51.335-76.987-95.293-119.897-131.041v0l-111.483 113.811c0.619 5.659 0.99 11.419 0.99 17.23 0 86.603-68.771 156.81-153.602 156.81-5.692 0-11.334-0.379-16.877-1.011v0l-67.731 69.171c27.642 6.644 55.878 10.232 84.609 10.232z" />
<glyph unicode="&#xe927;" glyph-name="eye" d="M511.988 661.333c145.335 0 278.767-87.964 384.012-234.654-105.246-146.69-238.678-234.679-384.012-234.679-145.31 0-278.717 87.989-383.988 234.679 105.271 146.69 238.678 234.654 383.988 234.654zM511.988 583.124c-84.83 0-153.6-70.043-153.6-156.444s68.77-156.444 153.6-156.444c84.83 0 153.6 70.043 153.6 156.444s-68.77 156.444-153.6 156.444zM511.988 504.904c42.366 0 76.812-35.034 76.812-78.235 0-43.125-34.447-78.21-76.812-78.21-42.415 0-76.788 35.085-76.788 78.21 0 43.201 34.373 78.235 76.788 78.235z" />
<glyph unicode="&#xe928;" glyph-name="facebook" d="M658.603 568.277h-108.075v70.869c0 26.581 17.664 32.811 30.080 32.811h76.203v116.992l-105.003 0.384c-116.523 0-143.019-87.253-143.019-143.061v-77.995h-67.456v-120.491h67.456v-341.12h141.739v341.12h95.659l12.416 120.491z" />
<glyph unicode="&#xe929;" glyph-name="filters" d="M436.154 334.217c49.541 0 91.555-31.676 107.148-75.867v0h291.065c10.412 0 18.966-8.53 18.966-18.942v0-37.933c0-10.437-8.554-18.967-18.966-18.967v0h-291.065c-15.593-44.166-57.607-75.842-107.148-75.842-49.566 0-91.555 31.676-107.197 75.842v0h-139.312c-10.436 0-18.966 8.53-18.966 18.967v0 37.933c0 10.412 8.53 18.942 18.966 18.942v0h139.312c15.642 44.19 57.631 75.867 107.197 75.867zM436.154 277.317c-31.431 0-56.898-25.468-56.898-56.875 0-31.432 25.467-56.9 56.898-56.9 31.406 0 56.898 25.468 56.898 56.9 0 31.407-25.492 56.875-56.898 56.875zM663.698 561.756c49.566 0 91.555-31.652 107.173-75.842v0h63.497c10.412 0 18.966-8.53 18.966-18.942v0-37.933c0-10.437-8.554-18.967-18.966-18.967v0h-63.497c-15.618-44.166-57.607-75.867-107.173-75.867-49.541 0-91.555 31.701-107.173 75.867v0h-366.88c-10.436 0-18.966 8.53-18.966 18.967v0 37.933c0 10.412 8.53 18.942 18.966 18.942v0h366.88c15.618 44.19 57.631 75.842 107.173 75.842zM663.698 504.88c-31.431 0-56.898-25.468-56.898-56.875 0-31.432 25.467-56.9 56.898-56.9 31.406 0 56.898 25.468 56.898 56.9 0 31.407-25.492 56.875-56.898 56.875zM360.302 789.333c49.541 0 91.555-31.676 107.173-75.867v0h366.88c10.436 0 18.966-8.53 18.966-18.942v0-37.933c0-10.437-8.53-18.967-18.966-18.967v0h-366.88c-15.618-44.19-57.631-75.867-107.173-75.867-49.566 0-91.555 31.676-107.173 75.867v0h-63.497c-10.412 0-18.966 8.53-18.966 18.967v0 37.933c0 10.412 8.554 18.942 18.966 18.942v0h63.497c15.618 44.19 57.607 75.867 107.173 75.867zM360.302 732.433c-31.431 0-56.898-25.468-56.898-56.875 0-31.432 25.467-56.9 56.898-56.9 31.406 0 56.898 25.468 56.898 56.9 0 31.407-25.492 56.875-56.898 56.875z" />
<glyph unicode="&#xe92a;" glyph-name="call" horiz-adv-x="1138" d="M1042.062-64c-123.255 0-245.026 25.839-365.323 77.511-120.293 51.672-229.742 124.917-328.344 219.733s-174.772 200.059-228.51 315.733c-53.738 115.674-80.607 232.771-80.607 351.289 0 17.067 5.916 31.289 17.748 42.667s26.623 17.067 44.371 17.067h239.603c13.804 0 26.13-4.504 36.976-13.511s17.256-19.674 19.227-32l38.455-199.111c1.972-15.171 1.479-27.971-1.479-38.4s-8.381-19.437-16.269-27.022l-143.466-139.378c19.721-35.082 43.138-68.978 70.254-101.689s56.942-64.239 89.481-94.578c30.566-29.394 62.612-56.65 96.137-81.778s69.020-48.117 106.493-68.978l139.025 133.689c8.875 8.533 20.463 14.933 34.759 19.2s28.348 5.45 42.149 3.556l204.106-39.822c13.807-3.794 25.145-10.667 34.020-20.622s13.312-21.094 13.312-33.422v-230.4c0-17.067-5.916-31.289-17.749-42.667s-26.624-17.067-44.368-17.067zM218.241 618.667l97.616 93.867-25.143 133.689h-131.634c4.931-38.874 11.832-77.274 20.706-115.2s21.693-75.378 38.455-112.356zM747.73 109.511c38.457-16.117 77.653-28.917 117.584-38.4 39.936-9.483 80.117-15.644 120.542-18.489v125.156l-139.025 27.022-99.1-95.289z" />
<glyph unicode="&#xe92b;" glyph-name="resource-pdf" d="M360.019 422.669h50.66v101.318h50.66c14.353 0 26.385 4.856 36.094 14.564 9.71 9.71 14.566 21.742 14.566 36.096v50.658c0 14.354-4.856 26.386-14.566 36.096s-21.742 14.564-36.094 14.564h-101.32v-253.296zM410.679 574.647v50.658h50.66v-50.658h-50.66zM562.657 422.669h101.32c14.353 0 26.385 4.854 36.094 14.564s14.564 21.742 14.564 36.094v151.978c0 14.354-4.854 26.386-14.564 36.096s-21.742 14.564-36.094 14.564h-101.32v-253.296zM613.317 473.327v151.978h50.66v-151.978h-50.66zM765.295 422.669h50.66v101.318h50.66v50.66h-50.66v50.658h50.66v50.66h-101.32v-253.296zM309.36 144.042c-27.863 0-51.715 9.92-71.556 29.762-19.842 19.841-29.764 43.693-29.764 71.556v607.914c0 27.863 9.921 51.715 29.764 71.556 19.841 19.842 43.693 29.762 71.556 29.762h607.912c27.863 0 51.715-9.921 71.556-29.762 19.842-19.842 29.764-43.694 29.764-71.556v-607.914c0-27.863-9.921-51.715-29.764-71.556-19.841-19.842-43.693-29.762-71.556-29.762h-607.912zM309.36 245.36h607.912v607.914h-607.912v-607.914zM106.722-58.596c-27.863 0-51.715 9.921-71.556 29.762-19.842 19.842-29.762 43.693-29.762 71.556v709.232h101.319v-709.232h709.232v-101.318h-709.232z" />
<glyph unicode="&#xe92c;" glyph-name="flickr" d="M322.091 618.667c83.584 0 151.424-67.797 151.424-151.381s-67.84-151.381-151.424-151.381c-83.627 0-151.424 67.797-151.424 151.381s67.797 151.381 151.424 151.381zM701.926 618.667c83.627 0 151.424-67.797 151.424-151.381s-67.797-151.381-151.424-151.381c-83.584 0-151.381 67.797-151.381 151.381s67.797 151.381 151.381 151.381z" />
<glyph unicode="&#xe92d;" glyph-name="folder" d="M128 168.003c0-10.249 8.661-18.67 19.203-18.67h729.594c10.542 0 19.203 8.421 19.203 18.67v448c0 10.249-8.661 18.646-19.203 18.646h-403.191l-115.194 112.018h-211.209c-10.542 0-19.203-8.397-19.203-18.67v-559.994z" />
<glyph unicode="&#xe92e;" glyph-name="forward" d="M790.853 744.694h-118.853c-10.902 0-19.813-8.966-19.813-19.88v-241.813l-368.867 262.154c-2.323 0.974-4.851 1.511-7.507 1.511-10.953 0-19.813-8.89-19.813-19.88v-600.24c0-10.965 8.86-19.88 19.813-19.88 2.655 0 5.183 0.564 7.507 1.537l368.867 262.128v-241.813c0-10.913 8.911-19.88 19.813-19.88h118.853c10.877 0 19.813 8.966 19.813 19.88v596.295c0 10.913-8.936 19.88-19.813 19.88z" />
<glyph unicode="&#xe92f;" glyph-name="play-outline" d="M254.484-2.667v901.333l708.182-450.667-708.182-450.667zM383.233 232.316l338 215.684-338 215.684v-431.35z" />
<glyph unicode="&#xe930;" glyph-name="gauge" d="M533.333 746.667c108.275 0 210.072-41.632 286.635-117.214 76.563-75.556 118.698-176.066 118.698-282.969 0-87.75-28.812-170.936-81.317-239.816v0l-57.938 57.151c37.694 53.232 58.2 116.338 58.2 182.666 0 85.507-33.723 165.91-94.979 226.386-61.23 60.45-142.652 93.756-229.298 93.756-86.594 0-168.068-33.306-229.298-93.756-61.23-60.476-94.953-140.879-94.953-226.386 0-66.328 20.48-129.433 58.147-182.691v0l-57.886-57.125c-52.531 68.854-81.344 152.067-81.344 239.816 0 106.903 42.161 207.413 118.724 282.969 76.537 75.582 178.334 117.214 286.609 117.214zM644.816 437.184c0 0-42.056-191.843-58.826-220.534s-53.968-38.513-83.041-21.937c-29.074 16.55-39.026 53.258-22.256 81.949 16.796 28.691 164.124 160.522 164.124 160.522zM290.146 386.659c22.386 0 40.515-17.916 40.515-40.008 0-22.066-18.129-40.008-40.515-40.008s-40.541 17.942-40.541 40.008c0 22.092 18.155 40.008 40.541 40.008zM776.559 386.666c22.36 0 40.515-17.916 40.515-40.008 0-22.066-18.155-40.008-40.515-40.008-22.413 0-40.541 17.942-40.541 40.008 0 22.092 18.129 40.008 40.541 40.008zM332.696 544.641c15.83 15.622 41.508 15.622 57.338 0 15.83-15.596 15.804-40.936 0-56.558-15.83-15.622-41.508-15.622-57.338 0-15.804 15.622-15.804 40.962 0 56.558zM676.667 544.652c15.83 15.622 41.482 15.622 57.311 0 15.804-15.596 15.83-40.936 0-56.558s-41.508-15.622-57.311 0c-15.83 15.622-15.83 40.936 0 56.558zM533.336 626.663c22.36 0 40.541-17.916 40.541-40.008s-18.181-39.982-40.541-39.982c-22.386 0-40.541 17.89-40.541 39.982s18.155 40.008 40.541 40.008z" />
<glyph unicode="&#xe931;" glyph-name="grid-2x2" d="M449.636 410.078c13.443 0 24.441-10.998 24.441-24.441v0-254.53c0-13.443-10.998-24.441-24.441-24.441v0h-254.529c-13.443 0-24.441 10.998-24.441 24.441v0 254.53c0 13.443 10.998 24.441 24.441 24.441v0zM828.892 410.078c13.443 0 24.441-10.998 24.441-24.441v0-254.53c0-13.443-10.998-24.441-24.441-24.441v0h-254.529c-13.443 0-24.441 10.998-24.441 24.441v0 254.53c0 13.443 10.998 24.441 24.441 24.441v0zM449.636 789.333c13.443 0 24.441-10.998 24.441-24.441v0-254.53c0-13.443-10.998-24.441-24.441-24.441v0h-254.529c-13.443 0-24.441 10.998-24.441 24.441v0 254.53c0 13.443 10.998 24.441 24.441 24.441v0zM828.892 789.333c13.443 0 24.441-10.998 24.441-24.441v0-254.53c0-13.443-10.998-24.441-24.441-24.441v0h-254.529c-13.443 0-24.441 10.998-24.441 24.441v0 254.53c0 13.443 10.998 24.441 24.441 24.441v0z" />
<glyph unicode="&#xe932;" glyph-name="grid-3x3" d="M303.406 258.372c10.412 0 18.966-8.53 18.966-18.966v0-113.773c0-10.436-8.554-18.966-18.966-18.966v0h-113.773c-10.436 0-18.966 8.53-18.966 18.966v0 113.773c0 10.436 8.53 18.966 18.966 18.966v0zM834.367 258.372c10.412 0 18.966-8.53 18.966-18.966v0-113.773c0-10.436-8.554-18.966-18.966-18.966v0h-113.773c-10.436 0-18.966 8.53-18.966 18.966v0 113.773c0 10.436 8.53 18.966 18.966 18.966v0zM568.882 258.372c10.436 0 18.966-8.53 18.966-18.966v0-113.773c0-10.436-8.53-18.966-18.966-18.966v0h-113.773c-10.412 0-18.966 8.53-18.966 18.966v0 113.773c0 10.436 8.554 18.966 18.966 18.966v0zM303.406 523.845c10.412 0 18.966-8.53 18.966-18.966v0-113.773c0-10.412-8.554-18.966-18.966-18.966v0h-113.773c-10.436 0-18.966 8.554-18.966 18.966v0 113.773c0 10.436 8.53 18.966 18.966 18.966v0zM834.367 523.845c10.412 0 18.966-8.53 18.966-18.966v0-113.773c0-10.412-8.554-18.966-18.966-18.966v0h-113.773c-10.436 0-18.966 8.554-18.966 18.966v0 113.773c0 10.436 8.53 18.966 18.966 18.966v0zM568.882 523.845c10.436 0 18.966-8.53 18.966-18.966v0-113.773c0-10.412-8.53-18.966-18.966-18.966v0h-113.773c-10.412 0-18.966 8.554-18.966 18.966v0 113.773c0 10.436 8.554 18.966 18.966 18.966v0zM303.406 789.331c10.412 0 18.966-8.53 18.966-18.966v0-113.773c0-10.436-8.554-18.966-18.966-18.966v0h-113.773c-10.436 0-18.966 8.53-18.966 18.966v0 113.773c0 10.436 8.53 18.966 18.966 18.966v0zM834.362 789.333c10.436 0 18.966-8.554 18.966-18.966v0-113.773c0-10.436-8.53-18.966-18.966-18.966v0h-113.773c-10.436 0-18.966 8.53-18.966 18.966v0 113.773c0 10.412 8.53 18.966 18.966 18.966v0zM568.882 789.331c10.436 0 18.966-8.53 18.966-18.966v0-113.773c0-10.436-8.53-18.966-18.966-18.966v0h-113.773c-10.412 0-18.966 8.53-18.966 18.966v0 113.773c0 10.436 8.554 18.966 18.966 18.966v0z" />
<glyph unicode="&#xe933;" glyph-name="headphones" d="M322.385 334.236c41.721 0 75.841-34.144 75.841-75.865v0-75.84c0-41.721-34.12-75.865-75.841-75.865v0h-18.966c-10.412 0-18.966 8.554-18.966 18.966v0 189.637c0 10.412 8.554 18.966 18.966 18.966v0zM720.596 334.236c10.436 0 18.966-8.554 18.966-18.966v-189.637c0-10.412-8.53-18.966-18.966-18.966h-18.966c-41.721 0-75.841 34.144-75.841 75.865v75.84c0 41.721 34.12 75.865 75.841 75.865h18.966zM512.012 789.333c188.197 0 341.321-153.122 341.321-341.317v0-322.376c0-10.436-8.53-18.966-18.966-18.966v0h-37.908c-10.436 0-18.966 8.53-18.966 18.966v0 322.376c0 146.377-119.102 265.453-265.48 265.453-146.403 0-265.48-119.076-265.48-265.453v0-322.376c0-10.436-8.53-18.966-18.966-18.966v0h-37.933c-10.412 0-18.966 8.53-18.966 18.966v0 322.376c0 188.195 153.124 341.317 341.346 341.317z" />
<glyph unicode="&#xe934;" glyph-name="heart" d="M797.792 428.715c74.055 72.708 74.055 190.721 0 263.454-74.007 72.684-194.133 72.66-268.139-0.048-6.526-6.376-12.269-13.257-17.622-20.306-5.377 7.074-11.145 13.931-17.671 20.355-74.007 72.684-194.133 72.66-268.139-0.048-74.080-72.757-74.055-190.697-0.024-263.382l284.466-279.405 287.13 279.381z" />
<glyph unicode="&#xe935;" glyph-name="history" d="M511.988 789.333c94.123 0 179.472-38.276 241.259-100.090 61.812-61.79 100.087-147.166 100.087-241.243 0-188.228-153.1-341.333-341.346-341.333-92.73 0-178.616 37.787-241.137 100.188v0l53.575 53.577c48.638-48.517 115.436-77.921 187.562-77.921 146.403 0 265.505 119.106 265.505 265.49 0 73.204-29.794 139.564-77.87 187.642-48.076 48.053-114.434 77.848-187.635 77.848-80.998 0-156.008-36.908-205.648-97.744v0l91.899-91.902h-227.572v227.556l81.731-81.71c63.816 74.695 158.086 119.644 259.59 119.644zM511.995 637.639v-151.712h75.865v-75.868h-151.706v227.58h75.841z" />
<glyph unicode="&#xe936;" glyph-name="home-narrow" d="M512 746.667l-298.667-298.667h74.655v-298.667h149.333v112.018c0 41.237 33.442 74.655 74.679 74.655s74.679-33.418 74.679-74.655v-112.018h149.309v298.667h74.679l-298.667 298.667z" />
<glyph unicode="&#xe937;" glyph-name="home-wide" d="M819.188 448v111.994h-115.194l-192.006 186.673-383.988-373.345h76.788v-223.988h230.412v186.673h153.575v-186.673h230.412v223.988h76.812z" />
<glyph unicode="&#xe938;" glyph-name="image" d="M838.389 746.667c31.775 0 57.611-25.117 57.611-56.009v0-485.315c0-30.892-25.836-56.009-57.611-56.009v0h-652.802c-31.75 0-57.586 25.117-57.586 56.009v0 485.315c0 30.892 25.836 56.009 57.586 56.009v0zM819.185 671.988h-614.395v-447.976l178.426 173.464c7.449 7.242 19.699 7.242 27.148 0v0l63.229-61.47 345.593 335.982zM350.919 586.656c33.593 0 60.812-26.834 60.812-59.984s-27.219-60.010-60.812-60.010c-33.593 0-60.812 26.86-60.812 60.010s27.219 59.984 60.812 59.984z" />
<glyph unicode="&#xe939;" glyph-name="instagram" d="M552.080 789.306c57.183-0.127 70.297-0.625 100.626-2.012 36.352-1.664 61.141-7.424 82.859-15.872 22.443-8.747 41.472-20.395 60.459-39.381s30.635-37.973 39.381-60.459c8.448-21.717 14.208-46.507 15.872-82.859 0.347-7.582 0.638-14.089 0.881-20.476l0.27-7.67c0.58-18.050 0.813-38.175 0.877-81.395v-62.333c-0.060-40.121-0.265-60.348-0.758-77.491l-0.249-7.755c-0.27-7.658-0.606-15.21-1.022-24.309-1.664-36.352-7.424-61.184-15.872-82.859-8.747-22.485-20.395-41.472-39.381-60.459s-38.016-30.677-60.459-39.381c-21.717-8.448-46.507-14.208-82.859-15.872-31.845-1.456-44.711-1.932-109.542-2.028h-62.346c-40.134 0.060-60.355 0.265-77.501 0.758l-7.756 0.249c-7.661 0.27-15.218 0.606-24.327 1.022-36.309 1.664-61.141 7.424-82.816 15.872-22.443 8.704-41.515 20.395-60.459 39.381-18.987 18.987-30.677 37.973-39.381 60.459-8.448 21.675-14.208 46.507-15.872 82.859-1.387 30.329-1.884 43.473-2.012 100.641v80.162c0.127 57.183 0.625 70.297 2.012 100.626 1.664 36.352 7.424 61.141 15.872 82.859 8.704 22.485 20.395 41.472 39.381 60.459 18.944 18.987 38.016 30.635 60.459 39.381 21.675 8.448 46.507 14.208 82.816 15.872 30.364 1.387 43.484 1.884 100.669 2.012zM533.163 727.851h-42.343c-49.049-0.044-70.151-0.265-89.077-0.873l-7.515-0.264c-6.268-0.238-12.676-0.522-20.178-0.86-33.28-1.536-51.328-7.083-63.36-11.776-15.957-6.187-27.307-13.568-39.253-25.515s-19.371-23.296-25.557-39.253c-4.651-12.032-10.197-30.080-11.733-63.36-0.277-6.002-0.518-11.303-0.726-16.393l-0.416-11.3c-0.61-18.926-0.815-40.028-0.855-89.077v-42.343c0.040-49.049 0.245-70.151 0.855-89.077l0.266-7.515c0.241-6.268 0.53-12.676 0.877-20.178 1.536-33.28 7.083-51.371 11.733-63.36 6.187-15.957 13.611-27.307 25.557-39.253s23.296-19.328 39.253-25.515c12.032-4.693 30.080-10.24 63.36-11.776 31.509-1.419 43.713-1.89 107.325-1.986h61.232c63.612 0.096 75.816 0.567 107.325 1.986 33.237 1.536 51.328 7.083 63.36 11.776 15.957 6.187 27.307 13.568 39.253 25.515s19.328 23.296 25.557 39.253c4.651 11.989 10.197 30.080 11.733 63.36 1.351 30.009 1.813 42.507 1.93 98.58v78.723c-0.117 56.073-0.579 68.571-1.93 98.58-1.536 33.28-7.083 51.328-11.733 63.36-6.229 15.957-13.611 27.307-25.557 39.253s-23.296 19.328-39.253 25.515c-12.032 4.693-30.123 10.24-63.36 11.776-7.502 0.338-13.91 0.622-20.178 0.86l-7.515 0.264c-18.926 0.608-40.028 0.829-89.077 0.873zM511.983 623.258c96.811 0 175.275-78.421 175.275-175.232 0-96.853-78.464-175.275-175.275-175.275s-175.275 78.421-175.275 175.275c0 96.811 78.464 175.232 175.275 175.232zM511.983 561.775c-62.848 0-113.792-50.944-113.792-113.749 0-62.848 50.944-113.792 113.792-113.792s113.792 50.944 113.792 113.792c0 62.805-50.944 113.749-113.792 113.749zM694.191 671.172c22.613 0 40.96-18.347 40.96-40.96s-18.347-40.96-40.96-40.96c-22.613 0-40.96 18.347-40.96 40.96s18.347 40.96 40.96 40.96z" />
<glyph unicode="&#xe93a;" glyph-name="info" d="M469.333 234.667h85.333v256h-85.333v-256zM512 576c12.087 0 22.221 4.089 30.4 12.267s12.267 18.311 12.267 30.4c0 12.089-4.087 22.222-12.267 30.4s-18.313 12.267-30.4 12.267c-12.087 0-22.221-4.089-30.4-12.267s-12.267-18.311-12.267-30.4c0-12.089 4.087-22.222 12.267-30.4s18.313-12.267 30.4-12.267zM512 21.333c-59.021 0-114.489 11.2-166.4 33.6s-97.067 52.8-135.467 91.2c-38.4 38.4-68.8 83.554-91.2 135.467s-33.6 107.379-33.6 166.4c0 59.021 11.2 114.489 33.6 166.4s52.8 97.067 91.2 135.467c38.4 38.4 83.555 68.8 135.467 91.2s107.379 33.6 166.4 33.6c59.021 0 114.487-11.2 166.4-33.6s97.067-52.8 135.467-91.2c38.4-38.4 68.8-83.555 91.2-135.467s33.6-107.379 33.6-166.4c0-59.021-11.2-114.487-33.6-166.4s-52.8-97.067-91.2-135.467c-38.4-38.4-83.554-68.8-135.467-91.2s-107.379-33.6-166.4-33.6zM512 106.667c95.287 0 176 33.067 242.133 99.2s99.2 146.846 99.2 242.133c0 95.289-33.067 176-99.2 242.133s-146.846 99.2-242.133 99.2c-95.289 0-176-33.067-242.133-99.2s-99.2-146.845-99.2-242.133c0-95.287 33.067-176 99.2-242.133s146.845-99.2 242.133-99.2z" />
<glyph unicode="&#xe93b;" glyph-name="link-away" d="M853.333 481.187l-303.413 265.48v-155.275c-379.254-91.092-379.254-527.392-379.254-527.392s132.007 306.688 379.254 306.688v-154.982l303.413 265.48z" />
<glyph unicode="&#xe93c;" glyph-name="link" d="M389.64 513.228l57.487-57.507-186.812-186.936 114.947-115.039 186.786 186.936 57.487-57.507-201.164-201.326c-11.497-11.507-26.792-17.85-43.109-17.85-16.29 0-31.611 6.343-43.109 17.85v0l-143.678 143.793c-11.497 11.507-17.809 26.84-17.809 43.143s6.312 31.637 17.809 43.143v0l201.164 201.299zM626.517 577.733l57.461-57.507-243.854-244.049-57.461 57.533 243.854 244.023zM648.27 772.073c22.995 23.013 63.222 23.013 86.217 0v0l143.678-143.793c11.497-11.507 17.835-26.814 17.835-43.143s-6.338-31.637-17.835-43.143v0l-201.19-201.299-57.434 57.507 186.786 186.936-114.947 115.039-186.786-186.962-57.461 57.533z" />
<glyph unicode="&#xe93d;" glyph-name="linkedin" d="M325.645 577.011v-440.192h-146.389v440.192h146.389zM684.813 587.354c96.256 0 168.491-62.891 168.491-198.144v0-252.373h-146.304v235.52c0 59.136-21.205 99.584-74.197 99.584-40.363 0-64.469-27.349-75.093-53.589-3.84-9.429-4.821-22.443-4.821-35.669v0-245.845h-146.304l0.019 4.145c0.004 0.903 0.009 1.947 0.014 3.127l0.038 8.654c0.14 32.243 0.454 108.981 0.633 188.697l0.051 25.224 0.040 25.132c0.006 4.165 0.011 8.314 0.015 12.44l-0.009 81.351c-0.079 45.787-0.314 80.693-0.802 91.42v0h146.304v-62.336c19.499 30.037 54.272 72.661 131.925 72.661zM253.397 789.333c50.091 0 80.896-32.896 81.835-76.117 0-42.197-31.744-76.075-82.773-76.075v0h-0.981c-49.067 0-80.811 33.877-80.811 76.075 0 43.221 32.725 76.117 82.731 76.117z" />
<glyph unicode="&#xe93e;" glyph-name="lock" d="M399.989 524.8v115.194c0 63.524 50.237 115.194 111.998 115.194s112.023-51.67 112.023-115.194v-115.194h-224.021zM511.988 275.209c-30.917 0-55.987 25.786-55.987 57.585 0 31.824 25.070 57.609 55.987 57.609 30.941 0 56.011-25.786 56.011-57.609 0-31.799-25.070-57.585-56.011-57.585v0zM791.996 524.8h-93.328v115.194c0 105.864-83.752 192.006-186.68 192.006s-186.68-86.142-186.68-192.006v-115.194h-93.304c-10.274 0-18.67-8.661-18.67-19.203v-134.397c0-169.66 133.7-307.2 298.655-307.2s298.679 137.54 298.679 307.2v134.397c0 10.542-8.397 19.203-18.67 19.203v0z" />
<glyph unicode="&#xe93f;" glyph-name="microphone-mute" d="M226.094 779.602l627.239-648.53-55.428-57.338-121.896 126.039c-35.874-27.82-78.443-46.68-124.801-53.602v0-43.78l78.392-81.056h-235.202l78.392 81.056v43.78c-132.759 19.774-235.202 137.846-235.202 280.498v0h78.417c0-111.75 87.917-202.68 195.993-202.68 39.891 0 76.952 12.486 107.925 33.75v0l-57.424 59.375c-15.335-7.628-32.413-12.042-50.501-12.042-64.674 0-117.601 54.726-117.601 121.598v0 64.286l-223.732 231.31 55.428 57.338zM786.416 426.671c0-41.194-8.716-80.247-24.051-115.59v0l-61.213 63.294c4.32 16.718 6.846 34.194 6.846 52.296v0zM512.003 832c64.674 0 117.601-54.699 117.601-121.598v0-262.030l-235.202 243.196v18.834c0 66.898 52.927 121.598 117.601 121.598z" />
<glyph unicode="&#xe940;" glyph-name="microphone-on" d="M298.655 448.004c0-117.632 95.715-213.349 213.345-213.349s213.345 95.717 213.345 213.349v0h85.322c0-150.161-111.498-274.447-255.992-295.263v0-46.085l85.322-85.323h-255.992l85.322 85.323v46.085c-144.466 20.815-255.992 145.102-255.992 295.263v0zM512.005 874.667c70.391 0 127.996-57.579 127.996-127.998v0-298.672c0-70.392-57.605-127.998-127.996-127.998s-127.996 57.606-127.996 127.998v0 298.672c0 70.42 57.605 127.998 127.996 127.998z" />
<glyph unicode="&#xe941;" glyph-name="more-horizontal" d="M341.333 448c0-46.928-38.384-85.333-85.347-85.333-46.935 0-85.32 38.405-85.32 85.333s38.384 85.333 85.32 85.333c46.963 0 85.347-38.405 85.347-85.333zM597.333 448c0-46.928-38.384-85.333-85.347-85.333-46.935 0-85.32 38.405-85.32 85.333s38.384 85.333 85.32 85.333c46.963 0 85.347-38.405 85.347-85.333zM853.333 448c0-46.928-38.384-85.333-85.347-85.333-46.935 0-85.32 38.405-85.32 85.333s38.384 85.333 85.32 85.333c46.963 0 85.347-38.405 85.347-85.333z" />
<glyph unicode="&#xe942;" glyph-name="more-vertical" d="M512 277.333c46.928 0 85.333-38.384 85.333-85.347 0-46.935-38.405-85.32-85.333-85.32s-85.333 38.384-85.333 85.32c0 46.963 38.405 85.347 85.333 85.347zM512 533.333c46.928 0 85.333-38.384 85.333-85.347 0-46.935-38.405-85.32-85.333-85.32s-85.333 38.384-85.333 85.32c0 46.963 38.405 85.347 85.333 85.347zM512 789.333c46.928 0 85.333-38.384 85.333-85.347 0-46.935-38.405-85.32-85.333-85.32s-85.333 38.384-85.333 85.32c0 46.963 38.405 85.347 85.333 85.347z" />
<glyph unicode="&#xe943;" glyph-name="delete" d="M298.667 64c-23.467 0-43.555 8.354-60.267 25.067s-25.067 36.8-25.067 60.267v554.667h-42.667v85.333h213.333v42.667h256v-42.667h213.333v-85.333h-42.667v-554.667c0-23.467-8.354-43.554-25.067-60.267s-36.8-25.067-60.267-25.067h-426.667zM725.333 704h-426.667v-554.667h426.667v554.667zM384 234.667h85.333v384h-85.333v-384zM554.667 234.667h85.333v384h-85.333v-384z" />
<glyph unicode="&#xe944;" glyph-name="pause" d="M392.889 746.667c10.737 0 19.559-8.421 19.559-18.67v-559.994c0-10.249-8.822-18.67-19.559-18.67h-117.33c-10.763 0-19.559 8.421-19.559 18.67v559.994c0 10.249 8.797 18.67 19.559 18.67h117.33zM748.441 746.667c10.763 0 19.559-8.421 19.559-18.67v-559.994c0-10.249-8.797-18.67-19.559-18.67h-117.33c-10.737 0-19.559 8.421-19.559 18.67v559.994c0 10.249 8.822 18.67 19.559 18.67h117.33z" />
<glyph unicode="&#xe945;" glyph-name="file" d="M256 21.333q-35.2 0-60.267 25.067t-25.067 60.267v682.667q0 35.2 25.067 60.267t60.267 25.067h341.333l256-256v-512q0-35.2-25.067-60.267t-60.267-25.067h-512zM554.667 576v213.333h-298.667v-682.667h512v469.333h-213.333zM256 789.333v0z" />
<glyph unicode="&#xe946;" glyph-name="phone" d="M809.364 334.85c-4.228 1.002-8.603 1.638-13.125 1.638-0.196 0-0.367-0.049-0.587-0.049-64.598 8.114-125.017 29.672-178.323 61.885l-82.636-84.469c-61.079 41.183-114.018 96.225-155.202 153.1v0l82.758 84.493c-32.238 53.306-53.722 114.678-61.861 179.276 0 0.22 0.098 0.855 0.098 1.051 0 4.522-0.66 9.141-1.662 13.369-5.939 25.15-28.401 44.19-55.408 44.19h-115.68c-31.040 0-56.215-24.832-56.948-55.726 0-0.44-0.122-0.904-0.122-1.369 0-3.324 0.415-6.526 0.953-9.679 11.927-124.381 56.875-238.595 125.823-334.209 43.016-59.612 95.394-111.941 155.006-154.908 95.712-68.997 209.95-113.847 333.964-125.799 3.202-0.562 6.477-0.978 9.825-0.978 0.464 0 0.929 0.122 1.418 0.147 30.869 0.758 55.677 25.883 55.677 56.924v115.68c0 26.983-18.795 49.493-43.97 55.433z" />
<glyph unicode="&#xe947;" glyph-name="pin" d="M497.223 423.016c-54.861 0-99.302 42.127-99.302 94.076s44.442 94.1 99.302 94.1c54.861 0 99.302-42.151 99.302-94.1s-44.442-94.076-99.302-94.076zM721.94 726.707c-124.109 121.942-325.325 121.942-449.408 0-124.134-121.942-124.134-319.698 0-441.616l224.691-219.608 224.717 219.608c124.109 121.918 124.109 319.674 0 441.616z" />
<glyph unicode="&#xe948;" glyph-name="pinterest" d="M536.235 789.333c-186.325 0-280.235-133.547-280.235-244.949 0-67.456 25.472-127.445 80.256-149.803 8.96-3.669 17.067-0.128 19.627 9.813 1.835 6.869 6.101 24.235 8.021 31.488 2.603 9.813 1.621 13.269-5.632 21.845-15.787 18.645-25.856 42.709-25.856 76.885 0 99.115 74.112 187.819 193.024 187.819 105.301 0 163.157-64.341 163.157-150.272 0-113.067-50.048-208.512-124.331-208.512-41.045 0-71.68 33.963-61.867 75.563 11.776 49.664 34.603 103.253 34.603 139.136 0 32.085-17.195 58.88-52.864 58.88-41.941 0-75.648-43.392-75.648-101.504 0-37.035 12.544-62.037 12.544-62.037s-42.923-181.845-50.475-213.675c-14.976-63.445-2.261-141.184-1.152-149.035 0.597-4.651 6.613-5.76 9.344-2.219 3.797 5.035 53.76 66.688 70.784 128.299 4.779 17.451 27.563 107.819 27.563 107.819 13.653-26.027 53.461-48.896 95.787-48.896 126.037 0 211.584 114.901 211.584 268.715 0 116.309-98.517 224.64-248.235 224.64z" />
<glyph unicode="&#xe949;" glyph-name="play" d="M762.713 460.983l-1.959 1.411-394.167 282.862c-2.148 0.909-4.461 1.411-6.939 1.411-10.101 0-18.315-8.297-18.315-18.555v-560.224c0-10.258 8.213-18.555 18.315-18.555 2.478 0 4.791 0.526 6.939 1.411l396.126 284.273c3.233 3.347 5.287 7.914 5.287 12.983s-2.053 9.636-5.287 12.983z" />
<glyph unicode="&#xe94a;" glyph-name="plus" d="M853.333 485.92h-303.413v303.413h-75.841v-303.413h-303.413v-75.865h303.413v-303.388h75.841v303.388h303.413z" />
<glyph unicode="&#xe94b;" glyph-name="printer" d="M701.627 258.373v-151.706h-379.254v151.706h379.254zM682.661 789.333c10.436 0 18.966-8.53 18.966-18.966v0-208.581h132.74c10.436 0 18.966-8.53 18.966-18.966v0-341.321c0-10.436-8.53-18.966-18.966-18.966v0h-94.807v94.807c0 10.412-8.554 18.942-18.966 18.942v0h-417.187c-10.412 0-18.966-8.53-18.966-18.942v0-94.807h-94.807c-10.436 0-18.966 8.53-18.966 18.966v0 341.321c0 10.436 8.53 18.966 18.966 18.966v0h132.74v208.581c0 10.436 8.53 18.966 18.966 18.966v0zM777.468 485.945h-75.865v-37.933h75.865v37.933zM663.694 751.401h-303.413v-189.615h303.413v189.615z" />
<glyph unicode="&#xe94c;" glyph-name="refresh" d="M398.215 329.48l-91.875-91.899c49.665-60.81 124.626-97.74 205.649-97.74 73.202 0 139.56 29.794 187.636 77.87 30.772 30.747 53.893 69.046 66.676 111.77v0h78.237c-14.518-63.669-46.634-120.739-91.288-165.393-61.788-61.836-147.136-100.087-241.26-100.087-101.505 0-195.775 44.972-259.615 119.615v0l-81.707-81.682v227.547h227.548zM511.987 746.667c101.529 0 195.799-44.972 259.64-119.64v0l81.707 81.707v-227.547h-227.548l91.875 91.899c-49.665 60.81-124.626 97.74-205.673 97.74-73.177 0-139.535-29.794-187.611-77.87-31.040-31.016-54.284-68.655-66.969-111.77v0h-78.017c14.469 63.865 46.634 120.666 91.361 165.393 61.788 61.812 147.136 100.087 241.235 100.087z" />
<glyph unicode="&#xe94d;" glyph-name="repeat" d="M853.333 490.657c0-164.677-119.103-298.668-265.482-298.668v0h-189.616v-85.322l-113.775 127.997 113.775 127.997v-85.322h189.616c104.56 0 189.64 95.688 189.64 213.319v0zM625.789 789.333l113.775-127.997-113.775-128.024v85.349h-189.64c-104.56 0-189.616-95.688-189.616-213.319v0h-75.866c0 164.677 119.103 298.668 265.482 298.668v0h189.64v85.322z" />
<glyph unicode="&#xe94e;" glyph-name="return" d="M646.401 661.335h-364.796v127.998l-153.605-170.646 153.605-170.674v127.998h364.796c95.301 0 172.809-86.12 172.809-192.011s-77.508-192.011-172.809-192.011h-364.796v-85.323h364.796c137.643 0 249.599 124.424 249.599 277.334 0 152.938-111.956 277.334-249.599 277.334z" />
<glyph unicode="&#xe950;" glyph-name="rotate-clockwise" d="M853.333 481.187h-227.547l91.874 91.899c-49.664 60.834-124.626 97.74-205.648 97.74-73.177 0-139.559-29.769-187.635-77.87-48.076-48.076-77.845-114.434-77.845-187.611 0-146.403 119.102-265.48 265.48-265.48 72.15 0 138.948 29.403 187.537 77.894l53.6-53.575c-62.521-62.349-148.407-100.184-241.137-100.184-188.246 0-341.346 153.124-341.346 341.346 0 94.099 38.299 179.447 100.087 241.234 61.812 61.812 147.136 100.087 241.259 100.087 101.504 0 195.774-44.972 259.614-119.64l81.707 81.731v-227.572z" />
<glyph unicode="&#xe951;" glyph-name="rotate-counter-clockwise" d="M170.667 523.853h227.547l-91.874 91.899c49.664 60.834 124.626 97.74 205.648 97.74 73.177 0 139.559-29.769 187.635-77.87 48.076-48.076 77.845-114.434 77.845-187.611 0-146.403-119.102-265.48-265.48-265.48-72.15 0-138.948 29.403-187.537 77.894l-53.6-53.575c62.521-62.349 148.407-100.184 241.137-100.184 188.246 0 341.346 153.124 341.346 341.346 0 94.099-38.299 179.447-100.087 241.234-61.812 61.812-147.136 100.087-241.259 100.087-101.504 0-195.774-44.972-259.614-119.64l-81.707 81.731v-227.572z" />
<glyph unicode="&#xe953;" glyph-name="search" d="M246.532 485.92c0 125.481 102.066 227.547 227.547 227.547s227.572-102.066 227.572-227.547c0-125.481-102.091-227.572-227.572-227.572s-227.547 102.091-227.547 227.572v0zM853.333 160.291l-139.877 139.877c39.986 51.375 64.036 115.753 64.036 185.753 0 167.3-136.113 303.413-303.413 303.413s-303.413-136.113-303.413-303.413c0-167.3 136.113-303.413 303.413-303.413 70 0 134.353 24.075 185.753 64.036l139.877-139.877 53.624 53.624z" />
<glyph unicode="&#xe954;" glyph-name="send" d="M896 448l-768 341.333 57.609-255.986 383.988-85.347-383.988-85.347-57.609-255.986z" />
<glyph unicode="&#xe955;" glyph-name="share" d="M698.668 163.541c-30.917 0-56.011 25.468-56.011 56.899 0 31.407 25.094 56.875 56.011 56.875s56.011-25.468 56.011-56.875c0-31.431-25.094-56.899-56.011-56.899zM325.332 391.113c-30.941 0-56.011 25.468-56.011 56.875s25.070 56.899 56.011 56.899c30.917 0 56.011-25.492 56.011-56.899s-25.094-56.875-56.011-56.875zM698.668 732.434c30.917 0 56.011-25.492 56.011-56.899s-25.094-56.875-56.011-56.875c-30.917 0-56.011 25.468-56.011 56.875s25.094 56.899 56.011 56.899zM698.668 334.214c-27.091 0-51.969-9.801-71.337-26.079l-192.238 117.171c1.468 7.332 2.238 14.934 2.238 22.681 0 7.772-0.77 15.349-2.238 22.681l192.238 117.171c19.368-16.278 44.246-26.079 71.337-26.079 61.858 0 111.998 50.935 111.998 113.774s-50.141 113.798-111.998 113.798c-61.858 0-111.998-50.96-111.998-113.798 0-7.748 0.77-15.349 2.238-22.681l-192.238-117.147c-19.368 16.278-44.246 26.054-71.337 26.054-61.858 0-111.998-50.935-111.998-113.774s50.141-113.774 111.998-113.774c27.091 0 51.969 9.801 71.337 26.079l192.238-117.171c-1.468-7.332-2.238-14.934-2.238-22.681 0-62.838 50.141-113.774 111.998-113.774s111.998 50.935 111.998 113.774c0 62.814-50.141 113.774-111.998 113.774z" />
<glyph unicode="&#xe957;" glyph-name="shuffle" d="M562.724 396.614l34.56-52.329c15.74-23.891 56.435-45.616 85.374-45.616v0h56.9v74.68l113.775-112.020-113.775-111.996v74.656h-56.9c-54.993 0-119.055 34.236-148.971 79.612v0l-16.205 24.516 45.241 68.497zM739.568 746.667l113.751-111.996-113.751-112.020v74.68h-56.9c-28.939 0-69.634-21.725-85.399-45.616v0l-163.832-248.123c-29.965-45.376-94.002-79.588-148.996-79.588v0h-113.775v74.656h113.775c28.939 0 69.634 21.75 85.399 45.616v0l163.832 248.123c29.941 45.376 94.002 79.612 148.996 79.612v0h56.9v74.656zM284.447 671.999c54.945 0 119.030-34.212 148.996-79.588v0l16.18-24.54-45.217-68.497-34.56 52.353c-15.789 23.867-56.484 45.616-85.399 45.616v0h-113.775v74.656z" />
<glyph unicode="&#xe959;" glyph-name="star" d="M512 789.333l94.811-265.48h246.523l-208.589-151.706 78.215-265.48-210.959 151.706-210.959-151.706 78.215 265.48-208.589 151.706h246.523z" />
<glyph unicode="&#xe95a;" glyph-name="stopwatch" d="M549.339 832l74.655-76.79h-74.655v-79.463c54.397-7.028 104.199-29.152 145.508-62.189v0l52.087 53.602 52.785-54.32-52.111-53.577c39.384-52.018 63.058-117.202 63.058-188.053 0-169.394-133.984-307.21-298.667-307.21s-298.667 137.816-298.667 307.21c0 156.352 114.231 285.531 261.327 304.537v0 79.463h-74.655l74.655 76.79h74.679zM512 601.605c-123.518 0-223.988-103.368-223.988-230.395 0-127.076 100.47-230.42 223.988-230.42s224.012 103.344 224.012 230.42c0 127.027-100.494 230.395-224.012 230.395zM549.323 524.798l0.013-87.068c22.315-13.285 37.331-38.107 37.331-66.53 0-42.416-33.442-76.815-74.679-76.815-41.213 0-74.655 34.398-74.655 76.815 0 28.405 14.997 53.213 37.281 66.505l0.029 87.093h74.679z" />
<glyph unicode="&#xe95b;" glyph-name="tick-circle" d="M511.988 746.667c188.197 0 341.346-153.124 341.346-341.321s-153.148-341.346-341.346-341.346c-188.197 0-341.321 153.148-341.321 341.346s153.124 341.321 341.321 341.321zM511.988 670.826c-146.378 0-265.48-119.102-265.48-265.48s119.102-265.48 265.48-265.48c146.403 0 265.48 119.102 265.48 265.48s-119.077 265.48-265.48 265.48zM598.942 508.013l53.648-53.624-178.518-178.518-102.677 102.653 53.648 53.624 49.029-49.029 124.87 124.894z" />
<glyph unicode="&#xe95c;" glyph-name="tick" d="M407.184 192l-236.517 242.247 53.893 55.137 182.625-187.035 392.257 401.651 53.893-55.187z" />
<glyph unicode="&#xe95d;" glyph-name="trolley" d="M417.794 258.374c41.994 0 76.049-33.973 76.049-75.866 0-41.868-34.055-75.842-76.049-75.842s-76.049 33.973-76.049 75.842c0 41.892 34.055 75.866 76.049 75.866zM702.921 258.374c41.994 0 76.049-33.973 76.049-75.866 0-41.868-34.055-75.842-76.049-75.842s-76.049 33.973-76.049 75.842c0 41.892 34.055 75.866 76.049 75.866zM265.728 789.333c27.146 0 52.798-18.747 60.981-44.557v0l9.996-31.285h475.526c14.431 0 27.514-7.161 35.011-19.113 7.448-12.001 8.11-26.861 1.74-39.791v0l-109.933-219.312c-7.399-14.983-23.888-25.199-40.867-25.199v0h-264.677l12.079-37.933h333.376v-75.842h-342.147c-27.171 0-52.823 18.747-61.006 44.557v0l-118.875 372.633h-86.266v75.842z" />
<glyph unicode="&#xe95f;" glyph-name="twitter" d="M853.333 681.003c-25.088-11.136-52.096-18.645-80.427-22.059 28.928 17.323 51.115 44.8 61.611 77.483-27.093-16.043-57.088-27.691-88.96-33.963-25.557 27.221-61.995 44.203-102.229 44.203-77.355 0-140.075-62.677-140.075-140.032 0-10.965 1.237-21.675 3.627-31.915-116.395 5.845-219.648 61.568-288.683 146.304-12.032-20.651-18.944-44.715-18.944-70.4 0-48.597 24.704-91.435 62.293-116.565-22.955 0.725-44.544 7.040-63.445 17.536v-1.792c0-67.84 48.299-124.459 112.299-137.301-11.691-3.243-24.064-4.949-36.864-4.949-9.045 0-17.792 0.896-26.325 2.517 17.792-55.637 69.547-96.128 130.773-97.237-47.915-37.589-108.245-59.947-173.909-59.947-11.264 0-22.4 0.64-33.408 1.92 61.995-39.723 135.595-62.891 214.699-62.891 257.621 0 398.507 213.419 398.507 398.464 0 6.101-0.128 12.117-0.427 18.133 27.392 19.755 51.157 44.416 69.888 72.491z" />
<glyph unicode="&#xe960;" glyph-name="unlock" d="M512 275.191c-30.916 0-56.009 25.786-56.009 57.611 0 31.8 25.093 57.586 56.009 57.586 30.94 0 56.009-25.786 56.009-57.586 0-31.825-25.069-57.611-56.009-57.611v0zM698.673 639.988c0 105.893-83.749 192.012-186.673 192.012s-186.649-86.12-186.649-192.012v-115.198h-93.348c-10.249 0-18.67-8.637-18.67-19.179v-134.426c0-169.666 133.743-307.185 298.667-307.185 164.948 0 298.667 137.519 298.667 307.185v134.426c0 10.542-8.421 19.179-18.67 19.179h-391.991v115.198c0 63.55 50.235 115.198 111.994 115.198s111.994-51.647 111.994-115.198h74.679z" />
<glyph unicode="&#xe961;" glyph-name="user" d="M830.456 206.85c-29.867 40.816-181.549 23.879-204.695 70.512-45.925 92.485-27.179 75.303 2.737 98.204 28.083 21.508 26.763 78.187 43.945 98.302 17.427 20.433 25.468 78.969 18.893 101.014-8.677 29.231-22.022 13.345-24.026 35.391-4.375 47.587 7.65 86.717-19.137 109.862-25.883 22.363-58.268 68.532-111.012 69.199-18.355 0.214-39.204-5.261-63.107-18.973-113.774 12.147-113.040-112.502-117.367-160.088-2.029-22.046-15.374-6.159-24.050-35.391-6.55-22.046 1.491-80.582 18.917-101.014 17.182-20.115 15.838-76.793 43.921-98.302 29.916-22.901 48.687-5.719 2.737-98.228-23.146-46.633-174.803-29.671-204.695-70.488-22.853-31.187-22.853-100.183-22.853-100.183h682.667c0 0 0 68.997-22.877 100.183z" />
<glyph unicode="&#xe962;" glyph-name="video-camera" d="M736.013 470.787v94.547c0 10.877-9.143 19.813-20.271 19.813h-104.827l-121.597 118.853h-280.236v-79.253h246.669l40.541-39.601h-348.022c-11.154 0-20.271-8.936-20.271-19.813v-396.187c0-10.902 9.117-19.813 20.271-19.813h567.472c11.128 0 20.271 8.911 20.271 19.813v94.547l202.654-114.36v435.813l-202.654-114.36z" />
<glyph unicode="&#xe963;" glyph-name="vimeo" d="M170.667 584.563l27.691-36.352c0 0 57.216 45.056 76.288 22.571 19.029-22.571 91.776-294.656 116.096-344.832 21.163-44.075 79.659-102.272 143.787-60.672 64.128 41.557 277.205 223.531 315.392 438.4 38.101 214.827-256.512 169.856-287.659-17.323 77.995 46.848 119.552-19.029 79.701-93.568-39.851-74.453-76.203-123.051-95.275-123.051-19.029 0-33.707 49.835-55.467 136.96-22.571 90.027-22.443 252.288-116.139 233.899-88.32-17.365-204.416-156.032-204.416-156.032z" />
<glyph unicode="&#xe964;" glyph-name="volume-high" d="M533.43 746.667v-640l-200.051 160h-40.015c-44.012 0-80.031 36.011-80.031 80.013v0 159.974c0 44.028 36.019 80.013 80.031 80.013v0h40.015l200.051 160zM759.741 652.953c124.79-124.762 124.79-327.785 0-452.573v0l-56.568 56.581c93.593 93.572 93.593 245.839 0 339.436v0zM634.907 568.107c77.968-78.002 77.968-204.878-0.026-282.881v0l-56.594 56.581c46.796 46.786 46.796 122.932 0 169.744v0z" />
<glyph unicode="&#xe965;" glyph-name="volume-low" d="M597.396 789.333v-682.667l-213.379 170.667h-42.681c-46.944 0-85.335 38.412-85.335 85.347v0 170.639c0 46.963 38.391 85.347 85.335 85.347v0h42.681l213.379 170.667zM705.631 598.87c83.163-83.202 83.163-218.537-0.027-301.739v0l-60.337 60.353c49.887 49.905 49.887 131.128-0.027 181.060v0z" />
<glyph unicode="&#xe966;" glyph-name="volume-off" d="M493.428 746.667v-640l-200.874 160h-40.326c-44.382 0-81.561 36.011-81.561 80.013v0 159.974c0 44.028 37.18 80.013 81.561 80.013v0h40.326l200.874 160zM838.957 584.947l57.043-56.556-102.595-101.717 102.595-101.717-57.043-56.556-102.595 101.717-102.595-101.717-57.069 56.556 102.621 101.717-102.621 101.717 57.069 56.556 102.595-101.717 102.595 101.717z" />
<glyph unicode="&#xe967;" glyph-name="close-circle" d="M270.521 646.797c133.157 133.157 349.811 133.157 482.951 0.017s133.157-349.811 0-482.968c-133.14-133.14-349.811-133.122-482.951 0.017s-133.14 349.794 0 482.934zM324.175 593.143c-103.555-103.555-103.555-272.072 0-375.626s272.072-103.555 375.626 0c103.572 103.572 103.555 272.072 0 375.626s-272.054 103.572-375.626 0zM458.329 512.653l53.671-53.671 53.671 53.671 53.654-53.654-53.671-53.671 53.671-53.671-53.654-53.654-53.671 53.671-53.671-53.671-53.654 53.654 53.671 53.671-53.671 53.671 53.654 53.654z" />
<glyph unicode="&#xe968;" glyph-name="close" d="M853.333 735.709l-53.624 53.624-287.697-287.697-287.697 287.697-53.648-53.624 287.722-287.697-287.722-287.697 53.648-53.648 287.697 287.697 287.697-287.697 53.624 53.648-287.697 287.697z" />
<glyph unicode="&#xe969;" glyph-name="youtube" d="M441.515 375.381v191.829l184.448-96.256-184.448-95.573zM846.507 600.405c0 0-6.656 47.019-27.136 67.755-25.941 27.221-55.040 27.349-68.395 28.928-95.531 6.912-238.848 6.912-238.848 6.912h-0.299c0 0-143.275 0-238.805-6.912-13.355-1.579-42.411-1.707-68.395-28.928-20.48-20.736-27.136-67.755-27.136-67.755s-6.827-55.253-6.827-110.464v-51.797c0-55.253 6.827-110.507 6.827-110.507s6.656-47.019 27.136-67.755c25.984-27.179 60.075-26.325 75.264-29.184 54.613-5.205 232.107-6.827 232.107-6.827s143.445 0.213 238.976 7.125c13.355 1.579 42.453 1.707 68.395 28.885 20.48 20.736 27.136 67.755 27.136 67.755s6.827 55.253 6.827 110.507v51.797c0 55.211-6.827 110.464-6.827 110.464v0z" />
<glyph unicode="&#xe96a;" glyph-name="youtube-logo" d="M728.619 471.296c68.864 0 124.715-55.893 124.715-124.757v0-100.267c0-68.821-55.851-124.715-124.715-124.715v0h-433.28c-68.864 0-124.672 55.893-124.672 124.715v0 100.267c0 68.864 55.808 124.757 124.672 124.757v0zM696.064 370.176c-15.488 0-28.032-4.736-37.803-14.123-9.813-9.429-14.677-21.717-14.677-36.651v0-77.611c0-16.683 4.523-29.739 13.355-39.168 8.875-9.557 21.077-14.251 36.523-14.251 17.195 0 30.165 4.437 38.741 13.312 8.747 9.003 13.056 22.4 13.056 40.107v0 8.875h-35.541v-7.893c0-10.155-1.195-16.683-3.413-19.712-2.304-2.987-6.315-4.48-12.032-4.48-5.504 0-9.429 1.749-11.733 5.248-2.219 3.541-3.371 9.856-3.371 18.944v0 32.555h66.091v44.075c0 16.384-4.267 28.928-12.757 37.675-8.448 8.704-20.608 13.099-36.437 13.099zM436.096 365.867h-34.56v-144.469c0-10.325 2.048-17.963 6.059-23.125 4.096-5.205 10.027-7.723 18.091-7.723 6.443 0 13.141 1.792 20.011 5.547 6.955 3.627 13.568 8.96 19.925 15.957v0-18.987h34.56v172.8h-34.56v-131.243c-3.243-3.755-6.784-6.827-10.709-9.301-3.883-2.432-7.125-3.584-9.6-3.584-3.2 0-5.589 0.853-7.083 2.773-1.408 1.792-2.133 4.736-2.133 8.832v0 132.523zM561.067 427.307h-34.944v-234.24h34.944v13.269c4.48-5.333 9.472-9.216 14.763-11.733 5.248-2.517 11.264-3.712 18.048-3.712 10.197 0 18.091 3.2 23.467 9.728 5.461 6.571 8.107 15.957 8.107 28.117v0 95.915c0 14.123-2.816 24.917-8.619 32.299-5.76 7.381-14.080 11.008-25.045 11.008-5.376 0-10.667-1.323-15.957-4.096-5.163-2.731-10.112-6.784-14.763-11.989v0 75.435zM386.389 427.307h-119.467v-34.048h40.235v-200.192h38.955v200.192h40.277v34.048zM575.505 340.535c4.608 0 8.235-1.493 10.752-4.48 2.475-3.029 3.627-7.424 3.627-13.312v0-89.216c0-5.547-1.024-9.429-2.944-11.904-2.005-2.475-5.12-3.712-9.344-3.712-2.944 0-5.675 0.683-8.32 1.877-2.688 1.195-5.419 3.371-8.235 6.101v0 107.691c2.389 2.389 4.693 4.181 7.125 5.291s4.864 1.664 7.339 1.664zM694.592 339.951c5.248 0 9.173-1.579 11.52-4.779 2.347-3.072 3.584-8.277 3.584-15.531v0-17.451h-30.507v17.451c0 7.253 1.152 12.459 3.584 15.531 2.389 3.2 6.315 4.779 11.819 4.779zM507.887 726.426c16.085 0 29.227-4.608 39.595-13.824 10.197-9.131 15.317-21.12 15.317-35.584v0-98.304c0-16.299-4.992-29.013-15.061-38.357-10.112-9.259-23.979-13.867-41.643-13.867-17.024 0-30.635 4.779-40.832 14.379-10.155 9.6-15.275 22.4-15.275 38.571v0 98.688c0 14.763 5.248 26.496 15.659 35.2 10.453 8.747 24.576 13.099 42.24 13.099zM633.156 721.6v-145.92c0-4.48 0.939-7.723 2.517-9.728 1.579-2.048 4.309-3.029 7.936-3.029 2.816 0 6.485 1.323 10.837 3.968 4.352 2.731 8.363 6.101 11.989 10.24v0 144.469h38.912v-190.336h-38.912v21.12c-7.125-7.765-14.592-13.739-22.4-17.749-7.723-4.011-15.232-6.144-22.528-6.144-9.045 0-15.744 2.901-20.352 8.619-4.523 5.589-6.827 14.080-6.827 25.429v0 159.061h38.827zM344.068 789.333l28.416-103.168h2.731l27.136 103.168h44.459l-50.987-150.997v-107.051h-43.733v102.229l-52.139 155.819h44.117zM505.967 693.444c-4.693 0-8.576-1.237-11.563-3.797-2.944-2.603-4.437-5.931-4.437-10.112v0-103.68c0-5.248 1.408-9.216 4.181-12.075 2.731-2.944 6.699-4.309 11.819-4.309 5.291 0 9.472 1.451 12.544 4.352 3.115 2.901 4.693 6.955 4.693 12.032v0 103.68c0 4.181-1.579 7.509-4.736 10.112-3.157 2.56-7.339 3.797-12.501 3.797z" />
</font>
</defs>
</svg>
