<svg xmlns="http://www.w3.org/2000/svg" class="bespoke-icons" fill="none" viewBox="0 0 120 120"><path fill="url(#a)" d="M42.078 17.923c23.239 0 42.077 18.839 42.077 42.077 0 23.24-18.838 42.078-42.077 42.078C18.838 102.078 0 83.239 0 60 0 36.762 18.84 17.923 42.078 17.923ZM21.255 38.962c-3.038 0-6.074 1.502-7.808 4.508-3.471 6.011.866 13.525 7.808 13.525h15.617L29.064 43.47c-1.738-3.006-4.773-4.508-7.809-4.508Zm20.823-12.023c-6.94 0-11.28 7.514-7.809 13.525l7.809 13.525 7.808-13.525a8.94 8.94 0 0 0 1.22-4.493c0-4.71-3.766-9.031-9.028-9.031Zm28.63 16.53c-3.468-6.01-12.145-6.01-15.616 0l-7.809 13.526H62.9c5.266 0 9.032-4.32 9.032-9.029a8.955 8.955 0 0 0-1.224-4.496ZM62.9 81.04c3.039 0 6.074-1.503 7.809-4.508 3.47-6.011-.866-13.525-7.809-13.525H47.283l7.809 13.525c1.737 3.005 4.773 4.508 7.808 4.508ZM42.078 93.061c6.94 0 11.28-7.514 7.808-13.525l-7.808-13.525-7.809 13.525a8.94 8.94 0 0 0-1.22 4.494c0 4.71 3.766 9.031 9.029 9.031Zm-28.631-16.53c3.468 6.01 12.145 6.01 15.617 0l7.808-13.525H21.255c-5.265 0-9.031 4.319-9.031 9.029 0 1.502.384 3.041 1.223 4.496Z"/><defs><linearGradient id="a" x1="42.08" x2="42.08" y1="17.923" y2="102.101" gradientUnits="userSpaceOnUse"><stop stop-color="#6250F2"/><stop offset="1" stop-color="#8272F5"/></linearGradient></defs></svg>