<svg xmlns="http://www.w3.org/2000/svg" class="bespoke-icons" fill="none" viewBox="0 0 120 120"><g clip-path="url(#a)"><path fill="url(#b)" d="M2.865 21.928h10.404a2.864 2.864 0 0 1 2.865 2.864V95.33a2.864 2.864 0 0 1-2.865 2.864H2.865A2.864 2.864 0 0 1 0 95.33V24.792a2.864 2.864 0 0 1 2.865-2.864Z"/><path fill="url(#c)" d="M32.267 27.794H52.8v5.867H32.267v-5.867Z"/><path fill="url(#d)" d="M32.267 39.528H52.8v5.866H32.267v-5.866Z"/><path fill="url(#e)" d="M32.267 51.261H52.8v5.867H32.267V51.26Z"/><path fill="url(#f)" d="M32.267 62.994H52.8v5.867H32.267v-5.867Z"/><path fill="url(#g)" d="M32.267 74.728H52.8v5.866H32.267v-5.866Z"/><path fill="url(#h)" d="M32.267 86.461H52.8v5.867H32.267V86.46Z"/><path fill="url(#i)" d="M22.465 21.928h3.47c1.067 0 1.932.864 1.932 1.931v72.404a1.932 1.932 0 0 1-1.932 1.931h-3.47a1.932 1.932 0 0 1-1.931-1.931V23.859c0-1.067.864-1.931 1.931-1.931Z"/><path fill="url(#j)" d="M71.798 21.928h10.404a2.864 2.864 0 0 1 2.865 2.864V95.33a2.864 2.864 0 0 1-2.864 2.864H71.797a2.864 2.864 0 0 1-2.864-2.864V24.792a2.864 2.864 0 0 1 2.864-2.864Z"/><path fill="url(#k)" d="M59.132 21.928h3.47c1.067 0 1.932.864 1.932 1.931v72.404a1.932 1.932 0 0 1-1.932 1.931h-3.47a1.932 1.932 0 0 1-1.932-1.931V23.859c0-1.067.865-1.931 1.932-1.931Z"/></g><defs><linearGradient id="b" x1="42.536" x2="42.536" y1="21.928" y2="98.215" gradientUnits="userSpaceOnUse">
<stop stop-color="#6250F2"/><stop offset="1" stop-color="#8272F5"/></linearGradient><linearGradient id="c" x1="42.536" x2="42.536" y1="21.928" y2="98.215" gradientUnits="userSpaceOnUse">
<stop stop-color="#6250F2"/><stop offset="1" stop-color="#8272F5"/></linearGradient><linearGradient id="d" x1="42.536" x2="42.536" y1="21.928" y2="98.215" gradientUnits="userSpaceOnUse">
<stop stop-color="#6250F2"/><stop offset="1" stop-color="#8272F5"/></linearGradient><linearGradient id="e" x1="42.536" x2="42.536" y1="21.928" y2="98.215" gradientUnits="userSpaceOnUse">
<stop stop-color="#6250F2"/><stop offset="1" stop-color="#8272F5"/></linearGradient><linearGradient id="f" x1="42.536" x2="42.536" y1="21.928" y2="98.215" gradientUnits="userSpaceOnUse">
<stop stop-color="#6250F2"/><stop offset="1" stop-color="#8272F5"/></linearGradient><linearGradient id="g" x1="42.536" x2="42.536" y1="21.928" y2="98.215" gradientUnits="userSpaceOnUse">
<stop stop-color="#6250F2"/><stop offset="1" stop-color="#8272F5"/></linearGradient><linearGradient id="h" x1="42.536" x2="42.536" y1="21.928" y2="98.215" gradientUnits="userSpaceOnUse">
<stop stop-color="#6250F2"/><stop offset="1" stop-color="#8272F5"/></linearGradient><linearGradient id="i" x1="42.536" x2="42.536" y1="21.928" y2="98.215" gradientUnits="userSpaceOnUse">
<stop stop-color="#6250F2"/><stop offset="1" stop-color="#8272F5"/></linearGradient><linearGradient id="j" x1="42.536" x2="42.536" y1="21.928" y2="98.215" gradientUnits="userSpaceOnUse">
<stop stop-color="#6250F2"/><stop offset="1" stop-color="#8272F5"/></linearGradient><linearGradient id="k" x1="42.536" x2="42.536" y1="21.928" y2="98.215" gradientUnits="userSpaceOnUse">
<stop stop-color="#6250F2"/><stop offset="1" stop-color="#8272F5"/></linearGradient><clipPath id="a"><path fill="#fff" d="M0 0h120v120H0z"/></clipPath></defs></svg>