<svg width="461" height="318" viewBox="0 0 461 318" fill="none" xmlns="http://www.w3.org/2000/svg">
<path d="M363.96 307.167C385.543 306.413 402.428 288.3 401.674 266.71C400.921 245.12 382.813 228.229 361.23 228.983L97.2976 238.203C75.7147 238.957 58.8293 257.07 59.583 278.66C60.3367 300.25 78.4441 317.141 100.027 316.387L363.96 307.167Z" fill="url(#paint0_linear_0_1)"/>
<path d="M104.381 283.448C111.264 287.134 118.337 288.351 122.986 288.185C124.532 288.133 125.428 287.464 125.393 286.638C125.358 285.725 124.524 285.204 123.42 284.969C110.377 282.683 101.549 278.241 101.123 266.02C100.688 253.52 108.943 246.749 122.621 246.271C132.379 245.932 140.721 246.914 146.656 249.722L144.666 268.601C139.47 266.133 133.014 264.351 126.722 264.568C125.262 264.62 124.463 265.29 124.489 266.02C124.515 266.75 125.358 267.454 126.644 267.68C141.234 269.818 148.325 274.225 148.733 285.899C149.202 299.399 140.582 306.005 125.445 306.526C117.694 306.796 108.987 305.918 102.383 302.311L104.373 283.431L104.381 283.448Z" fill="#190633"/>
<path d="M149.393 275.668C148.75 257.336 157.275 245.071 175.601 244.436C193.927 243.793 203.051 253.981 203.729 273.495C204.363 291.74 195.848 304.092 177.521 304.727C159.195 305.37 150.071 295.182 149.393 275.668ZM181.484 274.451C181.267 268.34 179.92 263.638 176.088 263.768C171.986 263.907 171.413 268.593 171.621 274.521C171.838 280.631 173.194 285.517 177.026 285.386C180.945 285.247 181.692 280.379 181.484 274.451Z" fill="#190633"/>
<path d="M207.283 302.041L205.293 245.036L226.626 244.289L227.938 281.779L244.901 281.188L245.578 300.711L207.283 302.049V302.041Z" fill="#190633"/>
<path d="M282.231 299.425L281.327 294.522L270.57 294.896L270.013 299.851L246.491 300.676L258.178 243.194L289.999 242.081L305.762 298.608L282.24 299.433L282.231 299.425ZM275.879 263.942C275.453 262.134 275.21 260.587 275.149 258.675L274.237 258.71C274.306 260.622 274.176 262.187 273.872 264.021L271.717 278.163L279.007 277.911L275.87 263.96L275.879 263.942Z" fill="#190633"/>
<path d="M335.576 297.564L329.207 282.535L327.477 282.683L328.007 297.825L306.674 298.573L304.685 241.568L333.682 240.551C348.089 240.047 355.927 247.444 356.353 259.848C356.587 266.507 353.685 272.452 348.523 276.103L358.925 296.747L335.585 297.564H335.576ZM330.041 267.167C332.952 266.793 334.255 264.916 334.134 261.543C334.029 258.44 332.144 256.771 328.676 256.893L326.217 256.98L326.582 267.376L330.041 267.167Z" fill="#190633"/>
<path d="M435.428 177.193L408.995 160.677C407.787 159.921 406.431 159.521 405.067 159.477L58.9092 147.386C57.5449 147.343 56.1633 147.647 54.9033 148.316L27.3834 162.954C24.8808 164.284 23.2732 166.849 23.1777 169.691L22.0915 200.845C21.9959 203.678 23.4123 206.355 25.8193 207.859L52.253 224.375C53.4608 225.131 54.8164 225.531 56.1807 225.574L402.339 237.665C403.703 237.709 405.084 237.405 406.344 236.735L433.864 222.097C436.367 220.767 437.975 218.203 438.07 215.361L439.156 184.207C439.252 181.374 437.835 178.696 435.428 177.193Z" fill="url(#paint1_linear_0_1)"/>
<path d="M94.3105 216.291L94.971 197.315L87.133 197.037L86.4726 216.012L65.1396 215.265L67.1296 158.26L88.4625 159.008L87.8194 177.523L95.6574 177.801L96.3005 159.286L117.633 160.034L115.643 217.038L94.3105 216.291Z" fill="#190633"/>
<path d="M119.302 217.16L121.292 160.155L160.499 161.529L159.917 178.131L141.86 177.497L141.703 182.06L156.198 182.564L155.685 197.159L141.191 196.655L141.026 201.305L159.083 201.94L158.5 218.542L119.293 217.169L119.302 217.16Z" fill="#190633"/>
<path d="M195.987 219.837L195.431 214.883L184.673 214.509L183.77 219.411L160.247 218.586L175.914 162.059L207.736 163.172L219.51 220.663L195.987 219.837ZM192.129 183.999C191.825 182.165 191.703 180.609 191.764 178.688L190.852 178.653C190.782 180.565 190.548 182.112 190.122 183.92L186.985 197.872L194.275 198.124L192.12 183.981L192.129 183.999Z" fill="#190633"/>
<path d="M226.722 220.915L228.034 183.425L214.904 182.964L215.582 163.441L263.175 165.101L262.497 184.624L249.367 184.164L248.055 221.654L226.722 220.906V220.915Z" fill="#190633"/>
<path d="M263.01 222.184L265 165.179L286.333 165.927L284.343 222.931L263.01 222.184Z" fill="#190633"/>
<path d="M317.155 224.618L310.837 209.423C310.168 207.754 309.933 206.564 309.986 205.008L309.073 204.973L308.421 223.766L288.001 223.053L289.991 166.048L313.696 166.874L320.013 182.068C320.682 183.737 320.917 184.928 320.865 186.484L321.777 186.519L322.455 167.178L342.884 167.891L340.877 225.443L317.172 224.618H317.155Z" fill="#190633"/>
<path d="M394.231 223.932C388.565 226.748 380.944 227.939 372.463 227.643C354.32 227.009 343.736 216.413 344.422 196.707C345.065 178.192 356.057 166.701 375.027 167.362C382.595 167.622 389.382 169.23 394.318 171.777L389.695 189.153C386.097 187.563 381.483 186.398 377.017 186.241C369.448 185.981 366.911 190.64 366.667 197.75C366.415 205.043 368.518 210.05 375.539 210.293L375.705 205.46L371.143 205.304L371.638 191.074L395.343 191.9L394.222 223.914L394.231 223.932Z" fill="#190633"/>
<path d="M447.415 71.3221L11.1083 86.5632C5.11304 86.7726 0.422648 91.8041 0.632007 97.8012L2.60321 154.267C2.81257 160.264 7.84239 164.956 13.8376 164.747L450.145 149.506C456.14 149.296 460.83 144.265 460.621 138.268L458.65 81.8017C458.44 75.8046 453.411 71.1127 447.415 71.3221Z" fill="url(#paint2_linear_0_1)"/>
<path d="M46.1003 153.019L44.1104 96.0144L70.8221 95.0843C88.9659 94.4497 93.667 100.865 93.9798 109.887C94.1623 114.999 91.6597 119.188 86.9934 121.639C91.8074 123.665 95.2485 127.924 95.4484 133.67C95.7873 143.336 91.9638 151.42 72.4471 152.098L46.0916 153.019H46.1003ZM69.2319 117.328C71.0567 117.267 72.1951 115.859 72.1342 114.121C72.0734 112.391 70.8395 110.974 69.0147 111.035L65.8256 111.148L66.0428 117.441L69.2319 117.328ZM71.1697 136.251C72.9945 136.191 74.1241 134.687 74.0633 132.957C74.0025 131.227 72.7686 129.897 70.9438 129.958L66.4773 130.115L66.6946 136.408L71.161 136.251H71.1697Z" fill="#190633"/>
<path d="M125.54 93.1719L146.873 92.4243L148.038 125.899C148.655 143.501 139.618 151.402 123.663 151.958C107.709 152.515 98.1422 145.274 97.5252 127.663L96.3608 94.1889L117.694 93.4413L118.841 126.186C118.98 130.201 120.066 132.531 122.986 132.435C125.905 132.331 126.826 129.923 126.687 125.916L125.54 93.1719Z" fill="#190633"/>
<path d="M152.374 127.116C159.256 130.801 166.329 132.018 170.978 131.853C172.525 131.801 173.42 131.131 173.385 130.306C173.35 129.393 172.516 128.871 171.412 128.637C158.369 126.351 149.541 121.909 149.115 109.687C148.68 97.1877 156.936 90.4163 170.613 89.9382C180.371 89.5992 188.713 90.5815 194.648 93.3891L192.658 112.269C187.462 109.8 181.006 108.018 174.714 108.236C173.255 108.288 172.455 108.957 172.481 109.687C172.507 110.417 173.35 111.122 174.636 111.348C189.226 113.486 196.317 117.893 196.725 129.567C197.194 143.066 188.574 149.672 173.437 150.194C165.686 150.463 156.979 149.585 150.375 145.978L152.365 127.098L152.374 127.116Z" fill="#190633"/>
<path d="M199.471 147.665L197.481 90.6601L218.814 89.9126L220.804 146.917L199.471 147.665Z" fill="#190633"/>
<path d="M253.651 146.317L246.291 131.601C245.5 129.984 245.187 128.811 245.135 127.255L244.223 127.289L244.874 146.082L224.454 146.795L222.464 89.7904L246.169 88.9647L253.529 103.681C254.32 105.298 254.633 106.471 254.685 108.027L255.597 107.992L254.919 88.6517L275.349 87.939L277.356 145.491L253.651 146.317Z" fill="#190633"/>
<path d="M280.988 144.814L278.998 87.8089L318.205 86.4355L318.788 103.038L300.731 103.673L300.887 108.236L315.381 107.732L315.894 122.326L301.4 122.831L301.565 127.481L319.622 126.846L320.204 143.449L280.997 144.822L280.988 144.814Z" fill="#190633"/>
<path d="M323.254 121.144C330.137 124.83 337.21 126.047 341.859 125.882C343.406 125.829 344.301 125.16 344.266 124.334C344.231 123.422 343.397 122.9 342.293 122.665C329.25 120.379 320.422 115.938 319.996 103.716C319.561 91.2165 327.816 84.4451 341.494 83.967C351.252 83.628 359.594 84.6103 365.529 87.4179L363.539 106.298C358.343 103.829 351.887 102.047 345.595 102.264C344.135 102.317 343.336 102.986 343.362 103.716C343.388 104.446 344.231 105.15 345.517 105.376C360.107 107.515 367.198 111.922 367.606 123.596C368.075 137.095 359.455 143.701 344.318 144.223C336.567 144.492 327.86 143.614 321.256 140.007L323.246 121.127L323.254 121.144Z" fill="#190633"/>
<path d="M370.673 119.492C377.556 123.178 384.629 124.395 389.278 124.23C390.824 124.178 391.72 123.508 391.685 122.683C391.65 121.77 390.816 121.248 389.712 121.014C376.669 118.728 367.841 114.286 367.415 102.064C366.98 89.5646 375.235 82.7933 388.913 82.3152C398.671 81.9762 407.013 82.9584 412.948 85.7661L410.958 104.646C405.762 102.177 399.306 100.395 393.014 100.613C391.554 100.665 390.755 101.334 390.781 102.064C390.807 102.794 391.65 103.499 392.936 103.725C407.526 105.863 414.617 110.27 415.025 121.944C415.494 135.443 406.874 142.049 391.737 142.571C383.986 142.84 375.279 141.962 368.675 138.355L370.665 119.475L370.673 119.492Z" fill="#190633"/>
<path d="M406.796 45.1117L391.65 16.3138C389.834 12.8629 386.315 10.6464 382.413 10.516L122.1 1.42377C121.822 1.41508 121.552 1.42377 121.283 1.42377C121.014 1.39769 120.744 1.37162 120.475 1.36293L81.5629 0.00692368C77.67 -0.132154 73.9943 1.83232 71.9435 5.15281L54.8338 32.8206C52.8091 36.089 52.6701 40.1918 54.4601 43.5992L69.606 72.397C71.4222 75.8479 74.9414 78.0645 78.8431 78.1948L117.755 79.5509C118.033 79.5595 118.302 79.5509 118.572 79.5509C118.841 79.5769 119.111 79.603 119.38 79.6117L379.693 88.7039C383.586 88.843 387.262 86.8785 389.313 83.5581L406.423 55.8902C408.447 52.6219 408.586 48.5191 406.796 45.1117Z" fill="url(#paint3_linear_0_1)"/>
<path d="M124.889 69.1895L125.55 50.214L117.712 49.9359L117.051 68.9113L95.7183 68.1638L97.7082 11.1592L119.041 11.9067L118.398 30.4215L126.236 30.6996L126.879 12.1849L148.212 12.9324L146.222 69.937L124.889 69.1895Z" fill="#190633"/>
<path d="M149.767 41.6606C150.41 23.3284 159.76 11.6893 178.087 12.3325C196.413 12.9757 204.799 23.7717 204.121 43.286C203.486 61.5313 194.128 73.2573 175.801 72.6141C157.475 71.9709 149.09 61.175 149.767 41.6606ZM181.867 42.695C182.084 36.5842 181.059 31.7947 177.235 31.6643C173.134 31.5253 172.239 36.1496 172.03 42.0778C171.813 48.1885 172.83 53.1519 176.662 53.291C180.581 53.4301 181.667 48.6232 181.867 42.695Z" fill="#190633"/>
<path d="M254.094 73.7099L255.424 46.1724L254.607 46.1464C254.538 48.1543 254.216 49.5103 253.79 51.327L248.394 72.5972L229.06 71.9192L225.158 50.3187C224.854 48.4846 224.628 47.1025 224.698 45.0946L223.881 45.0685L223.281 72.6233L204.042 71.954L207.857 15.0103L235.759 15.9838L239.114 37.5583C239.409 39.6705 239.461 40.6788 239.4 42.4955L240.217 42.5216C240.278 40.6962 240.408 39.6966 240.843 37.6104L245.422 16.3054L273.507 17.2877L273.342 74.3618L254.103 73.6925L254.094 73.7099Z" fill="#190633"/>
<path d="M276.253 74.4831L278.243 17.4785L317.45 18.8519L316.868 35.4544L298.811 34.8198L298.655 39.3833L313.149 39.8875L312.636 54.482L298.142 53.9778L297.977 58.6282L316.034 59.2628L315.451 75.8652L276.244 74.4918L276.253 74.4831Z" fill="#190633"/>
<path d="M320.066 53.8215C326.678 57.9764 333.648 59.6801 338.296 59.8453C339.843 59.8975 340.782 59.289 340.808 58.4719C340.842 57.5592 340.034 56.9855 338.957 56.6726C326.105 53.4825 317.607 48.4409 318.032 36.2194C318.458 23.9979 327.174 17.5482 340.851 18.0176C350.61 18.3566 358.865 19.9212 364.591 23.1374L361.289 41.8347C356.275 39.0097 349.967 36.7844 343.675 36.5584C342.215 36.5063 341.373 37.1147 341.346 37.8449C341.32 38.575 342.12 39.3313 343.38 39.6529C357.787 42.8082 364.556 47.702 364.148 59.3759C363.679 72.8752 354.615 78.8555 339.478 78.334C331.727 78.0645 323.107 76.5781 316.764 72.5188L320.066 53.8215Z" fill="#190633"/>
<defs>
<linearGradient id="paint0_linear_0_1" x1="59.583" y1="278.66" x2="401.675" y2="266.718" gradientUnits="userSpaceOnUse">
<stop stop-color="#FF9B0F"/>
<stop offset="1" stop-color="#FFBC5E"/>
</linearGradient>
<linearGradient id="paint1_linear_0_1" x1="22.6431" y1="185.251" x2="438.612" y2="199.772" gradientUnits="userSpaceOnUse">
<stop stop-color="#50EFF2"/>
<stop offset="1" stop-color="#8BF4F7"/>
</linearGradient>
<linearGradient id="paint2_linear_0_1" x1="1.61791" y1="126.043" x2="459.627" y2="110.054" gradientUnits="userSpaceOnUse">
<stop stop-color="#6250F2"/>
<stop offset="1" stop-color="#8272F5"/>
</linearGradient>
<linearGradient id="paint3_linear_0_1" x1="53.221" y1="44.3554" x2="408.046" y2="44.3554" gradientUnits="userSpaceOnUse">
<stop offset="0" stop-color="#FF2CDE"/>
<stop offset="1" stop-color="#FF72E9"/>
</linearGradient>
</defs>
</svg>
