<svg viewBox="0 0 200 60" fill="none" xmlns="http://www.w3.org/2000/svg">
  <path d="M1.83 38.014L5.14 35.08c.942 1.355 3.199 2.22 4.892 2.22 2.144 0 3.612-1.431 3.612-2.673 0-1.466-1.918-2.37-4.703-3.122-4.288-1.13-6.209-3.274-6.209-6.322 0-4.139 3.5-6.735 7.752-6.735 2.86 0 5.567 1.166 7.598 3.162l-2.97 3.197c-1.656-1.466-3.01-2.22-4.516-2.22-1.693 0-3.122.979-3.122 2.371 0 1.656 1.995 2.22 4.175 2.898 5.042 1.39 6.698 3.348 6.698 6.546 0 4.628-3.611 7.15-8.427 7.15-3.236 0-6.397-1.394-8.091-3.538zM35.926 18.75c5.116 0 8.014 2.52 8.014 6.773 0 4.1-2.821 6.696-7.489 6.696h-4.665v8.88h-4.402V18.75h8.542zm.3 4.252h-4.44v5.042h4.591c2.182 0 3.198-.867 3.198-2.56 0-1.655-.865-2.483-3.349-2.483v.001zM53.166 41.1h4.364V18.75h-4.365V41.1zM81.01 18.75v13.356L69.686 18.75h-2.559V41.1h4.44V27.78L82.855 41.1h2.594V18.75h-4.44zm20.587 0c7.187 0 12.004 4.476 12.004 11.175 0 6.66-4.817 11.174-12.039 11.174h-6.699V18.75h6.735-.001zm.114 4.252h-2.408v13.883h2.408c4.515 0 7.45-2.745 7.45-6.923 0-4.327-2.821-6.96-7.45-6.96zm31.651-4.554c6.321 0 11.588 5.268 11.588 11.55 0 6.361-5.266 11.553-11.739 11.553-6.284 0-11.513-5.192-11.513-11.664 0-6.17 5.38-11.439 11.662-11.439h.002zm-.038 4.253c-3.913 0-7.186 3.273-7.186 7.186 0 4.176 3.31 7.412 7.112 7.412 4.025 0 7.261-3.236 7.261-7.3 0-4.062-3.198-7.298-7.186-7.298h-.001zm31.2-4.253c2.671 0 5.08.866 7.225 2.596l-2.448 3.576c-1.466-1.317-2.859-1.92-4.739-1.92-4.027 0-7.261 3.275-7.261 7.374 0 3.914 3.234 7.225 7.036 7.225 2.256 0 4.25-1.09 5.266-2.785v-2.106h-5.982v-4.253h10.121v7.827c-1.731 3.575-5.23 5.569-9.445 5.569-6.283 0-11.439-5.192-11.439-11.513 0-6.397 5.232-11.59 11.666-11.59zm17.127 19.566l3.31-2.934c.942 1.355 3.2 2.22 4.891 2.22 2.145 0 3.613-1.431 3.613-2.673 0-1.466-1.918-2.37-4.704-3.122-4.288-1.13-6.208-3.274-6.208-6.322 0-4.139 3.499-6.735 7.752-6.735 2.86 0 5.568 1.166 7.599 3.162l-2.971 3.197c-1.656-1.466-3.01-2.22-4.515-2.22-1.693 0-3.122.979-3.122 2.371 0 1.656 1.993 2.22 4.175 2.898 5.042 1.39 6.698 3.348 6.698 6.546 0 4.628-3.613 7.15-8.429 7.15-3.235 0-6.397-1.394-8.089-3.538z" fill="#000"/>
</svg>
