<svg width="302" height="183" viewBox="0 0 302 183" fill="none" xmlns="http://www.w3.org/2000/svg">
<path d="M11.3571 37.3028C18.2762 41.3128 25.4757 42.8049 30.2442 42.8049C31.8337 42.8049 32.7687 42.1521 32.7687 41.3128C32.7687 40.3802 31.9272 39.8207 30.8052 39.5409C17.5282 36.7432 8.64563 31.8939 8.64563 19.3974C8.64563 6.90099 17.3412 0 31.3662 0C41.3708 0 49.8793 1.30555 55.8633 4.38303L53.1518 23.594C47.9158 20.8895 41.3708 18.8379 34.9192 18.8379C33.4232 18.8379 32.5817 19.4907 32.5817 20.2367C32.5817 20.9828 33.4232 21.7288 34.7322 22.0086C49.5988 24.713 56.7048 29.4692 56.7048 41.4061C56.7048 55.2081 47.6353 61.6428 32.1142 61.6428C24.1667 61.6428 15.2842 60.4305 8.64563 56.5137L11.3571 37.3028Z" fill="white"/>
<path d="M109.439 59.9643L109.813 31.8007H108.972C108.972 33.8523 108.691 35.2512 108.317 37.1164L103.549 59.0317H83.7265L78.958 37.1164C78.584 35.2512 78.3035 33.8523 78.3035 31.8007H77.462L77.836 59.9643H58.1074L59.9774 1.67871H88.5885L92.7961 23.5941C93.1701 25.739 93.2636 26.7648 93.2636 28.63H94.1051C94.1051 26.7648 94.1986 25.739 94.5726 23.5941L98.4996 1.67871H127.298L129.168 59.9643H109.439Z" fill="white"/>
<path d="M166.007 59.9643L165.259 54.9285H154.226L153.478 59.9643H129.355L143.38 1.67871H176.011L190.13 59.9643H166.007ZM160.771 23.5008C160.397 21.6357 160.21 20.0504 160.21 18.092H159.275C159.275 20.0504 159.088 21.6357 158.714 23.5008L156.002 37.8624H163.482L160.771 23.5008Z" fill="white"/>
<path d="M220.705 59.9643L214.721 44.3904L212.944 44.4836V59.9643H191.065V1.67871H220.798C235.571 1.67871 243.332 9.5123 243.332 22.1952C243.332 29.003 240.153 34.9715 234.73 38.5152L244.641 59.9643H220.705ZM216.123 28.7232C219.115 28.4435 220.518 26.5783 220.518 23.1278C220.518 19.9571 218.648 18.1852 215.095 18.1852H212.57V28.8165L216.123 28.7232Z" fill="white"/>
<path d="M256.422 59.9643V21.6357H242.958V1.67871H291.765V21.6357H278.301V59.9643H256.422Z" fill="white"/>
<path d="M0 122.944V64.6582H40.2052V81.6309H21.6921V86.2938H36.5586V101.215H21.6921V105.971H40.2052V122.944H0Z" fill="white"/>
<path d="M72.924 123.503L65.9115 108.209C65.1635 106.531 64.883 105.318 64.883 103.733H63.948V122.944H43.0039V64.6582H67.314L74.3265 79.9523C75.0745 81.631 75.355 82.8433 75.355 84.4286H76.29V64.6582H97.2341V123.503H72.924Z" fill="white"/>
<path d="M100.974 122.944V64.6582H141.179V81.6309H122.666V86.2938H137.533V101.215H122.666V105.971H141.179V122.944H100.974Z" fill="white"/>
<path d="M173.624 122.944L167.64 107.37L165.863 107.463V122.944H143.984V64.6582H173.718C188.491 64.6582 196.251 72.4918 196.251 85.1747C196.251 91.9825 193.072 97.9509 187.649 101.495L197.56 122.944H173.624ZM169.042 91.7027C172.034 91.423 173.437 89.5578 173.437 86.1073C173.437 82.9366 171.567 81.1646 168.014 81.1646H165.489V91.7959L169.042 91.7027Z" fill="white"/>
<path d="M249.079 120.053C243.375 123.13 235.615 124.622 226.919 124.622C208.313 124.622 197.093 114.178 197.093 94.0341C197.093 75.1029 207.939 62.9795 227.387 62.9795C235.147 62.9795 242.16 64.3784 247.302 66.803L243.188 84.7084C239.448 83.2163 234.68 82.1904 230.098 82.1904C222.338 82.1904 219.907 87.0398 219.907 94.3139C219.907 101.588 222.244 106.81 229.444 106.81V101.868H224.769V87.3196H249.079V120.053Z" fill="white"/>
<path d="M263.01 122.944V103.733L245.9 64.6582H269.555L272.828 77.7142C273.202 79.2995 273.482 81.0714 273.482 82.8433H274.417C274.417 81.0714 274.698 79.2995 275.072 77.7142L278.344 64.6582H302L284.889 103.733V122.944H263.01Z" fill="white"/>
<path d="M275.502 151.816L264.637 131.219C263.334 128.751 260.81 127.165 258.011 127.072L71.2784 120.569C71.079 120.563 70.8858 120.569 70.6925 120.569C70.4993 120.55 70.306 120.532 70.1128 120.525L42.1998 119.555C39.4073 119.456 36.7706 120.861 35.2995 123.236L23.026 143.025C21.5737 145.363 21.4739 148.297 22.758 150.734L33.6227 171.332C34.9255 173.8 37.45 175.385 40.2488 175.479L68.1618 176.448C68.3612 176.455 68.5545 176.448 68.7477 176.448C68.9409 176.467 69.1342 176.486 69.3274 176.492L256.06 182.995C258.853 183.095 261.489 181.689 262.96 179.315L275.234 159.525C276.686 157.188 276.786 154.253 275.502 151.816Z" fill="url(#paint0_linear_2001_763)"/>
<path d="M73.2794 169.037L73.7531 155.466L68.1306 155.267L67.6569 168.839L52.354 168.304L53.7814 127.532L69.0843 128.067L68.6231 141.309L74.2456 141.508L74.7068 128.266L90.0097 128.8L88.5823 169.572L73.2794 169.037Z" fill="#190633"/>
<path d="M91.1255 149.348C91.5868 136.236 98.2939 127.911 111.44 128.371C124.586 128.831 130.601 136.553 130.115 150.51C129.66 163.56 122.947 171.947 109.801 171.487C96.6545 171.027 90.6393 163.305 91.1255 149.348ZM114.152 150.088C114.307 145.717 113.572 142.291 110.829 142.198C107.887 142.099 107.245 145.406 107.095 149.646C106.946 153.886 107.669 157.567 110.418 157.666C113.167 157.766 114.008 154.328 114.152 150.088Z" fill="#190633"/>
<path d="M165.963 172.27L166.917 152.575L166.331 152.556C166.281 153.992 166.05 154.962 165.745 156.261L161.874 171.475L148.005 170.99L145.206 155.54C144.988 154.228 144.826 153.24 144.876 151.804L144.29 151.785L143.86 171.493L130.059 171.015L132.796 130.286L152.811 130.982L155.217 146.413C155.429 147.924 155.466 148.645 155.423 149.945L156.009 149.963C156.052 148.658 156.146 147.943 156.457 146.451L159.742 131.212L179.889 131.915L179.77 172.737L165.969 172.258L165.963 172.27Z" fill="#190633"/>
<path d="M181.858 172.824L183.286 132.052L211.411 133.034L210.993 144.909L198.04 144.455L197.928 147.719L208.325 148.08L207.957 158.518L197.56 158.157L197.442 161.484L210.395 161.938L209.977 173.812L181.852 172.83L181.858 172.824Z" fill="#190633"/>
<path d="M213.287 158.046C218.03 161.017 223.03 162.236 226.364 162.354C227.474 162.391 228.147 161.956 228.166 161.372C228.191 160.719 227.611 160.309 226.838 160.085C217.619 157.803 211.523 154.197 211.828 145.456C212.14 136.516 218.386 132.102 228.197 132.437C235.197 132.68 241.119 133.799 245.227 136.099L242.858 149.472C239.261 147.452 234.736 145.86 230.223 145.698C229.176 145.661 228.571 146.096 228.552 146.619C228.534 147.141 229.107 147.682 230.011 147.912C240.346 150.169 245.202 153.669 244.909 162.018C244.572 171.674 238.071 175.951 227.212 175.578C221.652 175.385 215.469 174.322 210.918 171.419L213.287 158.046Z" fill="#190633"/>
<defs>
<linearGradient id="paint0_linear_2001_763" x1="21.8691" y1="151.275" x2="276.399" y2="151.275" gradientUnits="userSpaceOnUse">
<stop offset="0" stop-color="#FF2CDE"/>
<stop offset="1" stop-color="#FF72E9"/>
</linearGradient>
</defs>
</svg>
