<svg width="313" height="190" viewBox="0 0 313 190" fill="none" xmlns="http://www.w3.org/2000/svg">
<path d="M11.7708 38.7297C18.9419 42.8931 26.4037 44.4423 31.3459 44.4423C32.9933 44.4423 33.9623 43.7645 33.9623 42.8931C33.9623 41.9249 33.0902 41.3439 31.9273 41.0535C18.1666 38.1487 8.96057 33.1139 8.96057 20.1394C8.96057 7.16498 17.9728 0 32.5087 0C42.8777 0 51.6961 1.35553 57.8981 4.55073L55.0878 24.4965C49.6611 21.6886 42.8777 19.5585 36.1912 19.5585C34.6407 19.5585 33.7685 20.2363 33.7685 21.0108C33.7685 21.7854 34.6407 22.56 35.9974 22.8505C51.4054 25.6584 58.7703 30.5965 58.7703 42.99C58.7703 57.3199 49.3704 64.0008 33.284 64.0008C25.047 64.0008 15.8409 62.7421 8.96057 58.6755L11.7708 38.7297Z" fill="#190633"/>
<path d="M113.425 62.258L113.813 33.0171H112.941C112.941 35.1473 112.65 36.5996 112.262 38.5361L107.32 61.2898H86.7761L81.8339 38.5361C81.4463 36.5996 81.1556 35.1473 81.1556 33.0171H80.2834L80.671 62.258H60.2239L62.162 1.74292H91.8152L96.176 24.4966C96.5636 26.7236 96.6605 27.7886 96.6605 29.7251H97.5327C97.5327 27.7886 97.6296 26.7236 98.0172 24.4966L102.087 1.74292H131.934L133.872 62.258H113.425Z" fill="#190633"/>
<path d="M172.053 62.258L171.278 57.0296H159.843L159.068 62.258H134.066L148.602 1.74292H182.422L197.055 62.258H172.053ZM166.627 24.3998C166.239 22.4633 166.045 20.8173 166.045 18.784H165.076C165.076 20.8173 164.882 22.4633 164.495 24.3998L161.684 39.3107H169.437L166.627 24.3998Z" fill="#190633"/>
<path d="M228.743 62.258L222.541 46.0884L220.7 46.1852V62.258H198.024V1.74292H228.84C244.151 1.74292 252.195 9.87615 252.195 23.0442C252.195 30.1124 248.9 36.3092 243.279 39.9885L253.551 62.258H228.743ZM223.995 29.8219C227.096 29.5315 228.55 27.595 228.55 24.0125C228.55 20.7205 226.611 18.8808 222.929 18.8808H220.313V29.9188L223.995 29.8219Z" fill="#190633"/>
<path d="M265.762 62.258V22.4633H251.807V1.74292H302.392V22.4633H288.438V62.258H265.762Z" fill="#190633"/>
<path d="M0 127.646V67.1313H41.6696V84.7534H22.4822V89.5946H37.8903V105.086H22.4822V110.024H41.6696V127.646H0Z" fill="#190633"/>
<path d="M75.5802 128.227L68.3123 112.348C67.537 110.605 67.2463 109.347 67.2463 107.701H66.2773V127.646H44.5703V67.1313H69.7659L77.0338 83.0105C77.8091 84.7534 78.0998 86.0121 78.0998 87.6581H79.0689V67.1313H100.776V128.227H75.5802Z" fill="#190633"/>
<path d="M104.652 127.646V67.1313H146.322V84.7534H127.134V89.5946H142.542V105.086H127.134V110.024H146.322V127.646H104.652Z" fill="#190633"/>
<path d="M179.948 127.646L173.746 111.477L171.905 111.574V127.646H149.229V67.1313H180.045C195.356 67.1313 203.399 75.2646 203.399 88.4327C203.399 95.5008 200.104 101.698 194.484 105.377L204.756 127.646H179.948ZM175.2 95.2104C178.301 94.9199 179.754 92.9834 179.754 89.4009C179.754 86.1089 177.816 84.2693 174.134 84.2693H171.517V95.3072L175.2 95.2104Z" fill="#190633"/>
<path d="M258.151 124.645C252.24 127.84 244.197 129.389 235.185 129.389C215.9 129.389 204.271 118.545 204.271 97.6311C204.271 77.9758 215.513 65.3887 235.669 65.3887C243.712 65.3887 250.98 66.841 256.31 69.3585L252.046 87.9487C248.17 86.3995 243.228 85.3345 238.479 85.3345C230.436 85.3345 227.917 90.3693 227.917 97.9216C227.917 105.474 230.339 110.896 237.801 110.896V105.764H232.956V90.6598H258.151V124.645Z" fill="#190633"/>
<path d="M272.59 127.646V107.701L254.856 67.1313H279.374L282.765 80.6867C283.153 82.3327 283.444 84.1724 283.444 86.0121H284.413C284.413 84.1724 284.704 82.3327 285.091 80.6867L288.483 67.1313H313L295.266 107.701V127.646H272.59Z" fill="#190633"/>
<path d="M285.537 157.623L274.276 136.238C272.926 133.676 270.31 132.03 267.409 131.933L73.8747 125.181C73.6679 125.174 73.4677 125.181 73.2674 125.181C73.0671 125.161 72.8669 125.142 72.6666 125.136L43.7369 124.129C40.8426 124.025 38.1099 125.484 36.5852 127.95L23.8647 148.496C22.3594 150.923 22.2561 153.97 23.5869 156.5L34.8474 177.885C36.1976 180.448 38.8141 182.094 41.7148 182.191L70.6445 183.198C70.8512 183.204 71.0515 183.198 71.2518 183.198C71.452 183.217 71.6523 183.237 71.8526 183.243L265.387 189.995C268.281 190.098 271.014 188.639 272.538 186.174L285.259 165.628C286.764 163.2 286.868 160.154 285.537 157.623Z" fill="url(#paint0_linear_2001_786)"/>
<path d="M75.9484 175.504L76.4394 161.412L70.6121 161.206L70.1211 175.297L54.2609 174.742L55.7403 132.41L71.6006 132.966L71.1225 146.715L76.9498 146.921L77.4279 133.172L93.2882 133.727L91.8087 176.059L75.9484 175.504Z" fill="#190633"/>
<path d="M94.4446 155.061C94.9227 141.447 101.874 132.804 115.499 133.282C129.124 133.759 135.358 141.776 134.854 156.268C134.383 169.817 127.425 178.524 113.8 178.047C100.175 177.569 93.9407 169.552 94.4446 155.061ZM118.309 155.829C118.471 151.291 117.709 147.734 114.866 147.638C111.817 147.534 111.151 150.968 110.996 155.371C110.841 159.773 111.591 163.594 114.44 163.697C117.289 163.801 118.161 160.231 118.309 155.829Z" fill="#190633"/>
<path d="M172.008 178.86L172.997 158.411L172.389 158.392C172.338 159.883 172.099 160.89 171.782 162.239L167.77 178.034L153.396 177.531L150.495 161.49C150.269 160.128 150.101 159.102 150.153 157.611L149.545 157.591L149.1 178.053L134.796 177.556L137.632 135.27L158.377 135.993L160.87 152.014C161.09 153.583 161.129 154.331 161.084 155.681L161.691 155.7C161.736 154.344 161.833 153.602 162.156 152.053L165.561 136.232L186.441 136.961L186.318 179.344L172.015 178.847L172.008 178.86Z" fill="#190633"/>
<path d="M188.482 179.435L189.962 137.103L219.111 138.123L218.678 150.452L205.253 149.981L205.137 153.37L215.913 153.744L215.532 164.582L204.756 164.208L204.633 167.661L218.058 168.132L217.625 180.461L188.476 179.441L188.482 179.435Z" fill="#190633"/>
<path d="M221.056 164.091C225.972 167.177 231.153 168.442 234.609 168.565C235.759 168.603 236.457 168.151 236.477 167.545C236.502 166.867 235.902 166.441 235.1 166.209C225.546 163.84 219.227 160.096 219.544 151.02C219.867 141.738 226.34 137.155 236.509 137.503C243.764 137.755 249.901 138.917 254.159 141.305L251.704 155.19C247.976 153.092 243.286 151.44 238.608 151.272C237.523 151.233 236.896 151.685 236.877 152.227C236.858 152.769 237.452 153.331 238.389 153.57C249.1 155.913 254.133 159.547 253.829 168.216C253.48 178.241 246.742 182.682 235.488 182.294C229.725 182.094 223.317 180.99 218.601 177.976L221.056 164.091Z" fill="#190633"/>
<defs>
<linearGradient id="paint0_linear_2001_786" x1="22.6657" y1="157.062" x2="286.466" y2="157.062" gradientUnits="userSpaceOnUse">
<stop offset="0" stop-color="#FF2CDE"/>
<stop offset="1" stop-color="#FF72E9"/>
</linearGradient>
</defs>
</svg>
