<svg width="200" height="60" viewBox="0 0 200 60" fill="none" xmlns="http://www.w3.org/2000/svg">
<path d="M1.82992 38.0142L5.14138 35.0797C6.08264 36.4345 8.33976 37.2991 10.0326 37.2991C12.1766 37.2991 13.6445 35.869 13.6445 34.6273C13.6445 33.1607 11.7266 32.2571 8.94173 31.5055C4.65367 30.3758 2.73346 28.2306 2.73346 25.183C2.73346 21.0445 6.23224 18.4482 10.485 18.4482C13.3441 18.4482 16.0524 19.6144 18.0833 21.61L15.1123 24.8072C13.4572 23.3406 12.1036 22.5878 10.5969 22.5878C8.90404 22.5878 7.47507 23.5656 7.47507 24.958C7.47507 26.6143 9.4695 27.1774 11.65 27.856C16.6921 29.2461 18.3484 31.204 18.3484 34.4023C18.3484 39.0297 14.7365 41.5519 9.92068 41.5519C6.68461 41.5519 3.52395 40.1582 1.82992 38.0142ZM35.9259 18.7497C41.0421 18.7497 43.9401 21.2707 43.9401 25.5234C43.9401 29.623 41.1187 32.2194 36.4513 32.2194H31.7863V41.0995H27.384V18.7497H35.9248L35.9259 18.7497ZM36.2263 23.0024H31.7851V28.0444H36.3771C38.5588 28.0444 39.5755 27.1774 39.5755 25.4846C39.5755 23.8294 38.7096 23.0012 36.2263 23.0012V23.0024ZM53.1653 41.0995H57.5299V18.7497H53.1653V41.0995ZM81.0106 18.7497V32.1063L69.6861 18.7497H67.1274V41.0995H71.5663V27.7794L82.8555 41.0995H85.4495V18.7497H81.0106ZM101.598 18.7497C108.785 18.7497 113.602 23.2263 113.602 29.9246C113.602 36.5841 108.785 41.0995 101.563 41.0995H94.8644V18.7497H101.599H101.598ZM101.712 23.0024H99.3044V36.8845H101.712C106.227 36.8845 109.162 34.1396 109.162 29.9623C109.162 25.6354 106.341 23.0013 101.712 23.0013V23.0024ZM133.363 18.4481C139.684 18.4481 144.951 23.7163 144.951 29.9988C144.951 36.3591 139.685 41.5507 133.212 41.5507C126.928 41.5507 121.699 36.3591 121.699 29.8869C121.699 23.7163 127.079 18.4481 133.361 18.4481H133.363ZM133.325 22.7009C129.412 22.7009 126.139 25.9735 126.139 29.8869C126.139 34.063 129.449 37.2991 133.251 37.2991C137.276 37.2991 140.512 34.063 140.512 29.9988C140.512 25.9369 137.314 22.7009 133.326 22.7009H133.325ZM164.525 18.4481C167.196 18.4481 169.605 19.314 171.75 21.0445L169.302 24.6199C167.836 23.3028 166.443 22.6997 164.563 22.6997C160.536 22.6997 157.302 25.9746 157.302 30.0742C157.302 33.9877 160.536 37.2991 164.338 37.2991C166.594 37.2991 168.588 36.2083 169.604 34.5142V32.4079H163.622V28.1552H173.743V35.9821C172.012 39.5574 168.513 41.5507 164.298 41.5507C158.015 41.5507 152.859 36.3591 152.859 30.0377C152.859 23.6409 158.091 18.4481 164.525 18.4481ZM181.652 38.0142L184.962 35.0797C185.904 36.4345 188.162 37.2991 189.853 37.2991C191.998 37.2991 193.466 35.869 193.466 34.6273C193.466 33.1607 191.548 32.2571 188.762 31.5055C184.474 30.3758 182.554 28.2306 182.554 25.183C182.554 21.0445 186.053 18.4482 190.306 18.4482C193.166 18.4482 195.874 19.6144 197.905 21.61L194.934 24.8072C193.278 23.3406 191.924 22.5878 190.419 22.5878C188.726 22.5878 187.297 23.5656 187.297 24.958C187.297 26.6143 189.29 27.1774 191.472 27.856C196.514 29.2461 198.17 31.204 198.17 34.4023C198.17 39.0297 194.557 41.5519 189.741 41.5519C186.506 41.5519 183.345 40.1582 181.652 38.0142Z" fill="white"/>
</svg>
