<svg width="147" height="82" viewBox="0 0 147 82" fill="none" xmlns="http://www.w3.org/2000/svg">
<path d="M12.2226 16.5697C15.2999 18.351 18.502 19.0138 20.6229 19.0138C21.3299 19.0138 21.7457 18.7238 21.7457 18.351C21.7457 17.9367 21.3715 17.6882 20.8724 17.5639C14.9672 16.3212 11.0166 14.1671 11.0166 8.61625C11.0166 3.06539 14.8841 0 21.1219 0C25.5716 0 29.3559 0.579921 32.0174 1.94692L30.8114 10.4804C28.4826 9.27904 25.5716 8.3677 22.7022 8.3677C22.0368 8.3677 21.6626 8.65767 21.6626 8.98907C21.6626 9.32046 22.0368 9.65188 22.619 9.77616C29.2312 10.9775 32.3917 13.0901 32.3917 18.3924C32.3917 24.5232 28.3579 27.3815 21.4546 27.3815C17.9198 27.3815 13.9692 26.843 11.0166 25.1032L12.2226 16.5697Z" fill="white"/>
<path d="M55.8462 26.6359L56.0125 14.1257H55.6383C55.6383 15.0371 55.5135 15.6584 55.3472 16.4869L53.2263 26.2216H44.4101L42.2892 16.4869C42.1229 15.6584 41.9981 15.0371 41.9981 14.1257H41.6239L41.7902 26.6359H33.0156L33.8473 0.745636H46.5726L48.4439 10.4804C48.6103 11.4331 48.6519 11.8888 48.6519 12.7173H49.0261C49.0261 11.8888 49.0677 11.4331 49.2341 10.4804L50.9807 0.745636H63.7891L64.6208 26.6359H55.8462Z" fill="white"/>
<path d="M81.0055 26.6359L80.6728 24.399H75.7657L75.433 26.6359H64.7039L70.9417 0.745636H85.4551L91.7346 26.6359H81.0055ZM78.6767 10.4389C78.5103 9.61044 78.4271 8.90624 78.4271 8.03633H78.0113C78.0113 8.90624 77.9281 9.61044 77.7618 10.4389L76.5558 16.8183H79.8827L78.6767 10.4389Z" fill="white"/>
<path d="M105.333 26.6359L102.672 19.718L101.881 19.7594V26.6359H92.1504V0.745636H105.375C111.945 0.745636 115.397 4.22528 115.397 9.859C115.397 12.883 113.983 15.5341 111.571 17.1083L115.979 26.6359H105.333ZM103.295 12.7587C104.626 12.6344 105.25 11.8059 105.25 10.2732C105.25 8.86481 104.418 8.07776 102.838 8.07776H101.715V12.8001L103.295 12.7587Z" fill="white"/>
<path d="M121.219 26.6359V9.61044H115.23V0.745636H136.938V9.61044H130.95V26.6359H121.219Z" fill="white"/>
<path d="M7.17139 54.6111V28.7209H25.0533V36.2601H16.8193V38.3313H23.4314V44.9592H16.8193V47.0719H25.0533V54.6111H7.17139Z" fill="white"/>
<path d="M39.6055 54.8597L36.4866 48.066C36.1539 47.3204 36.0292 46.7819 36.0292 46.0777H35.6133V54.6111H26.2981V28.7209H37.1104L40.2293 35.5145C40.562 36.2601 40.6868 36.7986 40.6868 37.5028H41.1026V28.7209H50.4178V54.8597H39.6055Z" fill="white"/>
<path d="M52.0813 54.6111V28.7209H69.9632V36.2601H61.7292V38.3313H68.3413V44.9592H61.7292V47.0719H69.9632V54.6111H52.0813Z" fill="white"/>
<path d="M84.3931 54.6111L81.7316 47.6932L80.9415 47.7347V54.6111H71.2104V28.7209H84.4347C91.0053 28.7209 94.4569 32.2005 94.4569 37.8342C94.4569 40.8582 93.043 43.5094 90.631 45.0835L95.0391 54.6111H84.3931ZM82.3554 40.734C83.6862 40.6097 84.31 39.7812 84.31 38.2485C84.31 36.8401 83.4782 36.053 81.898 36.053H80.7752V40.7754L82.3554 40.734Z" fill="white"/>
<path d="M117.953 53.3269C115.416 54.6939 111.965 55.3567 108.097 55.3567C99.8218 55.3567 94.8315 50.7172 94.8315 41.7696C94.8315 33.3604 99.6555 27.9752 108.305 27.9752C111.757 27.9752 114.876 28.5966 117.163 29.6736L115.333 37.6271C113.67 36.9643 111.549 36.5086 109.511 36.5086C106.06 36.5086 104.978 38.6627 104.978 41.8938C104.978 45.1249 106.018 47.4447 109.22 47.4447V45.2492H107.141V38.787H117.953V53.3269Z" fill="white"/>
<path d="M124.149 54.6111V46.0777L116.539 28.7209H127.06L128.516 34.5203C128.682 35.2245 128.807 36.0116 128.807 36.7986H129.223C129.223 36.0116 129.347 35.2245 129.514 34.5203L130.969 28.7209H141.491L133.88 46.0777V54.6111H124.149Z" fill="white"/>
<path d="M142.666 52.1979L3.46337 57.04C1.5506 57.1066 0.0541482 58.7051 0.120943 60.6105L0.74985 78.5501C0.816645 80.4554 2.4214 81.9461 4.33416 81.8795L143.537 77.0373C145.449 76.9708 146.946 75.3723 146.879 73.4669L146.25 55.5273C146.183 53.622 144.579 52.1313 142.666 52.1979Z" fill="url(#paint0_linear_2426_5607)"/>
<path d="M14.6263 78.1512L13.9915 60.0405L22.5138 59.7449C28.3025 59.5433 29.8024 61.5814 29.9022 64.448C29.9604 66.0718 29.1619 67.4029 27.6732 68.1817C29.2091 68.8252 30.3069 70.1784 30.3707 72.0038C30.4788 75.0747 29.259 77.643 23.0322 77.8584L14.6236 78.1512H14.6263ZM22.0064 66.8119C22.5886 66.7926 22.9518 66.3452 22.9324 65.7929C22.913 65.2406 22.5193 64.7932 21.9371 64.8125L20.9196 64.8484L20.9889 66.8478L22.0064 66.8119ZM22.6247 72.824C23.2069 72.8047 23.5673 72.3269 23.5479 71.7774C23.5285 71.2278 23.1348 70.8052 22.5526 70.8246L21.1276 70.8743L21.1969 72.8737L22.6219 72.824H22.6247Z" fill="#190633"/>
<path d="M39.9715 59.1374L46.7777 58.8999L47.1492 69.535C47.3461 75.1272 44.4628 77.6376 39.3727 77.8143C34.2826 77.991 31.2302 75.6906 31.0334 70.0955L30.6619 59.4605L37.4681 59.223L37.834 69.6261C37.8784 70.9019 38.2249 71.642 39.1564 71.6117C40.088 71.5785 40.3818 70.8136 40.3375 69.5404L39.9715 59.1374Z" fill="#190633"/>
<path d="M48.5327 69.9215C50.7284 71.0925 52.9851 71.4791 54.4683 71.4266C54.9618 71.4101 55.2474 71.1974 55.2363 70.9351C55.2252 70.6451 54.959 70.4794 54.6069 70.4048C50.4456 69.6785 47.6289 68.2673 47.493 64.3845C47.3544 60.4133 49.9881 58.262 54.3519 58.1101C57.4653 58.0024 60.1268 58.3144 62.0203 59.2064L61.3854 65.2047C59.7275 64.4204 57.6677 63.8542 55.6604 63.9233C55.1947 63.9399 54.9396 64.1525 54.9479 64.3845C54.9563 64.6165 55.2252 64.8401 55.6355 64.9119C60.2903 65.5913 62.5526 66.9915 62.6829 70.7003C62.8326 74.9891 60.0824 77.088 55.2529 77.2537C52.7799 77.3393 50.002 77.0604 47.895 75.9143L48.5299 69.916L48.5327 69.9215Z" fill="#190633"/>
<path d="M63.559 76.45L62.9241 58.3393L69.7303 58.1018L70.3652 76.2125L63.559 76.45Z" fill="#190633"/>
<path d="M80.8446 76.022L78.4964 71.3465C78.2441 70.8329 78.1443 70.4601 78.1277 69.9657L77.8366 69.9768L78.0445 75.9474L71.5294 76.1739L70.8945 58.0631L78.4576 57.8008L80.8058 62.4762C81.0581 62.9899 81.1579 63.3627 81.1745 63.857L81.4656 63.846L81.2494 57.7014L87.7673 57.4749L88.4077 75.7596L80.8446 76.022Z" fill="#190633"/>
<path d="M89.5665 75.5442L88.9316 57.4335L101.441 56.9972L101.626 62.2719L95.8654 62.4735L95.9153 63.9233L100.54 63.7631L100.703 68.3999L96.0788 68.5601L96.1315 70.0375L101.893 69.836L102.078 75.1106L89.5693 75.547L89.5665 75.5442Z" fill="#190633"/>
<path d="M103.051 68.0271C105.247 69.198 107.504 69.5846 108.987 69.5322C109.481 69.5156 109.766 69.3029 109.755 69.0406C109.744 68.7506 109.478 68.5849 109.126 68.5103C104.964 67.784 102.148 66.3729 102.012 62.49C101.876 58.6072 104.507 56.3675 108.871 56.2156C111.984 56.1079 114.646 56.42 116.539 57.312L115.904 63.3102C114.246 62.5259 112.186 61.9598 110.179 62.0288C109.714 62.0454 109.458 62.258 109.467 62.49C109.475 62.722 109.744 62.9457 110.154 63.0175C114.809 63.6968 117.071 65.097 117.202 68.8059C117.351 73.0947 114.601 75.1935 109.772 75.3592C107.299 75.4448 104.521 75.1659 102.414 74.0198L103.049 68.0215L103.051 68.0271Z" fill="#190633"/>
<path d="M118.18 67.4996C120.376 68.6706 122.633 69.0572 124.116 69.0047C124.61 68.9881 124.895 68.7755 124.884 68.5131C124.873 68.2232 124.607 68.0575 124.255 67.9829C120.093 67.2566 117.277 65.8454 117.141 61.9626C117.005 58.0797 119.636 55.84 124 55.6882C127.113 55.5805 129.775 55.8925 131.668 56.7845L131.033 62.7828C129.375 61.9985 127.315 61.4323 125.308 61.5014C124.842 61.5179 124.587 61.7306 124.596 61.9626C124.604 62.1945 124.873 62.4182 125.283 62.49C129.938 63.1694 132.2 64.5695 132.331 68.2784C132.48 72.5672 129.73 74.666 124.901 74.8317C122.428 74.9173 119.65 74.6384 117.543 73.4923L118.178 67.4941L118.18 67.4996Z" fill="#190633"/>
<defs>
<linearGradient id="paint0_linear_2426_5607" x1="0.435397" y1="69.5803" x2="146.563" y2="64.4575" gradientUnits="userSpaceOnUse">
<stop stop-color="#6250F2"/>
<stop offset="1" stop-color="#8272F5"/>
</linearGradient>
</defs>
</svg>
