<svg xmlns="http://www.w3.org/2000/svg" class="bespoke-icons" width="120" height="120" viewBox="0 0 120 120" fill="none">

<path d="M14.6665 15.9189H43.9998C51.606 15.9189 57.8584 21.7079 58.5932 29.1189H0.0731697C0.807968 21.7079 7.06037 15.9189 14.6665 15.9189Z" fill="url(#boilers_1)"/>
<path d="M58.6665 36.4523V89.2523C58.6665 97.3527 52.1002 103.919 43.9998 103.919H14.6665C6.5661 103.919 -0.000164032 97.3527 -0.000164032 89.2523V36.4523H58.6665ZM46.9332 95.1189C48.5538 95.1189 49.8665 93.8063 49.8665 92.1856C49.8665 90.5649 48.5538 89.2523 46.9332 89.2523C45.3125 89.2523 43.9998 90.5649 43.9998 92.1856C43.9998 93.8063 45.3125 95.1189 46.9332 95.1189ZM36.6665 95.1189C38.2872 95.1189 39.5998 93.8063 39.5998 92.1856C39.5998 90.5649 38.2872 89.2523 36.6665 89.2523C35.0458 89.2523 33.7332 90.5649 33.7332 92.1856C33.7332 93.8063 35.0458 95.1189 36.6665 95.1189ZM29.3332 77.5189C36.1869 77.5189 41.7441 71.9632 41.7441 65.108C41.7441 56.4209 29.3332 45.2523 29.3332 45.2523C29.3332 45.2523 16.9222 56.4209 16.9222 65.108C16.9222 71.9632 22.4794 77.5189 29.3332 77.5189Z" fill="url(#boilers_2)"/>

<defs>
<linearGradient id="boilers_1" x1="29.3348" y1="15.9189" x2="29.3348" y2="103.943" gradientUnits="userSpaceOnUse">
<stop offset="0" stop-color="#FF2CDE"/>
<stop offset="1" stop-color="#FF72E9"/>
</linearGradient>
<linearGradient id="boilers_2" x1="29.3348" y1="15.9189" x2="29.3348" y2="103.943" gradientUnits="userSpaceOnUse">
<stop offset="0" stop-color="#FF2CDE"/>
<stop offset="1" stop-color="#FF72E9"/>
</linearGradient>
</defs>
</svg>