<svg xmlns="http://www.w3.org/2000/svg" class="bespoke-icons" fill="none" viewBox="0 0 120 120"><path fill="url(#cavity_1)" fill-rule="evenodd" d="M71.797 21.936h10.405a2.864 2.864 0 0 1 2.864 2.864v70.538a2.864 2.864 0 0 1-2.864 2.864H71.798a2.864 2.864 0 0 1-2.865-2.864V24.8a2.864 2.864 0 0 1 2.864-2.864Zm-68.933 0H13.27a2.864 2.864 0 0 1 2.864 2.864v70.538a2.864 2.864 0 0 1-2.864 2.864H2.864A2.864 2.864 0 0 1 0 95.338V24.8a2.864 2.864 0 0 1 2.864-2.864Zm44.07 73.333a2.933 2.933 0 1 0 5.866 0 2.933 2.933 0 0 0-5.867 0Zm-5.867 2.933a2.933 2.933 0 1 1 0-5.866 2.933 2.933 0 0 1 0 5.866Zm14.666-2.933a2.933 2.933 0 1 0 5.867 0 2.933 2.933 0 0 0-5.867 0Zm-23.466 2.933a2.933 2.933 0 1 1 0-5.866 2.933 2.933 0 0 1 0 5.866ZM20.532 95.27a2.933 2.933 0 1 0 5.867 0 2.933 2.933 0 0 0-5.867 0Zm24.934-5.867a2.933 2.933 0 1 1 0-5.866 2.933 2.933 0 0 1 0 5.866ZM33.733 86.47a2.933 2.933 0 1 0 5.867 0 2.933 2.933 0 0 0-5.867 0Zm29.334 2.933a2.933 2.933 0 1 1 0-5.866 2.933 2.933 0 0 1 0 5.866ZM51.332 86.47a2.933 2.933 0 1 0 5.867 0 2.933 2.933 0 0 0-5.867 0Zm-23.466 2.933a2.933 2.933 0 1 1 0-5.866 2.933 2.933 0 0 1 0 5.866ZM46.932 77.67a2.933 2.933 0 1 0 5.867 0 2.933 2.933 0 0 0-5.867 0Zm-5.867 2.933a2.933 2.933 0 1 1 0-5.866 2.933 2.933 0 0 1 0 5.866Zm14.667-2.933a2.933 2.933 0 1 0 5.867 0 2.933 2.933 0 0 0-5.867 0Zm-23.466 2.933a2.933 2.933 0 1 1 0-5.866 2.933 2.933 0 0 1 0 5.866ZM20.532 77.67a2.933 2.933 0 1 0 5.867 0 2.933 2.933 0 0 0-5.867 0Zm24.934-5.867a2.933 2.933 0 1 1 0-5.866 2.933 2.933 0 0 1 0 5.866ZM33.733 68.87a2.933 2.933 0 1 0 5.867 0 2.933 2.933 0 0 0-5.867 0Zm29.334 2.933a2.933 2.933 0 1 1 0-5.866 2.933 2.933 0 0 1 0 5.866ZM51.332 68.87a2.933 2.933 0 1 0 5.867 0 2.933 2.933 0 0 0-5.867 0Zm-23.466 2.933a2.933 2.933 0 1 1 0-5.866 2.933 2.933 0 0 1 0 5.866ZM46.932 60.07a2.933 2.933 0 1 0 5.867 0 2.933 2.933 0 0 0-5.867 0Zm-5.867 2.933a2.933 2.933 0 1 1 0-5.866 2.933 2.933 0 0 1 0 5.866Zm14.667-2.933a2.933 2.933 0 1 0 5.867 0 2.933 2.933 0 0 0-5.867 0Zm-23.466 2.933a2.933 2.933 0 1 1 0-5.866 2.933 2.933 0 0 1 0 5.866ZM20.532 60.07a2.933 2.933 0 1 0 5.867 0 2.933 2.933 0 0 0-5.867 0Zm24.934-5.867a2.933 2.933 0 1 1 0-5.866 2.933 2.933 0 0 1 0 5.866ZM33.733 51.27a2.933 2.933 0 1 0 5.867 0 2.933 2.933 0 0 0-5.867 0Zm29.334 2.933a2.933 2.933 0 1 1 0-5.866 2.933 2.933 0 0 1 0 5.866ZM51.332 51.27a2.933 2.933 0 1 0 5.867 0 2.933 2.933 0 0 0-5.867 0Zm-23.466 2.933a2.933 2.933 0 1 1 0-5.866 2.933 2.933 0 0 1 0 5.866ZM46.932 42.47a2.933 2.933 0 1 0 5.867 0 2.933 2.933 0 0 0-5.867 0Zm-5.867 2.933a2.933 2.933 0 1 1 0-5.866 2.933 2.933 0 0 1 0 5.866Zm14.667-2.933a2.933 2.933 0 1 0 5.867 0 2.933 2.933 0 0 0-5.867 0Zm-23.466 2.933a2.933 2.933 0 1 1 0-5.866 2.933 2.933 0 0 1 0 5.866ZM20.532 42.47a2.933 2.933 0 1 0 5.867 0 2.933 2.933 0 0 0-5.867 0Zm24.934-5.867a2.933 2.933 0 1 1 0-5.866 2.933 2.933 0 0 1 0 5.866ZM33.733 33.67a2.933 2.933 0 1 0 5.867 0 2.933 2.933 0 0 0-5.867 0Zm29.334 2.933a2.933 2.933 0 1 1 0-5.866 2.933 2.933 0 0 1 0 5.866ZM51.332 33.67a2.933 2.933 0 1 0 5.867 0 2.933 2.933 0 0 0-5.867 0Zm-23.466 2.933a2.933 2.933 0 1 1 0-5.866 2.933 2.933 0 0 1 0 5.866ZM46.932 24.87a2.933 2.933 0 1 0 5.867 0 2.933 2.933 0 0 0-5.867 0Zm-5.867 2.933a2.933 2.933 0 1 1 0-5.866 2.933 2.933 0 0 1 0 5.866Zm14.667-2.933a2.933 2.933 0 1 0 5.867 0 2.933 2.933 0 0 0-5.867 0Zm-23.466 2.933a2.933 2.933 0 1 1 0-5.866 2.933 2.933 0 0 1 0 5.866ZM20.532 24.87a2.933 2.933 0 1 0 5.867 0 2.933 2.933 0 0 0-5.867 0Z" clip-rule="evenodd"/><defs><linearGradient id="cavity_1" x1="42.535" x2="42.535" y1="21.936" y2="98.223" gradientUnits="userSpaceOnUse"><stop offset="0" stop-color="#FF2CDE"/><stop offset="1" stop-color="#FF72E9"/></linearGradient></defs></svg>