<svg xmlns="http://www.w3.org/2000/svg" class="bespoke-icons" width="96" height="96" viewBox="0 0 96 96" fill="none">
  <path d="M47.6742 0.668945C73.9534 0.668945 95.2568 21.9724 95.2568 48.2515C95.2568 74.5307 73.9534 95.8341 47.6742 95.8341C21.395 95.8341 0.0916367 74.5307 0.0916367 48.2515C0.0916367 21.9724 21.395 0.668945 47.6742 0.668945ZM24.1276 24.4602C20.6915 24.4602 17.2588 26.1596 15.2977 29.5584C11.3721 36.3559 16.2765 44.8528 24.1276 44.8528H41.7876L32.9576 29.5584C30.9931 26.1596 27.5604 24.4602 24.1276 24.4602ZM47.6742 10.8652C39.8265 10.8652 34.9187 19.3621 38.8443 26.1596L47.6742 41.454L56.5042 26.1596C57.4525 24.518 57.8841 22.7745 57.8841 21.0785C57.8841 15.7526 53.6255 10.8652 47.6742 10.8652ZM80.0508 29.5584C76.1286 22.7609 66.3164 22.7609 62.3909 29.5584L53.5609 44.8528H71.2208C77.1754 44.8528 81.4341 39.9688 81.4341 34.6429C81.4341 32.9435 80.999 31.2034 80.0508 29.5584ZM71.2208 72.0428C74.657 72.0428 78.0897 70.3435 80.0508 66.9447C83.9764 60.1472 79.072 51.6503 71.2208 51.6503H53.5609L62.3909 66.9447C64.3553 70.3435 67.7881 72.0428 71.2208 72.0428ZM47.6742 85.6379C55.522 85.6379 60.4298 77.141 56.5042 70.3435L47.6742 55.0491L38.8443 70.3435C37.896 71.9851 37.4644 73.7286 37.4644 75.4246C37.4644 80.7505 41.723 85.6379 47.6742 85.6379ZM15.2977 66.9447C19.2198 73.7422 29.032 73.7422 32.9576 66.9447L41.7876 51.6503H24.1276C18.173 51.6503 13.9144 56.5343 13.9144 61.8602C13.9144 63.5596 14.3494 65.2997 15.2977 66.9447Z" fill="url(#floor_1)"/>
  <defs>
    <linearGradient id="floor_1" x1="47.6769" y1="0.668943" x2="47.6769" y2="95.8597" gradientUnits="userSpaceOnUse">
      <stop offset="0" stop-color="#FF2CDE"/>
      <stop offset="1" stop-color="#FF72E9"/>
    </linearGradient>
  </defs>
</svg>