<svg xmlns="http://www.w3.org/2000/svg" class="bespoke-icons" width="120" height="120" viewBox="0 0 120 120" fill="none">
  <g clip-path="url(#clip0_2906_932)">
    <path d="M14.6667 30.9521H73.3333C81.4337 30.9521 88 37.5184 88 45.6188V74.9522C88 83.0526 81.4337 89.6188 73.3333 89.6188H14.6667C6.56627 89.6188 0 83.0526 0 74.9522V45.6188C0 37.5184 6.56627 30.9521 14.6667 30.9521ZM58.6667 80.8188C70.0069 80.8188 79.2 71.6258 79.2 60.2855C79.2 48.9452 70.0069 39.7521 58.6667 39.7521C47.3264 39.7521 38.1333 48.9452 38.1333 60.2855C38.1333 71.6258 47.3264 80.8188 58.6667 80.8188ZM13.2 61.7521H29.3333C30.954 61.7521 32.2667 60.4395 32.2667 58.8188C32.2667 58.0092 31.9381 57.2759 31.4072 56.7449C30.8763 56.214 30.1429 55.8855 29.3333 55.8855H13.2C11.5793 55.8855 10.2667 57.1982 10.2667 58.8188C10.2667 60.4395 11.5793 61.7521 13.2 61.7521ZM13.2 50.0188H29.3333C30.954 50.0188 32.2667 48.7062 32.2667 47.0855C32.2667 46.2759 31.9381 45.5425 31.4072 45.0116C30.8763 44.4807 30.1429 44.1521 29.3333 44.1521H13.2C11.5793 44.1521 10.2667 45.4648 10.2667 47.0855C10.2667 48.7062 11.5793 50.0188 13.2 50.0188Z" fill="url(#paint0_linear_2906_932)"/>
    <path d="M58.6667 63.2188L62.4771 69.8188C64.1711 72.7522 62.0532 76.4188 58.6667 76.4188C56.0986 76.4188 54.2608 74.3098 54.2608 72.0115C54.2608 71.2796 54.4471 70.5272 54.8563 69.8188L58.6667 63.2188Z" fill="url(#paint1_linear_2906_932)"/>
    <path d="M58.6667 57.3521L54.8563 50.7521C53.1623 47.8188 55.2801 44.1521 58.6667 44.1521C61.2348 44.1521 63.0725 46.2612 63.0725 48.5595C63.0725 49.2913 62.8863 50.0437 62.4771 50.7521L58.6667 57.3521Z" fill="url(#paint2_linear_2906_932)"/>
    <path d="M48.5056 61.7521H56.1264L52.316 68.3521C50.622 71.2855 46.3877 71.2855 44.6952 68.3521C44.286 67.6423 44.0982 66.8914 44.0982 66.158C44.0982 63.8598 45.936 61.7521 48.5056 61.7521Z" fill="url(#paint3_linear_2906_932)"/>
    <path d="M68.8277 58.8188H61.2069L65.0173 52.2188C66.7113 49.2855 70.9456 49.2855 72.6381 52.2188C73.0473 52.9287 73.2351 53.6796 73.2351 54.4129C73.2351 56.7112 71.3973 58.8188 68.8277 58.8188Z" fill="url(#paint4_linear_2906_932)"/>
    <path d="M48.5056 50.0188C49.9869 50.0188 51.4682 50.7521 52.316 52.2188L56.1264 58.8188H48.5056C45.1176 58.8188 43.0012 55.1521 44.6952 52.2188C45.5414 50.7521 47.0228 50.0188 48.5056 50.0188Z" fill="url(#paint5_linear_2906_932)"/>
    <path d="M68.8277 61.7521C72.2157 61.7521 74.3321 65.4188 72.6381 68.3521C71.7919 69.8188 70.3105 70.5522 68.8277 70.5522C67.3449 70.5522 65.8651 69.8188 65.0173 68.3521L61.2069 61.7521H68.8277Z" fill="url(#paint6_linear_2906_932)"/>
  </g>
  <defs>
    <linearGradient id="paint0_linear_2906_932" x1="44.0024" y1="30.9521" x2="44.0024" y2="89.6346" gradientUnits="userSpaceOnUse">
      <stop offset="0" stop-color="#FF2CDE"/>
      <stop offset="1" stop-color="#FF72E9"/>
    </linearGradient>
    <linearGradient id="paint1_linear_2906_932" x1="44.0024" y1="30.9521" x2="44.0024" y2="89.6346" gradientUnits="userSpaceOnUse">
      <stop offset="0" stop-color="#FF2CDE"/>
      <stop offset="1" stop-color="#FF72E9"/>
    </linearGradient>
    <linearGradient id="paint2_linear_2906_932" x1="44.0024" y1="30.9521" x2="44.0024" y2="89.6346" gradientUnits="userSpaceOnUse">
      <stop offset="0" stop-color="#FF2CDE"/>
      <stop offset="1" stop-color="#FF72E9"/>
    </linearGradient>
    <linearGradient id="paint3_linear_2906_932" x1="44.0024" y1="30.9521" x2="44.0024" y2="89.6346" gradientUnits="userSpaceOnUse">
      <stop offset="0" stop-color="#FF2CDE"/>
      <stop offset="1" stop-color="#FF72E9"/>
    </linearGradient>
    <linearGradient id="paint4_linear_2906_932" x1="44.0024" y1="30.9521" x2="44.0024" y2="89.6346" gradientUnits="userSpaceOnUse">
      <stop offset="0" stop-color="#FF2CDE"/>
      <stop offset="1" stop-color="#FF72E9"/>
    </linearGradient>
    <linearGradient id="paint5_linear_2906_932" x1="44.0024" y1="30.9521" x2="44.0024" y2="89.6346" gradientUnits="userSpaceOnUse">
      <stop offset="0" stop-color="#FF2CDE"/>
      <stop offset="1" stop-color="#FF72E9"/>
    </linearGradient>
    <linearGradient id="paint6_linear_2906_932" x1="44.0024" y1="30.9521" x2="44.0024" y2="89.6346" gradientUnits="userSpaceOnUse">
      <stop offset="0" stop-color="#FF2CDE"/>
      <stop offset="1" stop-color="#FF72E9"/>
    </linearGradient>
    <clipPath id="clip0_2906_932">
      <rect width="120" height="120" fill="white"/>
    </clipPath>
  </defs>
</svg>