<svg xmlns="http://www.w3.org/2000/svg" class="bespoke-icons" fill="none" viewBox="0 0 120 120"><path fill="url(#a)" fill-rule="evenodd" d="M40.745 17.904 2.612 43.328A5.862 5.862 0 0 0 0 48.208v49.66a5.866 5.866 0 0 0 5.867 5.867h76.266A5.866 5.866 0 0 0 88 97.869v-49.66c0-1.963-.98-3.795-2.612-4.881L47.254 17.904a5.866 5.866 0 0 0-6.508 0Zm39.922 31.09v21.008H7.333V48.994L44 24.548l36.667 24.444ZM60.69 47.127a5.413 5.413 0 0 1 5.406 5.406l-.002.002c0 4.023-3.273 7.296-7.295 7.296H16.82a2.152 2.152 0 0 0 0 4.303h42.3c.082 0 .163-.004.24-.014 6.138-.29 11.041-5.377 11.041-11.587 0-5.353-4.356-9.71-9.709-9.71-4.522 0-8.2 3.68-8.2 8.2a6.996 6.996 0 0 0 6.989 6.988 6.03 6.03 0 0 0 6.022-6.022 2.151 2.151 0 1 0-4.303 0c0 .946-.772 1.717-1.72 1.717a2.689 2.689 0 0 1-2.685-2.685 3.9 3.9 0 0 1 3.896-3.894Z" clip-rule="evenodd"/><defs><linearGradient id="a" x1="43.998" x2="43.998" y1="16.919" y2="103.759" gradientUnits="userSpaceOnUse"><stop offset="0" stop-color="#FF2CDE"/><stop offset="1" stop-color="#FF72E9"/></linearGradient></defs></svg>