<svg xmlns="http://www.w3.org/2000/svg" class="bespoke-icons" width="87" height="86" viewBox="0 0 87 86" fill="none">
  <path d="M74.2449 31.6656C75.5333 32.5251 75.881 34.265 75.023 35.5534C74.1636 36.8419 72.4237 37.1896 71.1352 36.3315L43.2478 17.7395L15.3604 36.3315C14.8823 36.6498 14.3426 36.8026 13.807 36.8026C12.9013 36.8026 12.011 36.3638 11.4712 35.5534C10.6118 34.265 10.9609 32.5237 12.2494 31.6656L43.2464 11L74.2449 31.6656Z" fill="url(#paint0_linear_2902_374)"/>
  <path d="M2.58245 26.1605L40.2825 0.976332C42.2313 -0.325444 44.7688 -0.325444 46.7176 0.976332L84.4176 26.1605C86.0314 27.237 87 29.0517 87 30.9956V80.1885C87 83.3979 84.4031 86 81.2 86H5.8C2.59695 86 0 83.3979 0 80.1885V30.9956C0 29.0517 0.968605 27.237 2.58245 26.1605ZM7.25 48.2253H79.75V31.7729L43.5 7.55785L7.25 31.7729V48.2253Z" fill="url(#paint1_linear_2902_374)"/>
  <defs>
    <linearGradient id="paint0_linear_2902_374" x1="43.2486" y1="11" x2="43.2486" y2="36.8095" gradientUnits="userSpaceOnUse">
      <stop offset="0" stop-color="#FF2CDE"/>
      <stop offset="1" stop-color="#FF72E9"/>
    </linearGradient>
    <linearGradient id="paint1_linear_2902_374" x1="43.5024" y1="-1.95951e-06" x2="43.5024" y2="86.0231" gradientUnits="userSpaceOnUse">
      <stop offset="0" stop-color="#FF2CDE"/>
      <stop offset="1" stop-color="#FF72E9"/>
    </linearGradient>
  </defs>
</svg>