<svg xmlns="http://www.w3.org/2000/svg" class="bespoke-icons" width="120" height="120" viewBox="0 0 120 120" fill="none">
  <path d="M22.0002 86.1485H33.0002V77.3485H49.1335V86.1485H60.1335C61.7542 86.1485 63.0669 87.4612 63.0669 89.0818C63.0669 90.7025 61.7542 92.0152 60.1335 92.0152H22.0002C20.3795 92.0152 19.0669 90.7025 19.0669 89.0818C19.0669 87.4612 20.3795 86.1485 22.0002 86.1485Z" fill="url(#solar_1)"/>
  <path d="M11.0618 32.9598C11.8597 30.5648 14.1022 28.9485 16.6264 28.9485H38.8669V48.0152H6.04286L11.0618 32.9598Z" fill="url(#solar_2)"/>
  <path d="M43.2669 28.9485H65.5074C68.0315 28.9485 70.2741 30.5648 71.0719 32.9598L76.0909 48.0152H43.2669V28.9485Z" fill="url(#solar_3)"/>
  <path d="M43.2669 52.4152H77.5575L81.8285 65.2265C83.0942 69.0252 80.2665 72.9485 76.2625 72.9485H43.2669V52.4152Z" fill="url(#solar_4)"/>
  <path d="M0.305275 65.2265L4.57619 52.4152H38.8669V72.9485H5.87127C1.86727 72.9485 -0.960457 69.0252 0.305275 65.2265Z" fill="url(#solar_5)"/>
  <defs>
    <linearGradient id="solar_1" x1="41.0692" y1="28.9485" x2="41.0692" y2="92.0321" gradientUnits="userSpaceOnUse">
      <stop offset="0" stop-color="#FF2CDE"/>
      <stop offset="1" stop-color="#FF72E9"/>
    </linearGradient>
    <linearGradient id="solar_2" x1="41.0692" y1="28.9485" x2="41.0692" y2="92.0321" gradientUnits="userSpaceOnUse">
      <stop offset="0" stop-color="#FF2CDE"/>
      <stop offset="1" stop-color="#FF72E9"/>
    </linearGradient>
    <linearGradient id="solar_3" x1="41.0692" y1="28.9485" x2="41.0692" y2="92.0321" gradientUnits="userSpaceOnUse">
      <stop offset="0" stop-color="#FF2CDE"/>
      <stop offset="1" stop-color="#FF72E9"/>
    </linearGradient>
    <linearGradient id="solar_4" x1="41.0692" y1="28.9485" x2="41.0692" y2="92.0321" gradientUnits="userSpaceOnUse">
      <stop offset="0" stop-color="#FF2CDE"/>
      <stop offset="1" stop-color="#FF72E9"/>
    </linearGradient>
    <linearGradient id="solar_5" x1="41.0692" y1="28.9485" x2="41.0692" y2="92.0321" gradientUnits="userSpaceOnUse">
      <stop offset="0" stop-color="#FF2CDE"/>
      <stop offset="1" stop-color="#FF72E9"/>
    </linearGradient>
  </defs>
</svg>